<mxfile>
    <diagram id="l1c7Nxvu9nQXHTme1ghr" name="Page-1">
        <mxGraphModel dx="399" dy="823" grid="1" gridSize="10" guides="1" tooltips="1" connect="1" arrows="1" fold="1" page="1" pageScale="1" pageWidth="850" pageHeight="1100" math="0" shadow="0">
            <root>
                <mxCell id="0"/>
                <mxCell id="1" parent="0"/>
                <mxCell id="9" value="" style="shape=image;verticalLabelPosition=bottom;labelBackgroundColor=#ffffff;verticalAlign=top;aspect=fixed;imageAspect=0;image=data:image/png,iVBORw0KGgoAAAANSUhEUgAAAmYAAAGqCAYAAACh7ojYAAAABHNCSVQICAgIfAhkiAAAABl0RVh0U29mdHdhcmUAZ25vbWUtc2NyZWVuc2hvdO8Dvz4AAAAtdEVYdENyZWF0aW9uIFRpbWUAV2VkIDA1IE1heSAyMDIxIDAyOjIxOjM5IFBNIFdJQtLkRtYAACAASURBVHic7J13WBXH9//f9wIXEBCliwqC2FCxRERFbIiosYso9kJssTcsaDAaW4KxN+yxF+y9kCB2sfcIokhUEJReBN6/P/iyP9d7sbdPMq/nuQ/cmTOzZ2fn7p6dOWdGQZIQCAQCgUAgEHx1lF9bAYFAIBAIBAJBHsIwEwgEAoFAIPhGEIaZQCAQCAQCwTeCMMwEAoFAIBAIvhGEYSYQCAQCgUDwjSAMM4FAIBAIBIJvBGGYCQQCgUAgEHwjaH9tBQSCb4Xo6GiEhYVpzLOxsYGrq+sX1kgzDx8+xI4dO3Dw4EE0a9YMQ4YMee86QkJC0LBhQ4159+7dw/nz599Yvn379lCpVO99XIFAIBC8GWGYCQT/R05ODmbPno0LFy5AoVDAzc0NAJCdnY0zZ85AS0sLkyZNwqBBg1CkSJGvpue9e/cQHByMc+fOwcbG5p3LXbt2DfPnz8fFixdx8+ZNpKWlaZTr1atXgQZqPgkJCcIwEwgEgs+AMMwEgv+jVKlSCAsLQ/ny5eHs7IwtW7YAAHJzc/HgwQP4+Phg4sSJiIuLw9y5c7+ano0aNUKjRo1gb2//XuWuXr2K4sWL4+7duyhow4+EhATExMRgxYoVaiNqL1++RLt27VCmTBkYGxt/sP4CgUAgKBhhmAkEr6CrqwsdHR0YGhpKaUqlEnZ2dhg/fjzatGmDrVu3flXD7EPp0qULgLyRwbNnz2qUSUhIwHfffYfevXur5c2ZMwdKpRJBQUFQKoV7qkAgEHwOhGEmELwjrVq1goODA+7fvy+lvXz5EocPH8b69euRk5MDT09PeHp6onjx4mrlT58+jZ07dyIqKgotWrSAiYkJKleurDYdeeLECezYsQMxMTFwcnJCy5Yt4eTk9NnPDwCsrKywZMkStfSbN29i2rRpWLt2LczMzL6ILgKBQPBfRLz2CgTvyKFDhxAZGYmiRYsCAB4/foxWrVrht99+Q40aNeDi4oJNmzahQoUKOHDggKzsihUr0KBBA6Snp8PFxQUhISFo0aIFvL29kZWVJckNHjwYHTt2hEKhgIuLC27cuAEXFxesXLnyi5yjoaEhTE1N1dJ79uwJb29vNG3a9IvoIRAIBP9VxIiZQKCBmzdvIi4uTvr+4MEDdO/eHSTh7+8PAFi1ahX+/PNPhIeHw9HREUCeYWVkZIQZM2agWbNmUvkZM2aAJObNmwcgbzqxWrVqGDp0KB49egR7e3ucPHkSS5YswZEjR9CgQQMAQFZWFrS0tPDbb7/Bx8cH+vr6X6gF/j+//fYbnjx5gqlTp37xYwsEAsF/DWGYCQQaOHv2LCwsLGRpzs7OGDdunLQ8RZEiRdCiRQvJKAMAHR0dtG/fHteuXVOrMzs7G76+vmjfvj2aNWuGwYMHIyEhQfJnMzQ0hIODA6pXry6VUalUqF+/PtatW4fU1NQvbpi9ePECM2fORIsWLb5qJKpAIBD8VxCGmUCggbp16+LYsWOyNC0tLWhpaUnfBwwYgN69e+PEiRPYsGEDsrOzce/ePYSGhqJixYqyshs3bsTw4cOxYsUKrFy5ElWqVIGXlxf69esnGYBVqlTB1atXcf36dezevRuPHj1CSkoKtm3b9vlPuAD+/PNPPHv2DH5+fl9NB4FAIPgvIXzMBAINlClTBiqVSvZ51SgDgK1bt6J8+fLw9vaGubk5mjdvjuXLl6sZZQBQo0YN7N+/HydOnMCQIUMQHR0Nf39/uLu74+HDhwCAS5cuoW3btvD09ERMTAxKlCiB8ePHY8qUKV/knDUxa9YsVK5cGWXLlv1qOggEAsF/CTFiJhB8AI8ePcL48eNhamqKI0eOwMTERMpzdHTEzZs3ZfJDhw7F77//jrp166Ju3boYM2YMJk6ciJUrV8Lb2xsnT55Ev379EBERgSNHjsimM0+dOvXFzutV7ty5gytXrmDMmDFieQyBQCD4Qoi7rUDwAdy4cQMRERFwc3OTGWVr1qzB5s2b1eT379+PgQMHSt+tra2xYsUK6OnpQaVSIScnB+fPn0fhwoXh4OAgyV28eFEKNvjS7N+/H2lpaahVq9ZXOb5AIBD8F9EKCAgI+NpKCATfAlevXsXo0aMRGhqKW7duQVdXFzVr1tQ4WmRra4vNmzfj5MmTiIuLw+HDhzF37lzExMRApVIhJiYGJiYmMDExQZEiRfD06VPMmTMHO3bsgLGxMdLT0zFkyBDcv38fCxcuRNmyZfHo0SOEhIQgNDQUN2/exLp16xAYGAgzMzM8ffoU0dHRKFOmDLKysjBkyBCEhYUhMzMTxYoVg4ODw1tHtSIjI/Hw4UOsWLEC9+7dw9WrV2FnZwdTU1Noa6sPnm/evBnh4eHo168fSpYs+cnaWSAQCAQFIwwzgeD/iI2Nxb1791CrVi04OzsjJSUFrq6u0NXVVZPV0tKCl5cXDA0NkZ6eDoVCgWbNmuGnn35Cs2bNoFAo8OTJE2RmZqJKlSqws7NDhQoV4OXlhVOnTmHOnDn47rvvsGzZMtSsWRMA0LBhQyiVShQrVgwKhQL29vaYP38+Ro4cCTMzM+Tm5uLOnTswNzdHdHQ0atWqhdKlS+Phw4dwc3N7696V27dvx/Hjx2FlZYXatWujaNGiuHHjBqpXry7b6SCfzMxMlClTBt26dfs0DSwQCASCt6JgQZvmCQQCgUAgEAi+KMLHTCAQCAQCgeAbQRhmAoFAIBAIBN8IwjATCAQCgUAg+EYQhplAIBAIBALBN4IwzAQCgUAgEAi+EYRhJhAIBAKBQPCNIAwzgUAgEAgEgm8EYZgJBAKBQCAQfCMIw0wgEAgEAoHgG0EYZgKBQCAQCATfCMIwEwgEAoFAIPhGEIaZQCAQCAQCwTeCMMwEAoFAIBAIvhGEYSYQCAQCgUDwjSAMM4FAIBAIBIJvhG/aMHvx4gViY2O/thoCgUAgEAgEXwTtDy24adMmJCUlvVGmQYMGKFu27HvXHRUVhV69euH+/fuoX78+1qxZ86Fq/ivZuHEjtm7ditjYWOzbtw/GxsZfWyVBAfz9998ICQnBjh07MH36dFStWvW9ypPE7t27sXXrVujo6GDVqlWfSdOPJycnBy9fvpSl6ejoQEtLS/qenZ2N7Oxs6bu2tja0tT/4NqTG/fv3sW3bNhw9ehSHDh36ZPV+TjS12+vtQhKZmZkF5n8s2dnZuHLlCsLDw+Hr6wul8pt+Z39vcnNzkZWVJX3X1dWFQqH4ihp9eV7tZ+9z/llZWcjNzYVSqYRKpXrv42ZlZb2xXGZmJnR0dN6rz+Xm5iIxMRFbt279YDvjm4YfyNWrV9m7d28CoKOjI5s3by77VKxYkQDYt29fJicnv1fd0dHRXLBgAQ0NDdm9e/cPVfFfS69evVipUiUCYFxc3CetOzw8nFlZWZ+0zrfx6NGjL3q8L8lPP/3E2rVrEwD/+uuv9y7/5MkTNm3alABYtWrVz6Dhp2Pfvn387rvvCIAAWLNmTR45ckQms3jxYpYrV44AaGpqyk2bNn1SHZo3b049PT0WLlz4k9b7OQkNDaVSqZTaDQB/++03mUxkZKQsf8SIEZ9Uh+rVq0t1f+nf/6cgMDCQHTt2lD4bNmyQ5c+aNUvWfp+6333LxMfHc9q0aXR2dpbOv3Xr1rx06dIby61evZodO3akmZkZAbBFixbvfewLFy7Q0tJSdm1e/xgbG/PQoUPvVW9gYKB0LmvWrHlvvb51PtgwI8mFCxcSAOfNm6eWl5SUxPr16xMAf/rppw+qv3z58sIwK4ClS5d+csMsJyeHHh4eTEhI+GR1vo1r167R3d39ix3vaxAWFvbBhlk+bdq0+eYNM5LMzMyksbExLSwsCnzA5xsZFy5c+Cw6jBgx4n/KMCPJZ8+e0c7Ojjo6OoyLi2NaWposPzs7mzExMQTAyZMnMyUl5ZMePz4+ngEBAf+zhllSUhIPHz4sPaxtbGx4//59KT8lJYU7d+4kAG7cuFGtff+tPH/+nI0aNWKPHj1448YNxsXF8cCBA6xYsSJ1dXW5Z88etTLBwcF0cnJikyZNGBQUxLi4OI198l2YNGkS9fX12aVLFwYGBnLgwIEEwDp16jAwMJATJkygnp4e27Vr9171pqSkcOLEif9aw+yjxqtbtmxZYJ6RkRGGDRsGANi6devHHEbwhbh48SKOHDnyRY+5e/fut06JC/KmHv4XUKlUUCqVUCqV0NHR0SiTfy7VqlX7LDr8r7TVq5iamkpTvmZmZtDX15fla2lpwczMDADQqVMnGBgYfNLjm5iYoFChQp+0zi+JkZERihQpAgCoXr06Hj58iIkTJ0r5BgYGqFGjBhQKBTp16qTWvv9WZs+ejcqVK2P16tVwdHSEmZkZmjZtigMHDsDa2hq//PILcnJyJPkdO3aga9eu+P7773Hw4EH4+vrCzMxMY598GxkZGZg7dy4mTZqEdevWYcSIEejQoQMAwMXFBSNGjMDUqVMxduxYBAcHIy0t7Z3rNjAwQKdOnd5Ln/8lPspJoWjRom/MP3bsGADgu+++k6VnZ2dj9uzZCAkJAQAoFAqMGjUKjRo10ljPmTNnsH37dly/fh0AMHjwYDRv3lxN7sSJE/j111/x8uVLODg4oH379mjQoIGUf+HCBQQHB8Pc3Bw+Pj4IDAzE9evX0aNHD+kik8Ts2bNx9OhRAICtrS1GjRoFBwcH2bHu3LmDixcvwtnZGcWKFcPs2bNx6tQpFC1aFKNGjUL16tXV9Fu5cqVkpNauXRsjRoyAoaHhG9vwfdi8eTNyc3Ol79WrV0e5cuUAALGxsdi5cyd27NiBkiVLol27dmjatKkku379ekyfPh0AsH37dhgYGKBUqVKoXbu2JBMTE4OdO3ciKioK1atXR61atWBnZyfTYf/+/ShatChq166Nq1evIjg4GPr6+qhatSo8PT0lueTkZAQGBmLJkiUwNDTExo0bAQC1atVCUlISbt68CSDvgdWkSROp3JUrVwrMA4CXL19i27Zt0vdGjRrB0tJSra3S0tKwe/du6bofOnQICQkJMDMzg4eHx1vb+k2cPn0aUVFRAID69eu/UTYuLk7qawDQrl279zIsIiIicO7cOQCAnp4e2rZtq1Hu9u3bSEhIQJ06dZCSkoI9e/YAANq3by/5f8TGxuLYsWPQ1taWbqBfmpCQEDRs2BDA/7/WJUqUgJubW4FlwsPDcffuXdjZ2aFWrVpvrD8pKQn79u0DANSoUQNlypTRKHfhwgWUK1cORkZGePLkCUJCQqBSqdC+ffsC6w4NDUVMTAwMDAzQqlUrAHkPugYNGrz1Xvk+fMq6/o3MmjULM2bMwI4dO3D37t1/n//RexAeHo4dO3aopZcsWRLlypXDwYMH8fDhQ+k+HhAQgKFDh2LatGkffWySMDQ0xODBg9XyvL29pf/Hjh2L3bt3Y8uWLejZs+c71//ixYuP1vGb5WOG25KTkwmAEyZMkKXfv3+fixcvplKppJGREQ8fPizlpaamsm3btvT09GRwcDCfP3/OsWPHUqlUctu2bbJ6ypcvT6VSyQoVKnDu3LkMCgpi586dqa2tTQ8PD1mdrVu3poWFBRctWsSgoCD6+flRqVRyx44dJPP8OHR0dAiAZcuWZdmyZVm5cmUCoFKpZEpKCm/dukUbGxs2bNiQQUFBDAoKooeHB7W1tXnq1CnpeLNnz6a2tjYBsG7dujQ1NaWTkxPd3NxYokQJFipUSOZb888//7BcuXJs1qyZVK+XlxdNTEwYFhb2QW2vaSrTz8+PAGhlZcUJEybw2rVrJMnY2Fjq6emxUaNGDAoK4qRJk1iiRAnWr19fKrtx40bJF2rIkCEMCgri8ePHpfz169fT0tKSI0aMYFBQEL29vVmiRAnu3buXJHnp0iUaGhpSoVCwSZMmHDZsGA0NDenm5kZHR0cqFApOnz5dqi88PJzDhw8nABoZGdHNzY1ubm68e/cuz507x2HDhhEAnZ2dZef9ap6Li4ssb9GiRSxZsiS7dOnCoKAgNm7cmCqVirNnz5bJeXt7U6VSUalUcvPmzTQ2Nmb16tVZoUIFSf8PISMjgx07dqRSqaSLiwvd3NxoYWHB8uXLq01lvnz5kgEBAbSwsOCPP/7IJUuWsGLFilSpVFyyZIla3R07dlSbygwKCmKJEiXYqVMnBgUFsVmzZlSpVNy8ebMkc+XKFbZr147a2tosXbo0fX19WbRoUWnKx8rKirt37+ZPP/1EXV1d6TdRunRp2VTQ+1C0aFFaWVkVmJ8/JZeTkyOlLVq0iFWqVKGZmRlDQ0PZokULamlpSb/PNm3aMDU1VVZPVFQUmzRpQi0tLX733XesUKECbW1tWbVqVY1TmUOGDGHZsmWlvqarq8tevXrx+fPnkszUqVNZunRpamlp8ejRo/T395fuGwBYpkwZPnz4UFZvZGQkW7VqRQsLC7q5ubFUqVKS361CoXhnfzAHBwfq6OgUmJ+ZmUkAjI2NldK2b9/OTp06Sf1m9uzZtLS0pEqlokql4g8//MDExES1umbNmkUTExNJztXVlT4+PhqnMufNm8fatWuzevXqrFGjBs3MzBgYGCiTuXbtGvv27csaNWowMDCQGzZsYJUqVaT6GzRowFu3bqmdz5o1a6irq8u6devS0dFR6qMWFhbs1avXO7VbPufOnaO1tTVzcnJ47tw5qlQq2f3j0aNHVCgUauXu3bvH/v37s2TJknR3d6ehoSE7duzIZ8+eSTJXrlyhr68vjY2NuXz5ck6ePJmFChWiSqWinp4eJ02axOfPn3P48OHSORctWpQzZ85UO96OHTtYs2ZN1qhRg9WrV6elpaXMHSgjI4MrV65k8+bNWb58eR49epQeHh5UqVQ0MTHhiRMn3rlNevToUeDUdL7vamRkpHSOenp6vHLlCq9fv86ZM2fS19eXs2bN4vXr19/5mK/y8uVL2feQkBAC4OnTp2XpWVlZ0v1g8+bNLFOmDCtUqEA3NzeqVCr6+/szIyNDVmbGjBnSVOaRI0ckWZVKpdbuAwcOpLW1tVTX63nFihVTyzt06BB79OhBlUrFf/75hwsXLqSNjQ1VKhUtLCw4Z86cD2qTd+GjDLMTJ04QAHV1dWlnZyd9ihQpQgAsWbIkr169KisTFBREHR0d7t27lxEREdKnSZMmrFKliqzxy5cvz3bt2qkFDwQGBlJbW1sy+DZs2ECVSsUtW7YwIiKCDx48YG5uLt3d3VmtWjWpzqioKJYqVYqFCxfm0aNHmZaWxn379nHVqlXMzc2ll5cXtbS0ZMdLSUmhnp4eW7VqJaVlZmby4sWLUuBDcHAw09PTSZIREREsVqwYDQwMpOMOHjyYhQoVYnx8vFRHeno6bWxs6Ovr+0Ft/7ph9s8//7B+/fps1aoVb9y4IdO/atWqdHd3l/1IVq1aRS0tLe7bt09KW7JkCQGo+Zjt2LGD+vr63Lp1qyy9WrVqrFSpEtPT05mamsrIyEg6ODgQAEePHs3o6GiSeYazm5sbra2tZeWzs7NZt25dNeOLzDP6DQwMNOYlJiaqGWYRERE0MjLikCFDpLSXL1+yf//+1NfX59OnT6X0qKgo2tvbS4b1jRs3mJmZyZSUFPbv35/a2to8c+aMhlZ/M5MnT6aWlhaXLVvG7OxsknnO++7u7mqG2fHjxwlA9oBLS0tjo0aNWKpUKbW6XzfMzp07R21tbfbt21dKy87OZosWLWhjYyNdw/zrkm8c1q5dm9euXWNkZCRDQ0Opr69PLS0t9u3bl/fu3WNaWhr37NlDAB9843lXw+zFixdS2ubNm+ni4iIZ6kuXLmVkZCQjIyM5ZswYAuAvv/wiyWdlZbFOnTqsUKECDxw4wKysLCYnJ/OPP/5g4cKF1QyziRMnUl9fnxEREVJavs/Rrl27pLRjx46xY8eO0v1rwIABkh7bt28nAPbr109Wt6enJ83NzRkeHk4yz6+ncePGBMDz58/Lfvdv4kMMsylTprBBgwYEQAsLC3p7ezM8PJyRkZH09fUlAC5cuFCSz87O5rhx46ivr8/JkydL5zZ69GiqVCo1w2zXrl1UKpVcuHAh09LSmJ6ezjVr1lBfX5/Tpk2T5NatW8eePXsSAAsXLsz69etz3759jIyM5LJly6hUKunl5SU7n/wH6+LFi/ny5UsmJiZKL5fbt2+Xnee7cO7cORYvXlz6Pm7cOCqVSm7fvp2kZsMsJSWFlpaWbNq0qXQvvXr1KsuVK0dnZ2fJOFuzZg27desmvSg0bNiQBw8e5LVr16SXGRsbG37//fcMDQ3l2bNn2ahRI7XnyebNm6lQKLh8+XKmp6czLS2NQUFB1NfX55QpU5ibm8vnz58zICBAqtfY2Ji+vr4cOHAg7e3tuWzZsnduk4IC71JSUujg4EBnZ2fpuTB16lQCoJubG83Nzdm1a1cGBATQxcWFhQoVYv/+/ZmZmfnOx9ZEQYZZPlevXqWuri5HjhzJxMREZmdn8+jRoyxcuDDnzp0rk83vP+bm5qxatSo3btzIyMhINm3alFpaWlywYIFM/vz589TV1eW4cePUjnv+/HmqVCpZXmBgoBSo1KhRI7Zu3Zrr1q3j2rVrWbZsWerp6fH27dsf1R4F8VGGWUREBAFw2LBhDAsLk31WrFjB0qVL097engcOHJDKFC9enFpaWtTT09P4OX/+vCRbkPP/uXPnqFAo2LNnT5JklSpVCECqo3DhwnR3d5e+598wSbJMmTIFvomtWrWKv/76qywtKyuL+vr6tLW1laXHx8cTgMbRDX9/fwKQRuv69evH4cOHy2RycnJoZ2f30YZZbGwsw8PDWalSJU6YMEHtrWL16tUEwAoVKtDd3V361KpVi3p6euzRo4ckW5BhVqNGDWppabFevXpS+QYNGrB48eJUKpUyI8bR0VHjiNPgwYPVDLP8EVdNxhdJtm3bVmNednY23dzcZIbZsWPHaGlpyaioKJnsqlWrCIAxMTGy9BYtWlCpVKrVffr0aQJgSEiIRp0K4smTJ7SwsGDLli3V8jQ5/8+bN496enpqoy8jR46kmZmZWh2vG2ZhYWE0Nzfn33//LZP7448/ZG/B+Tg5ObF06dKSwZiPiYmJrA+QeQbilzDMTp48KUsfPHgwAXD9+vWy9GfPntHAwEB209y1axcBcPny5Wr19+nTR80w8/DwoKenpyztzJkzBCDdR/LZtm2bRqfi1NRU2traslatWrI6VCoVhw4dKpNduXIlAXD16tUFNYMaH2KYkZSc9l8PwkpMTGSxYsVkxnt+X9R03xk9erSaYebj40MzMzO1yOk6deqo9fX8h2779u3V6m7RogXLlCkjfY+NjaW1tbXaveLy5ctUqVT08/MrqBkK5HXD7PHjxzQ3N6epqSmTk5M1GmZ9+/alUqlUm7m4e/euWpseOnSIADhx4kSZbP61HjNmjCx98+bNsv6clJREExMTVqlSRXqRz2fcuHEEwMuXL0tp+SOYBw8efO+2eBO5ubmcMGECAXDLli1Sure3txRN/arBkZOTw02bNlFXV5c//PDDRx37bYaZv78/DQwMZKOVJNmzZ0+1+1S+Yebj4yN77iUnJ9PW1pbdunVTq79w4cIaDTOSNDQ0VMubN28eAXDdunWy9Bs3bqi91H1KPsrHzMLCAgBgb28PV1dXWZ6rqys8PT1RpkwZdOnSBXfu3JGcV/v164eFCxd+8HGdnZ1lfgNxcXFo2bIldu/e/cF1AkDPnj3x6NEjLF++XPL7OXHiBNLT09+rnuHDh2Pq1KnS4rhLlixBXFwc9u/fj7179yIhIQHPnj3D/fv3P0pfABg3bhxWrFgBIM95/3WH63wddu3aVaA/zduIjY1Fo0aNMGnSJNStWxcA8ODBA+Tm5uLBgwdwcXGRyef3i8+FlpYWTE1N8fjxYymtUaNGePLkCbKzs7F//36cPXsWd+7cKbCNa9eujf37938ynSIiIhAbGwsvL693kh88eDAGDx6M58+fY//+/Th06BCePn2Ky5cvv1N5V1dXxMbG4uHDh9i/fz8uXLiAmzdvIjQ0tMAyNWvWlK0pls/nvl4FockfrGjRonB3d5elveoYn8/27dtRuHBh9OnTR60OTeezbNkyAEBKSorURgsWLHijfq/6VwJAoUKFUKVKFdmi1zo6OhrXg3r06BEASP57T548wahRo9CyZUucOnUKT58+RYMGDdC/f/836vCuaGtro3Xr1rK0woULQ09PT5Z25swZAMCYMWPU6jA3N1dL++2333D9+nUUL14cAHDgwAEkJSXh7t27au2Tj6agDnNzc9y5c0f6rqWlBaVSiZcvX4Kk1IZWVlYFBo28L1ZWVhg3bhxGjBiB6dOnY+DAgbL89PR07Nu3D87OzmrPL2tra1haWmL9+vVqPlL5/oOvM3z4cNn3WrVqQaFQwNraGkCeb3VCQgKmTZumdl3y2+zMmTOoUqWKlG5jY4OaNWu+x1m/naCgIPzyyy/w9vbW6DM5YcIEyTcZAJRKJTp27IhNmzbhjz/+wMCBA997PcZ3xdvbG23atIGpqSmAvDXOjh07hkePHiE6Olomm+932rRpU5lfrqGh4ScP7nj9t/W5+aiozAsXLrwxv3jx4tDR0UFCQoLsgfP8+fOPOSzS0tJkiy0CwLNnzz6qTgBYtWoVKlSogKlTp8LJyQk9evTAlStX3vsiJyQkyL7v378fDg4O+OGHH2Bqaip18lKlSn20zmfPnsW0adNgZGSEgQMHyhZRfF3uY3jx4oVklAF5QRF2dnay4Ir3xcDAAN9///1H6ZVPcnIyBg8eDGtra4wfPx4GBgaoWbMm7O3tP0n978q7XtNHjx6hffv2qFSpEsaPHw99fX3UrFkTxYoVe6fyqampGDFihFQ+OjoaNWvWVDNq/tfQ19fXGKzxOvmBRe9KTk4Oxo0bhzJlymD8+PE4evQoqlat+tERnNWrV0fHjh2xevVqfRTSGgAAIABJREFU7N27F7m5ubhw4QKWLVuG2rVrSzf0a9eu4fr165g+fTr++usv3L59+73P4U2QVLvvvIl37afW1taIiYlBmTJlpLY7cODAG4OW3iXa1sTEBB06dEBISIi0EPCzZ8/wyy+/gKTsXvMx/Pjjj6hXrx5WrlyJ27dvy/JevnyJmJgYjeUMDAzUXjg/BIVCgcKFC79VrqDfbZEiRT5ZsAdJ+Pn5SQMHf/zxh9qirpUqVdIYWAcAXl5eyMjIwJMnTz6JPpooW7YsIiIi4O3tDXNzc1StWhXjx4/HxYsX1WTzg57+jXzUiFnp0qXfmJ+ZmQmSshWD9fT0EBwcjL///lttBCc+Ph7GxsayFa1fN8AA4Pz584iKioKjoyOAvPD4S5cuISIiQk0nTXVq4urVqxgwYACaNWuGVatWSaHXH0J+VGDFihURExMDb29v1KpVCxs3bpS9lX6K1bWDg4NRpkwZuLi4wMPDAwqFAgsXLpTeOvPfzBITE9XK5ubmIiUl5a03Dj09PVy5ckXjNUtNTYVKpfpkb7mv1nv8+HGNEVV8bRV0APD398fixYsxY8YMjBo1SkpfvXo1Nm3a9El1exN79uxBvXr13irXo0cPnDx5Etu2bUOLFi2k9H/++UeKPn4T48ePx8KFCzF58mRMmDBBSt+4cSPWrVv3Ycp/Ilq2bIkdO3bgwYMHsLW1VcvPj6rVREpKSoHlXsXR0RFnzpxBZmbmW42rp0+fomrVqrC2tsaBAwekt/3Hjx9j+fLl73BGb6Zx48bYs2cPevfujUqVKuHvv/9Gw4YNMW/ePGkJCg8Pj7eOhrZs2RLz5s3D7du3Ub58ebX8jIyMAsvm5OTgzp077zyScfPmTdnIjCZIYujQoVi2bBmmT5+O9u3bw8bGBgDURpheJTIy8p10GDJkCBYvXoyBAwfC2NgYz549g4WFBTZt2iT7TXwMKpUKCxYsQI0aNd4r0jgzMxMREREfHTWfm5uL27dva4zSf5UbN2581HHeRmpqKmbMmIE9e/Zgw4YN0gtDcnIyChUqBC0tLTg6OiIsLAzPnz/XOHoaERHxWXUEgIEDB2LVqlUYNmwYjh07BgsLC1hZWaFXr144ffq0TFaTbfBv4aMsg/Dw8ALz/v77b3Tq1AnJycmoVauW9LDy8/NDZmYmRo8eLduG5Pfff4ePjw9SU1Nl9WzevFlaegDIG2no06cPChUqJFn2y5YtQ0ZGBkaPHi3b7iU4OBidO3dWq1MT+aNwRYsWlYyyrKws9O3bt8BRKCBva6qUlBTpe2JiIpYuXSoNQWdlZSE1NRXu7u6yzr5gwYJP8uaR/zbVqFEj9OvXD0FBQejbt6+U3717dxQrVgyTJk2SjZo9f/4c3bp1w9q1a996jDFjxiArKwujRo2StcXZs2fh6ekpuz7vQ2pqqrR0wesolUoYGRkhISFBts5ZUlISJk6ciAMHDsjkt23bhnLlysmMsrS0NGzYsEFj/Z9iGvlVHB0dYW1tjS1btuDBgweyvOPHj6sd+8KFC6hWrRqaNWsmpT9+/LjA9nidJUuWwNbWVmaUZWZmfnWjDMgbMUlOTsaYMWNAUpaXkJCACRMmoE+fPhqnALW1td/pYdihQwckJydj8eLFanmvX9sDBw4gJSUF/v7+MsMlNDQUcXFx73paGgkPD8cPP/yAoKAgxMbG4vjx44iOjsbatWvf++WuWrVqyMnJwW+//aaWl5qairZt28LZ2fmjtmDLXxbhXdaWzMjIwPz58zF48GAMHz5cMspSUlLeOEORPw31JhISEtCpUycsXrwYkZGR+P3337Fy5UqEh4e/cX3MD6Fy5cpo3ry52kxNoUKFULt2bcTHxyM5OVmWd+vWLdy4ceOjRqALGhF9dXmcfPJf5j/HiHdcXBzq1q2Lc+fO4dixY7JpuREjRuDhw4cA8qZo4+PjC7yHXLx4EUWKFFFb/upTceXKFWzYsAEtW7bE7Nmz4eTkBCsrKwCa79efsq3Wr1//3i5Ln5UPdU5bsmQJraysCIDa2tpSmGr+R1tbmxUqVODIkSNljny5ubmcMWMGTU1NaW1tTV9fXzZq1Ij169dnUlKS7Bjly5dn69ataW1tzS5durBHjx5S2P+rS3Dk5uZy2rRpsjobNmxId3d3KSolPDycbdq0oUKhoLa2Nn19fWVRYbm5uXR1daVSqaS7uzt9fX1ZsmRJdu3alfXr16ehoSG3bt0qOfvlO/9bWFiwRo0a9PX1pa+vLwsXLkw7OztpqYGkpCTWrVuXSqWS3bp1o6+vL+3t7enq6kpbW1vq6Ohw7dq1sgCFtzF27FhaW1sTALt16yZFP86YMYOGhoYEQA8PD8np9O7duyxWrBiLFCki6VmnTh3Onz9fVm9wcDAB0NXVlb6+vnR3d+fq1aul9s3PmzNnDidNmkRTU1PJof3Zs2cMDAxkkSJF6ODgwNDQUGZkZDA7O5vr169nxYoVqVAoOGTIEFmEZOvWrWlubs65c+dy4sSJrF27thQdlb+NSvXq1SW9ixUrxq5du0oRsWfPniVJDh8+nAqFgh07dmRoaCgHDBjA4sWLs27dugTAgQMHMjQ0lM+ePePOnTtpbGxMhULBNWvWSO1348YNtmvXjgA4dOhQabmRd+XPP/+ksbExbWxsePjwYS5dupQeHh5SdNWwYcN4/fp15ubmskmTJgRAPz8/hoaGcuzYsbSwsGDx4sUJ5G3JExoayufPnzMoKIhKpZKmpqbctWsX4+Pj6e3tTYVCwVGjRjE0NJSDBg1iiRIlpOjL6dOnMywsjPHx8dy5cydNTEyoVCq5fPlyZmRk8PHjx9y4cSN1dXWlJSpyc3MZFRUlBZZYWFjIAnfeldzcXMmZ2cbGhiNHjuTx48fp6+tLAwMD1q1bV+ZMnp2dzdDQULZv354KhYJz5syR+sg///zD9evXU0dHh3Xq1GFoaCjJvMhHHx8fKpVKjhw5kqGhoVy1apW05ImOjg7Xr1/Pf/75h48fP2aRIkVYsmRJHjp0iMeOHWOTJk1YtmxZ6uvrs1mzZnz69CmfPn3KS5cuccqUKQTAKVOm8M6dOyTzHP/nz59PpVLJihUrSv3u7NmzLFGiBLW0tKhSqVivXj36+vpyxowZ791/cnNzOWDAACqVStapU4e7du1iaGgoZ82aRWdnZ1pbW/Pu3btq5fJXU389ai0sLIxGRkZs3bq1lJaens5GjRpRqVRy+vTpTExM5K1bt+jv7y8tT5J/bfKDQMqXL8/IyEjGxsZy69at0nIrrq6uskjvfGd3Tau4f//99yxRooR0j7916xYLFSpEHR0dNmzYkL6+vhwwYABDQ0PVAnXelT179tDAwIB//vmnWt7jx49pZWWl5vwfERFBGxsburm5Scum3L9/ny1btqSZmZksqjE/sObVJRUyMjI4duxYjYFg+cEskyZNkgIqlixZQm1tbVk09oEDB2hqasqBAwdKabm5uWzcuDEVCsV7b1f0Knv37qWuri6rVKnCPn36SPfR/I+jo6PsudunTx8aGBhw06ZNzM3Nldquf//+BKBx+Y/3Ib+PaAruiImJoYmJCStXrswbN24wOTmZhw4dkqLay5UrJ5MfNWoUAXDWrFmy9KSkJNra2qoF+5B5ATZGRkbcsmULnz9/zj179tDNzU2yZV53/s8Pkrh3754sPT+IYezYsR/aFG9EQb72SvuOREdHy0anNGFpaVngatKxsbEICQnB7du30aRJE1SuXFntTfnRo0cwNTWVHHavX78OGxsbtG/fXuP029OnT7FixQppgdnWrVtLdd66dQtbtmyRZK2trdG7d2+ZU/GLFy+wefNmaSSrVatWqFatGp49e4a1a9ciOTkZDg4O6NKlCxISEmBqaoo5c+bA3d0d27dvB5A3gtW1a1eYmJhI9SYnJ2PHjh2S1e/u7g5XV1ckJiZi06ZNePr0KerUqfPOC5vOmzdP9vbXv39/WFpaYurUqbJVnIsVKyaNnj179gxr1qyRRvdcXV3RuHFjWb0ksWbNGmnEp3HjxnBycoKRkRFI4sSJE9i+fTuOHTuGDh06oG/fvpJP1J07d9SmDIcPHw49PT1p4dp82rRpI02jxMbGYubMmdi5cyc8PDzQrVs3aZokLS0Ne/bswbZt23Dx4kV0794dPj4+sLW1RdOmTfHw4UNYWVnh5MmTSE9Px/79+zFz5kzEx8ejc+fO6NSpExwdHfHzzz9j27ZtsLW1xdChQ3HmzBnZQryNGzeGq6srNm3aJHNQLl26NLp27fpO1ySfEydOYPLkybh//z4cHR3h5eWFihUromPHjvD09ISrqyu6dOmCpKQkbN26FTNnzoS+vj46dOiAH374ASkpKRg/fjwuXLgACwsLTJkyBSdPnkRoaChcXFygq6uLzp07o2TJkpg5c6Y04tmxY0d07NgRDg4OGDt2LPbv3w9dXV3s2rULI0aMkKYPLS0tsX//fkRERGDMmDHSaKednR0OHz6MvXv3ypyYa9asKS3++z7k5OTgzz//xKxZs3Dv3j0pfdCgQRg0aJBs6jsrKwuenp7SmzsA/Prrr2jXrh3WrVuHn376SUovXbo0Dh8+DCBv9PT333+X2qB06dLw8/NDSEiIpPO6detQu3ZtnDx5EpMnT0ZERARUKhX8/PzQrl07HDlyBGPGjIG5uTl8fX2xd+9eXLt2TTremDFj0K9fP/z999+yBZmtra1x4sQJAHkjIF5eXujQoQNCQ0ORnZ0tBaaUL18e+/bte2ffQZL4448/MHPmTNnUpaurK2bPni0FUOXTrFkz3L9/Hy9fvkShQoXQrVs3jBkzBn/++SeGDRuG5ORkKBQKlCpVCsHBwShcuDBSU1PRoUMHHDlyBObm5tDX18fAgQMRHx+P6dOno2bNmhg8eDC6dOmCtWvX4ueff0Z8fDxMTEzg6uoKPz8/LF++HMuXL4eZmRnatm0LXV1dHDx4EMnJyVAqlejUqROmTJmChIQEeHt7IyoqCiRhbW2NadOmwc3NDZcvX0a1atUkP9CkpCQ8e/YMpqamsLS0xIYNG9463ZpPQEAAdu3ahaSkJBgaGuLXX39VW3w6ODgYY8aMkfVHIO/e5ePjIy1YqlAo4OTkhKVLl0qBJKNGjcKRI0eQkpICpVKJrl274qeffkLXrl2lKTaVSoXmzZsjMDAQc+fOxeLFi6VZofr162PlypUAgPnz52PBggXQ0tKCQqHAy5cvMWLECHTv3h2FChXC06dP0blzZ+m3aWxsjEWLFr118eTXSUpKgqura4Er6qekpKBcuXKygKGsrCzMmTMHS5cuhYGBAVJSUpCSkoIKFSrAz88PjRs3/qCNzIG8hWRf7SM+Pj74+eefZTLr16/HsGHDkJaWBktLSxgYGGDMmDHSc8LQ0BBt27bFvXv3cPfuXWRlZUFfXx8dO3bExIkTcfLkSYwdOxb//PMPgLz72qZNm6TfzYEDB+Dn54dr167BysoKurq6GD16NKytreHl5YXChQujRo0aOHLkCDp27Ihr164hMzMTpqam6N+/P3r37o0ZM2Zg/fr1uH79OgwMDODl5YXVq1d/UJsUxAcbZv918g2zJUuWoF+/fl9bHYFA8BV48OABOnTogEWLFqFGjRpS+vXr17F37178/PPPmDhxIsaNG/cVtdTMhQsXkJmZiXLlysHMzAwxMTGIiopCnTp1ZNPMqampuHz5MszNzWU+n7dv30Z8fDyqVav23ts55ebmwt/fH6mpqZg7dy6AvKn8yMhIbNy4EZs3b4aDgwNOnTqlccr7c3D9+nUkJibC1tYWJUqU+CLHUygUqFix4mc/libi4uLw5MkTVK5cWWP+vXv38PTpUyiVygIjcD8HT548kfz7XjXMHzx4gEePHqF8+fLvNF1eEFlZWTh//jyAvBUe8g3NM2fOSAMbb/KhBPIGDS5dugQg74Uwf8r1UyEMsw/k2rVrcHJyEoaZQPAfpkuXLrhy5UqBARtWVlbw8fHB77///oU1+7bZtWsX+vfvL1vy5lVmzpyJ+fPnIzo6+osZZgLBt4JWQEBAwNdW4n+NmzdvYvDgwYiKikJGRgYsLCzU9tIUCAT/fp4/f47169dDR0cHRkZGePr0KZ4+fYrHjx9j+PDhSE1NxYIFCz7KYf/fyPXr17F582akpaWhVKlSkutHVFQUtm7ditmzZ2Py5MmfbaN7geBb5qOWy/ivEhkZie+++06KThFvdALBfxNfX184Ojpi06ZNMh9RT09P1KxZE/Pnz9e49MB/HS8vLyiVSqxbtw4eHh6Sn9mDBw9Qrlw5bNy48YtOnwkE3xJiKlMgEAgEAoHgG+HjVzgVCAQCgUAgEHwShGEmEAgEAoFA8I3wyXzM8rdf0tHR0bhR8qvk5OTg5cuXsq2a3kT+ej4qlUrjNkYkkZOT89ZtlwQCgUAgEAi+ZT7akrl48SLmzJkjLe5Xs2ZNdOvWDYMGDdIov2PHDvzyyy8IDw+HiYkJWrdujV9//VXjuiQRERGYP3++tM6Nh4cHBg4ciDZt2sjkli1bhsDAwDfuRzZq1CjZOkOCr8OJEycQHBwsc5TeuHEjdHR04OXlhSpVqqB48eJfUcP/Bg8fPnzrnpweHh6ffA/U/0UOHDiA48eP49dff0V4eDiePn0q5Zmbm8PZ2fkrapdHdHQ0Dh48iGPHjmHWrFnS9kkCwb+d+Ph4nD17FsePH9e4ndnrhIaG4sqVK0hKSpJtaffXX39hzZo1Mnvk5MmT2LVrF1QqFaZOnfrZzkGNj9k2IDg4mO7u7lyzZg3j4uJ49uxZtm/fnnp6epw+fbqavL+/P62srLhv3z7GxcXx9u3b7Nq1K6tXr874+HiZ7KVLl1isWDE2adKEZ8+eZVxcHP38/KhSqRgcHCyT7du3L8uWLcsqVaqofSwsLKinp6e2pcKHkJubK9sK6kuQmJjI06dPf9Fjfk5u3rzJAQMGSFsqBQYGMjAwkPXq1aONjQ0NDQ05ZswYpqamfm1VZYSEhEjbqvwbuHr1Kn19faWtl17/3RQpUoQmJiacM2fO11b1q/Ls2TNWqFBB2r5s586drFChAgHQxMSEI0aMYFpa2lfWkuzfvz/t7e0JgFeuXPna6nxVDh06RBcXF5qZmdHMzIytW7dmTk6OlL9lyxY6OjrSzMyMpUuX5qBBg76itt8GQ4cOpbOzs9Rmmj5NmzbljRs3vraqavTq1YuWlpY0NDR8q+zt27fp5OREAGzcuLEsL39rs6NHj5Iko6KiWK1aNQKgi4vLZ9G9ID7YMEtISGDVqlVl+03mk7/fW/4Jknn7EALg6tWrZbIvXrygjY0Nvby8ZOkNGjSgjY2NbK+ynJwcDho0iIUKFZL2oszMzGSdOnU03hwzMzNZsWJF/vrrrx96mjJSUlI07r/1Odm+fbtsX7V/A0ePHiUArly5UpaekJDAihUrEgBXrVr1dZTTQG5uLj09Pb+JB/CnJDExkcbGxhw9erRaXlRUFGvVqkVtbW0eO3bsK2j3bbB48WLa2trK9hM8ffo0AbBXr15fUTN19u3bJwyz/yM5OVl6Kdd0rwkLC9OY/l9m7969BMDu3bvzypUrss/8+fOpp6fHkiVLMjIy8murqsb48eNpYGDAjIyMt8pmZWXRxcVFzTC7fPkyV69eLbM5srOz2bBhwy9umH2w8/+mTZtQp04djQsnenl5ITc3F1evXpXSZs2aBQBq+zMaGxvDw8MDISEhiI+PBwCcOnUKYWFh6NKli2z/TKVSiQkTJoAkDhw4ACBvn7PatWtDX19fVi9JdO/eHaVKlcKoUaM+9DQlUlNTMWrUKDx58kS2h93nJDc3952GZv9XuXDhgux70aJFMWbMGABAeHj411BJI5cvX8ahQ4e+thqfnMKFCxfoD2pra4tx48YhOzsbK1as+MKafRvExcXB398fnp6eMDIy+trqCN4DQ0ND6OjoYOnSpQCAadOmISkpScovWrSo7K/g/2Nubg4nJyfZZ9CgQWjZsiWio6OxaNGir62iRlJTU7F///63yuno6Kjtyw0AVapUQY8ePWR5WlpaX2Vx6A/2MXv06BEsLS015uX7CN2+fRtA3t5UN27cQMOGDWFtba0mX69ePaxYsQIhISHw8vLC1atXkZ2drXGBQSsrK2hpaWHr1q0YMGAAKleurNF42blzJw4fPizblPpDiYiIgI+Pj7S/lq+vL/T19VGjRg1pO6bLly9j4cKF2Lp1K9LT0+Hu7o7evXvDy8tLaouDBw9i27Zt8Pf3h4ODA2bNmoU1a9agRIkSaN++PX766ScYGBgAAHbv3o1BgwYhOjoa9+7dw61btwAA3bt3h5ubG3Jzc7FlyxZs27YNe/bsAQB069YNXbt2RYMGDSTdL168iBs3bmDr1q2YP38+4uPjsXjxYmkvOj8/P3h7e6stkrt27VqsXbsWJ06cQLVq1eDl5QVra2vMmjULgwcPRp8+fT66XTWhyb8sOjoaQUFBso2he/bsKfNLPHHiBLZt24YRI0bA0NAQq1atkq59ixYt0Lp1a1mdmZmZ2LhxI06ePCmlNWzYEA0bNpRtOO3r64s1a9YAAH788UdoaWnB1dUVPXv2BABkZ2dj06ZN+Ouvv6Qybm5u8PHxUfPPevLkCVauXCltZg8AAwYMUPONvHTpEnbv3o2GDRuiZs2a2LBhg7RRctu2bdG8efO3tOKnITo6Wvbdz88PCQkJAIBOnTrB3d39nfKAPEN7yZIlAIBChQrBy8sLbm5uMpmUlBScOnUKjx49Qu/evREVFYVly5YhLi4OLi4u6Ny5s8Y9Gffs2YPdu3cDAOrWrYtGjRrh5MmTOHbsGBYsWABdXd0POv8HDx4gPj5eTc/3JSYmBiEhIfjrr79QpUoVeHp6okyZMjKZkydPQqVSwdnZWbpXkESzZs1Qvnx5AMDVq1eRmJgIIO93kr8oqybi4uKk+69SqSxw7798XxsgL7jKxcVFo9zFixdhYGCAcuXK4fz588jIyECFChVkm6qHhYWB/7cspqmpKRwdHdXqycnJwalTp1C7dm1oa2vj+vXreP78OQCgatWqn9wALl++PKZPn45x48Zh0aJFGDt27FvLpKWlyV4MS5YsiVKlSqnJnTp1StpbsWjRoqhUqRIuXbqElJQU1KlTB1paWiCJsLAwbN26Fe7u7tJG8K8HsWVnZ+P06dNwcHCAiYkJzp07BwCwt7eX7olJSUm4cuWKVMbAwOCNftWfmnw9YmJi1PLOnDkjbdhubGwMJycnWX5WVhbOnj2LunXrQqFQSP3O0NBQtrvDuXPnkJmZCSBvD8pX7YU35QGArq4uqlWrhuTkZFy+fFlKd3FxkQUZvnjxArdu3dLYP8PDw1G6dGkUKVLkjW1x9uxZZGVlAch7wX11T89PwocOtSUkJBQ4bDh+/HgqlUoeOnSIJBkTE0MAdHd31yh/+fJlAuC0adNIkm3atCEA3rp1S6N89+7dWaJEiQJ1S0xMZKlSpTRO0XwIGRkZjIyMpIuLCx0cHHjz5k1GRkby6dOnJMno6GiWKlWKPXv2lPL8/f2pr6/P3bt3kyTnzZvHEiVKEAAtLS1pb2/PUaNGMSAggD/88AO1tLQ4adIk6ZgJCQm8c+cOAdDHx4eRkZGMjIyUplTGjBlDANyyZYuU16dPH+ro6DAkJESq58cff6SFhQUBsHfv3ixTpgwDAgIYEBDAdu3aEQBXrFghO9/Ro0dTX1+f06dPZ2RkJIODgyXdx44dyyNHjnxUe+ZPZfr5+anlde/eXToOmecT4ODgwP79+zMyMpLbt29nuXLlWKNGDWZmZpIkR40axWLFihEAe/ToQTs7O/r4+DAgIICVK1emvr6+zDcwPT2dXbt2ZdWqVXn06FFGRkZy/vz5LFeuHHv06CHzJduxYwebNWtGAPT392dAQAB37dpFMm+qvG/fvnR0dOTBgwd57do1Tpo0iYaGhuzXr5/svKKjo1mpUiWpj+zbt4+9evWS9RGSXLJkiXQuLVq0oJOTk3TNSpcuTS0tLZn8x2JiYqLxd/LkyRO6ubkRAGfOnEmSfPjwIefOnUsAar5nDx8+5O7duzXmde3alcWKFeOKFSt4/vx5+vn5UV9fn/7+/pJMWFgYnZ2dCYBOTk7s27cv7e3tOWjQIDZo0IBKpZLe3t6yejMyMlivXj1WqFBB6tOurq4sWrQozc3NaW9vz5SUlA9umylTphAAd+7cKUt/n6nM5cuX09zcnL6+vtJvztLSkqdOnSJJPn/+nHZ2dlQoFCxSpAg7d+4s6W5qakoDAwP6+/uzTZs2UrqxsTEtLCx49+5d2bHypzLd3Nzo5OREe3t72tvbU19fn3Xr1uWTJ08k2fzfgJWVldR23333He3s7Hj+/HlJ7s6dO2zevDlVKhVbtWrFAQMGUFtbmwBYvXp1pqen8/Hjx3R1dWWdOnUYEBDAzp07097engMGDJB+oyTZrVs32traSr/99u3bSzoWKVKENjY2n9SHqXjx4jx37hxTU1NpaWlJIyMjaRou37Vmx44dsjKXL1+mo6Mjv//+ewYEBNDW1pbW1ta8evWqJBMXF8d69erRwsKCI0eOZNeuXWlubk47OzvpfNLS0vjixQt27tyZFhYWHDt2LMePH09LS0s6OzszKipKqm/z5s20sbEhAA4ZMoQtW7YkAAJgnTp1SOb1uRIlSrBFixYMCAhg3759aW5uznbt2n0yf9z8qcyRI0eq5aWmprJevXoEwBkzZkjpCQkJ7N27Ny0sLDhs2DD26NGD+vr6/OWXXySZ0aNHS+c3ceJEtmrVSurL+vr67NChg+Qm8vvvv7NTp04EwHnz5sl0mD17NsuXL68xL9/msLOzk/V9IyMjdu/eXWarPHr0SM3HbObMmbSzs6OOjo7MBYvMs0dencq8cOECTU1NCYAGBgZs3779+zTzO/FRzv+aOHdKZKiZAAAgAElEQVTuHHV1dens7Cylvc0wy83NpUKheGfDbODAgW80zJYsWUJtbW3GxsZ+xJmo06BBA40+ZnXq1KGOjg7T09Olz+3bt6mjoyO7oFeuXCEAli1blo8ePZLV4erqygoVKsjSMjMzCUCjj5mrqyvd3NxkRkRiYiKtrKzYt29fmeyGDRukjviqr0xiYiJLlCjBBg0aSGlRUVEsVKgQe/bsKasjICCAAHj27Nk3NdE7kW+YTZw4kenp6fzrr7+4dOlSenl5EQA9PT2ZnJzMnJwcli5dmj169JC17e+//04A3LRpk1TnkSNHCIA1atSQ9ZvHjx+r3UzyH6yv3jxIctGiRQSg9sCbM2cOAaj5mG3fvp0KhULNH65z584sVKgQ79y5I6X9/PPP1NPTU2sLPT09Nf+FmzdvEgCLFy8uM7JTUlLo4ODAjh07FtCy74+JiQmLFy9OV1dXurq6SsaNmZkZtbW1GRAQwOfPn0vyaWlpGo2vfP1ezwsPD6eurq5kzOYzcOBAGhsbSy83ZJ5fUKlSpQiAkyZNYnR0tJTn4+NDlUolMxry+3X+CyCZ13YGBgZs0qTJxzUM8/q8UqlUS39XwywqKoqFCxdmQECALL1evXosWrQo4+Li+PLlS4aFhbFVq1ZUKBQcOXKkZJxERETQxsaGSqWSP/zwA//++2+S5LFjx6hQKDh48GBZvfmGWZcuXZiQkCClb968mVpaWmzcuDFzc3NJkkFBQVQoFDKjMzExkSVLlpT5+8bHxzMsLEwKLPDx8WFYWBgnTJjAn3/+mS9fvmSjRo3o4OAgc7C/cuUKdXV1+dtvv0lp58+f58iRIwmAVlZWnDt3rtS3wsLCqFQq6evr+8Y2fR/yDTMyz+hQKBRs3bo1Sc2G2e3bt2lhYcHFixdLaUlJSXR3d6eVlRWzs7NJkoMGDZI5iZN5fVGhUHDjxo1S2siRI6mlpSV7DsXFxVFXV5cTJ06U0u7fv8/58+cTAJVKJadPn87Q0FD27duX69atY0ZGBitXrszKlSszPT1dKpd/z/tUL2r5hpmHhweXLl0qfRYtWkRHR0cqlUq6urpKfSsxMZG1a9emra2tzO9s+PDh1NPT4/bt20mSZ86ckQK+SpQowUWLFknBeAEBAf+PvTOPyyn9///rbteujRIpJUkLkWixJJQlZUlRBmGMXZG9aZhJ1pmxa+xLIUQSUlGULUr2FoksJUmL0vL+/dHvvj6d7ruIzMzn872fj0ePR/d1rnOd65xznWt7b8Tj8WjOnDnsfH4/Un/yRVT7TTQ0MQNAkydPppcvX7L0y5cvk5ycHI0fP56lCZuYPXjwgPz8/ATeK5HgxCw7O5sGDx4sMNY0J83q+Cs3Nxdjx46Fqakp0wH70vOoCZGhhG2l8nn//j1WrlwJPz+/vyVG3ZMnT3D37l20bt0aI0eO5BxzcHAQKu7duHGjgMjOysqKicy+hPHjx8PY2JgjLnv27BlqamoaPOevv/7iiAoUFRVhbGzMtoeBWnFJWVkZNDQ0OOfyfyclJcHS0vKL69kYgYGBSE5OxoULFyAhIYH+/fvj119/xbx589CiRQts2bIFmZmZyMzMFPpsjh49Cjc3N07atm3bmOgHAFq1aiXwrA0MDDB58mR4e3tz0vlb8V+KiooKRo8ezcSadSkrK0NpaSn7ra+vj9WrVwstJy8vj/Ob325XrFjBEUvzRUnNjZKSEmbNmoU///wTP//8M4yMjLB582Z07doVHTt2/KayJSQk4OLiIiBKa9u2LYqKipg4AKjVC5KVlYWtrS0CAgI4+efNm4eQkBC8f/+epW3cuBFA7bfDx8jICMrKyrh27do31RsADh069E3nL1myBB8+fEBiYiLGjh3L0h8+fIjCwkLs3bsXvr6+sLa2RuvWrdGuXTuOWoaenh5MTEzQtm1b7Ny5k6X3798fZmZmAu2Gz8KFCzm6U2PGjMGJEydw5MgRpKWlwdTUFM+fP4etrS1HxM/vD+qWyxe9ycnJwdraGocOHQKPx+O8z/z8fLi4uHDEc6amppCVleWU1b17d6YOsmTJEsyaNYsds7a2Ro8ePRq8p29lyJAh6N+/P06dOoWEhASh7pmCgoKQl5eHqKgoXLp0iaXn5eXh9evXCAkJwfjx43Ht2jVYWlqiT58+LI+7uzvmz5+Pa9eusXednJwMOzs7zjikpqYmIMZs3749PDw8MGvWLCxcuJCJW/ki9OLiYrx58wYrVqyAjIwMO4/fJx86dAjDhg37xif0HzIyMnDq1ClERUWBiNCuXTt06dIFq1ev5lznzp07SEpKgpaWFhYvXszS8/LyUF5ejgsXLsDV1RU9e/Zkqh5xcXHQ19dnef39/ZGYmIg//vgDGzZsEOqntC71x6W6SEhIYNKkSRxVFDs7OwwfPhwnTpzA2rVr0bp1a6HnGhkZwcXFBUFBQY1en/9+R48ejcWLF0NFRaXR/F9Ls03M7ty5g7Fjx8LAwAAHDx7kNHxJSclGdQdiY2M5v7t3747w8PAG88fExDQoAz506BDy8vIEdIq+F2/fvkVJSQnc3Nzw119//S3XBIDRo0fj0KFD2L17N86cOQM9PT2UlZV9c8c2aNAg6OrqIikpCcXFxVBQUEBFRQXi4+OhpKQEDw+PZrqD2sF2zZo1KCgoAI/HE2jkMTExAGp1Oerr5AAQqsApDEVFRTYgALX6L9u2bcPp06eRmJiI5ORk3L9/n6Mc/CX07dsXxsbGOHXqFOLj43Hy5EkUFxejuLgYMjIyHIMUd3d3ZGRkYNOmTbhz5w7TC6w7Kf4SunbtivT09Cad8zmGDBkCNzc3WFtbo2/fvkhPT0erVq2+eVIG1A7Qe/fuxb179/Dbb7/hxo0bePToEdOVEoYwfR5huLm54ebNm7h16xb69+8PoHahVFRU1GyLh6+FiFBYWAhNTU1s2rRJaAfO1yf9O3Bzc8ORI0eYHuCyZcvg5+eHgoICXLt2DbGxsfj48SNiY2M5E9266OjoCOiiArV+oeTk5JCamoo7d+4gLS0Nz58/50yi6/NPKN3v2bMHnTt35uiN8qmsrMS9e/fQsWNHNuHq378/tLW1kZaWBnV1dU4flJKSgk+fPjGn5o8fP0ZxcTGnzMjISFRXVyM1NRWFhYWIiIjAs2fPGjUeE9b2FRQUkJ6eDjExMaSmpiI9PR1JSUnIz8//2kfRKK6urli3bh3i4uIwePBgqKio4NChQwJjLr9/dnBwENApGzp0KFxcXATKFnZ/9vb2uHDhAo4cOQJ3d/evrreMjAx69+4t9JplZWVISkoSWqcvoaysDDt27MCsWbNgbW2NoKCgz04iv4VmKfnAgQOwsbHBmDFjcO7cOaipqYGI2ECnrq6Onj17IicnByUlJQLn379/HwDYbNzc3Bw8Ho8NXnVJT09HZWVlgyuEoKAg6Ojo/CucPn4vioqK4ODggAULFqBt27aIiYnBxYsXce3aNaHGFU1BSkoKmzZtQkJCAszMzLBu3Tr07t0bFy9exMaNG5t1F5K/w6iqqip04OKvDlu0aAE1NTWBv7qrx4YgIjx8+JAZTwDA06dPYWtrC29vb/B4PAQFBSEmJgaBgYFNqv+LFy9gb2+PCRMmoKamBgcOHEBMTAzs7e1hYGDA2bk7c+YMunbtit27d6NDhw6IiYlBTExMkx24RkdHNyl/U9DW1sbq1avB4/EwY8aMRidPX0p6ejp69+6Nfv36gcfjYdasWYiJicHPP//8zWV7eHhAX18fXl5eWL16Na5du4YZM2ZAQ0OD7ab9E1y8eBHLly9HbGwslJWVoaenJ7T91rck/57wJRJZWVkAanfXHRwcYGVlheXLl4PH46FHjx5f1W/eu3cPw4cPh52dHa5fvw4ej4d27do1anTRnDs8X0rbtm0xffp0PHnyBHv37oWcnByb0JeWluL169do3bo15s6di/nz58Pc3Bxqamro168funTpwu7Hz88Pnz59wuzZs5GZmYmkpCTMmDEDysrKHKOoGzduYOTIkbCzs0NQUBB4PB769OnTZGOUmpoaREVFwcLCgu368Xg8DBw4EMD3e5b9+vXD7NmzkZKSgjVr1jQojRk6dCjmz58v8Kerq9uk6zV1kfp3kpaWhiVLlkBGRgbJycnftR8GmmHHLDQ0FL6+vjhw4ABcXV1Z+v3797Fr1y7WQdrb22Px4sU4ceIEvLy8WL6PHz/i7NmzMDMzY1ucQ4YMgbGxMcLCwrBgwQLO9c6cOYOKigpm7ViXFy9eID8/H/Pnz//W2/pijIyMoKmpyVYP9bl06RJHHNUcHD16FHfu3MGGDRswb948lp6fn99kcVx9Xr58ifnz52Pr1q3Q0dEBAKxcuRK9e/f+rKVKczNmzBiEhITg6NGjMDc35xx78eIFysvLOdviX8ratWuRlpaGGzduwNjYmKU3dSfK2dkZT58+RWZmJmeLXVlZGQkJCcjMzESHDh3w4MEDuLm5wc7OTkDE39RVl6Wl5XcT9wC1rm4+fPiAyZMnY+jQoThz5sw3mYtPnToV6enpOH36NOc7qGtd9rUUFhZCSUkJixYtQnR0NFJSUuDs7Axvb+8vmrR/D96+fYtFixZh3rx5GDlyJA4fPoy0tDSO5dk/wdGjRwGART9xcHBAeXk5oqOj0aVLF06+srKyLy43IyMDTk5OGDlyJO7fvw9tbW12bPfu3c1U++ZjzZo1OHbsGHbs2AFFRUUoKioCqP1m9fX1ERcXh9evXze6wJWUlIS2tjZKSkrQtWtXlJSUYO7cudi5cyezlC0oKGBWxA8fPuSU5+fn16Q6p6SkYOzYsXBycsKdO3eYZTLfHdX33H0MCAjAgwcPEBgYiJYtWwqMx81JfUvu5oT/zhqjoTEcAAwNDZGcnIx3797B1tYWkydPxt27d7+bKPOrd8w+fvwIV1dXjBs3DgMGDEBUVBRWr16NoKAgTJkyBT/++CPs7OxY/oULF6J3796YN28eM23PzMzEiBEjkJ+fj9DQUE5numrVKty7dw9z585FXl4eysrKsG3bNvj6+mL27Nno16+fQJ0iIiJQXl4u1M1GcxEdHY179+6hqqoKCQkJUFJSwvLly5GdnY0JEybgxYsXAGo7aFdXV3avdRE2sPLdIQjj4sWLTF8pLS2NTb7q7rbw3ZE0tr1dN5QMULt9zzdV55OcnIwnT54gJiYGqampUFBQgIKCwmfjn34Njd0zAAwfPhz6+vrYvHkzxx3Fs2fP0KdPH45JdFOIjo6GvLw8R/fs+vXrn+10+M+PiJCfn4/c3FzweDxOjNYTJ07g+vXrKC4uZjvGhYWFKCsr47yvqqoqBAQENHkinZCQ0KT8jfHu3TtUVVUJtAsvLy84OjriypUr2LRpE+eYmJgY1NTUsGPHDs4AHhMTA0dHR4FrxMfHQ0tLizMpu3LlCicUSn2EfR/16wgAkydPRkFBAXR1dTFjxgxs374dM2fObLZJ2fjx45uU/8GDB7C3t0d2djb69++PWbNmQVJSEtOmTWMiRAB49eoVevXqJfDtNRf1v6vc3FzcvHkTFhYW0NbWxtGjR5GdnY2pU6dyJmWJiYlMevGlbN26FcXFxRg7diwb+KqrqxESEtLoBE/Y+/y74PtK/PjxI6cP4au/nDp1ipP/+fPnrC28fPkS3t7e6NChAxYvXoyCggKUl5djw4YNHPcl6enpePXqFezs7DiTsqioqCZ/8/Hx8QCAzZs3c9zF8Ov5rbqQjSErK4vjx49DTU0NQUFBuHPnDjvm7e0NRUVFLFy4kKNPCwDBwcG4cOGCQHn1d7JLSkqwc+dOWFlZCUyc6rfj7OxszqZOffhl1eX9+/fYvXv3F0nRGtNdV1ZWhpycHNq2bctE9wMHDmS+V5udr7Ua2L59OzNJFfbXokULjrUUEVFeXh65u7uThoYG6erqkrq6Ojk7O3NMkety/Phx0tDQIHV1dWrTpg0pKipSQEAAFRUVCc0/btw4kpaWpszMzK+9rUa5fPkyycvLk4qKCunq6lL//v3p06dPVFlZSVu2bCFNTU12TFdXl+bNm0eVlZVERHTp0iVq06YNM7HlWz5VVFSQrq4uiYuLk7i4OOnq6jJLopqaGpo8eTKJi4tTmzZtyMTEhMaOHUvv3r2jnj17kqysLLuWvb09Xbhwgdzc3EhZWZn8/f0pKSmJfvrpJ1JXVycA1LJlS+Ya4+XLlyw0hYyMDLm4uFBOTg6VlpbSrFmzmLk2/09LS4vs7OzozJkzHBP4prJv3z6ytrZmIW2CgoIaDXX06NEjMjExIXl5eRo/fjzNnTuXdHV1KSAggFmB7d27l3r37k0AqH///sxa8/LlyzRu3DgCQJKSkjRz5kx69OgR7d27lyQlJUlTU5P8/f2pc+fO1KlTJ5o0aRIpKiqSk5MT+fv7Mw/q8fHxJCsrS0ZGRuTr60u6urp06tQpWrp0KUlLS5OlpSX5+/tTt27dyNnZmaZOnUri4uI0depU8vf3p+LiYrKysiIej0deXl40e/ZsMjU1JW9vb+rbty97XwcOHKDz588zNyadO3emjRs3ElGtubqvry9JSUkxFwp1Le+ayq1bt8jd3Z21R39/f45VHd88XlxcnPr378+xPN2wYQOJiYmRvr4++fv7k56eHpmbm9OuXbsIABkYGFBKSgoR1UYBadGiBQ0aNIj8/f3J0dGRjI2NmVsUf39/unjxIj18+JBmzpxJkpKSzCqT/52HhoaSpaUlASBPT08WPWTr1q0kJyfH2mjr1q1JV1eXXF1d6fDhw9/kKoOo1l1GfavMw4cPU9++fQkAmZubk7+/P/n7+5OFhQXJysoSAGb5R0Q0duxYThvx8fGhDh06sDBr1dXVFBwcTMrKyiQhIUE//fQTFRcXU0VFBYWFhZGsrCy1bduWjh8/Th8/fqTS0lLavn07SUlJkbGxMZ07d459P5GRkSQlJUV6enrk7e1NT548obVr11Lnzp1JVlaWWfiWlJRQy5YtqW3btnTw4EG6fPkyzZo1i9TV1UlWVpZ0dHQoNTWVsrKyqLS0lG7evEkaGhokLy9P586dY30aUa2FqpSUFPXq1YvOnz9PYWFhZGlpSXp6eiQmJkYDBgygzMxM+vDhAz179owmTJhAAGj8+PEsDF9ZWRnt3r2bpKWlydDQkCIjI7+pj/nw4QMFBQWRuLg4rVu3juMmhH89BwcHAavMmpoasra2JklJSZo3bx5lZmbS4cOHqUOHDsy6NC8vj3r06EFycnIkLS3NXGT4+/vTxo0bWUSa58+fk6qqKikqKtKOHTvo6NGjNHbsWOrSpQvrYzIzM+nly5f09u1bmjJlCgGgIUOG0L179zj1jY2NZf3B8ePHaevWrdSvXz/S09Nj7eDJkyff1B/k5ubS4sWLCQD169ePMjMzmQUvUa11dYsWLahVq1a0Z88eAbdNXbt2pVu3blFmZiZNnz6dJkyYwHFRERQUxMaagIAAyszMpF27dpG9vT1pamqy/oL/HkaPHk3S0tI0bNgw9o3p6OjQ1KlTBdoP0X+sMmVlZWn9+vWUmZlJ27dvZ+/z6tWrRFTrYufAgQMEgPT09CgtLY3KysooMzOTxo8fTwDo559/ppcvX1JFRQWdPHmSZGVlqU2bNnT79m0qKyujsrIymjZtGgGgHj160NmzZwVCSn4rPKImmEM2gXv37nFWY3V59eoVsrKyIC8v/1nHbHl5eUzEpKmp2ahTxYKCAuTm5gooIjYnT548QX5+PiQkJAScMRYWFuLBgwcAaq1v6lrQ1T0G1Cqkm5iYgIiQmJjIKUdfX59jzXn9+nVUVVVxyqypqeGsKDp37oyWLVuivLycOUfU1dXFmzdvOCvX1q1bo0OHDigtLRXYcTI1NYWcnBwmT56MjIwMZkX44cMHhIeH49KlS0hPT8fx48e/Wony/v37HKVgFRUVGBkZNXrOp0+fcPPmTezfvx9KSkr48ccfOe3g3r17HH0oVVVVdOrUCS9evMCzZ884ZRkZGUFFRQW3b9/GqVOn8Pr1a4wePRpWVlaQl5dHZmYmtm/fDg0NDfzwww9Mp+7hw4fYtGkTZGRkMGrUKKZkeuPGDezatQvq6uoYMWIEExVduHABx48fh46ODhYtWoTKykqEhIQgKSkJLVu2xLRp06Crq4sPHz4gICAAJSUlGD58ODp37oyXL1+y+kpLS6N79+4C7QcALCwsvnp3KDc3F7/88gv7raurCz8/P45yd1ZWFi5evIjk5GTMmDGD812dPXuWrdh79+7NLNFmz54NoLZ9r127FkDtbhpflGZpaQl3d3fIyspi7dq1yMjIgLS0NPz9/eHv78/ZTQgKCoKysjJ7lnycnJzg7OyM8vJyWFtbY8qUKQDAVvNhYWF4//49HBwcEBER8dWB2G/duoUePXrg/PnzTJ9n69atnxXDzp49myMiv379Okes5+XlxawaS0tLBVQvvL29oampiZUrV3LSFyxYgPLycoFdzFWrVkFdXR337t3DyZMnMW7cOAQFBeHgwYOQk5PDqFGjMHPmTI5DzatXr2LLli04efIk7Ozs0K1bN0ybNg1lZWVYtmwZoqKiMHz4cCxbtgybN2/mXO+3337jGHcdPHiQOaMeOXIk3NzcMGzYMGzatAm//fYb3r9/j+joaERGRnJ2DgcNGgRXV1c8fvwYGzZs4Fzj559/5ljXNYWkpCTs3buX/e7atSt+/PFHTp7U1FQEBwcjICCAcy/v37/HgQMHEBYWhhs3bsDd3R3jxo3jiNk+fvwIGxsbmJubQ0JCAhkZGUhMTERVVRUAYPv27Zg8eTLi4+MREBCAxMREWFhYwM3NDbNmzUJSUhLmz5+P1NRUBAYGQltbm7O7pKqqit9++439rqqqwpEjRxAWFoYrV67A1dUVtra2cHNzw7Fjx7BixQpUVlZi8+bNX61vtmbNGmRmZnLStm7dypGUbN68GWlpaQD+04b5js6PHz+OM2fOQFdXF6NGjcLSpUs5unRr1qyBn58fLl++jP3797NdvrFjx2LOnDkCqirv3r3DihUrEBYWhqKiInh6esLT0xNdu3ZlfbKpqSmuX78OoNahfFZWFnr27ImQkBB2npeXFzw9PWFjYwOgdtetvi7xvHnzBHbyjIyM4ObmJqALO3/+fFRXV+OPP/7gpDs6OmLEiBGff9BfyHebmIn472TBggWIjY1tMCSSiooKpkyZ8lmzYhEivjdjxoxB7969MXfuXIFjvr6+WL9+PYqLi7/Yerc+ZWVlsLS0hKenZ5P1gkT8b1JSUgJXV1cMHTqULUL4pKamYubMmbhy5QpKSkr+Vqvbfzv8iVllZSVH9UOEcL6fvaeI/0o+fPiAFy9ecKwY+SQkJKCsrIztCokQ8U+Rnp6OkydPNmiYoKSkBCUlpW8yaZeVlYWTkxNOnTrFdkNE/N/m2bNnSExMFOrWwczMDPb29lBWVv6urhRE/O8jmrqK4LB27VpkZWVhyJAhUFBQgKenJ4qLi3Hq1CmoqKhg3759/4ipuwgRdWnXrh3GjRsHPz8/JCYmclyT3LlzB1euXEFERITQ2JpNYdGiRRgwYAD27NnDRKYi/u+iqqoKNTU1jBo1CpMnT2YGL/x4mElJSThz5szf6grl387bt2+ZBen169fRtWvXb/4u/9cRiTJFCCUrK4sFQQYAcXFxDBo06B+skQgRgvCdA589exZAbRBzPT09WFtbf5Obj7q8ffsWd+7cgYODQ7OUJ+K/m+zsbJw7d44THQCo1fmcOnVqs7W7/xX41tMpKSmwsrLCmDFjOK61RAgimpiJECFChAgRIr4bRITq6mqRftkXIpqYiRAhQoQIESJE/EsQaSiKECFChAgRIkT8S/hXT8z4Pnua09v538m5c+eaPeD030F0dLTQmKYiRIgQIUKEiO/LVwt8+/btywnfYWRkxEJHNAerV6/G2rVr8e7dO+zfvx+2trbNVvbfwalTp+Di4gJDQ0Ohrie+hTFjxkBaWpoTn7Eu1dXVyMjIwKlTp5oUSmnWrFkIDQ1FQUEB0tLSOE4y/61UVlbi/v37OHDgAEtr27Ytxo8fDzU1NYH8RUVFuHnzJidmpaenp4CDQz4vX77Enj17mGNMExMTjBo1SsA31s6dO/H48eMG69myZUssW7bss/ezYsUKFt7E3t4eTk5OnLqsX7+e/R40aBBzfPq/Tm5uLuLi4pgTWQ0NDaG+xXJycrBz5058/PgRQK1D2xEjRjQ5cHR99u/fzxzLqqmpsfeSkJCA7t27Izs7GxUVFZgwYcI3XedreP36Nfbt24ewsDBMmjQJ06dPb5Zya2pqsHnzZty+fRtv377FmTNnmqXc5qampoY5PuUjLy+PDh06/EM1quXTp0+IiIhAYmIi0tLShIYo+l+jsLAQOTk5AAAejyfg7P358+ccJ8NaWlrMYayIOnxtyIBXr16xMAijR4+mV69efWsUAg6lpaUUHR1NAGj//v3NWvbfwfv372nhwoUsPFBz8eLFC1JRUSE5OTny8fEhHx8fFnJp3rx55OPjQ3p6egSAcnNzm1R2eno6C1VSPyzIv5FPnz7R9OnTqVu3buxZzJo1i6SlpcnMzIxevnzJyf/+/XuysbEhXV1dSkhIoJSUFHJ3dyctLS2KjY0VKP/Ro0ekp6dH06ZNo9TUVNqxYwdpamrS4MGDOeFGysvLSUFBgdTV1YX+8Xg8MjQ0/KJ78vf3Z+9TTk6O0tPT2bHc3FyaOXMmSUlJ0cCBAwVCnv0v8uHDB5ozZw61b9+evL29ycfHh06cOEGPHj0SyBsYGEgaGho0ffp0OnfuHPs2JkyY8E0hfioqKkhDQ4N4PB51796dbGxsSFxcnACwdywhIUFKSkr08ePHb7ndr+L8+fM0fPhwAkDr169vtnIfPnxIPXr0IDExMWrVqlWzldvclJeX05gxY6hFixYEgLp160bbt2//p2sAJCAAACAASURBVKtFhYWF5OPjQ0ZGRmRiYvJPV+dvISwsjJSVlQkAiYmJUVBQECe00x9//MFClykqKtLFixf/wdr+e/nqiRkR0ZYtWwgA/fnnn81VHw4vXrz4r52YfS/2799P8vLyFBMTw9L4MS/5MfOePn1Kbdu2ZXEWm8KoUaP+ayZmoaGhZGFhQW/fvuWknzhxgiQkJMjDw4OTPn/+fAJAjx8/5qSPGzeOOnbsSC9evGBpGRkZ1KZNGxoyZAgnb0pKCmloaNCkSZNY2rFjxwSuxScnJ4c0NTXp1q1bX3xf5ubm1K5dOxIXFycbGxuB405OThQcHPzF5f23UlRURH369CF3d3fKzs5uNO+tW7dITU2NQkJCOOnp6emkoKBAS5Ys+ep6nD9/npSUlDhlGxgYkISEBPvN7wsjIiK++jrfQkVFRbNPzPioqKj8qydmfGbOnEkA/nWDvYeHx/+ZiRkRUVxcHCfO8u3btwWOy8jINPtmzv8S303HrLq6mhN5PS0tTWC7WRgpKSlISEhAdXX1F10nISEBL168+OJ6PX/+HE+ePPni/P824uPjsXr1avTv37/BPO3bt8f8+fNx8ODBJpffq1evb6ne30pYWBj27dvHiXUHAC4uLtDR0eGI1h8+fIiNGzfCxcUFHTt25OT38/PDkydPmC8sADh27Bhyc3MFxGVmZmbo27cvLly4gA8fPgCoFY+OGTNGoH6lpaWws7PD/PnzYWFh0aR727JlC0aNGoWrV6/ixIkTTTr3fwUXFxdISUnh4MGD0NHRaTTvhQsX8PbtW4HvQl9fH1paWk3qI+pz6NAhjB49msUD5TNu3Dj2/08//YSJEyciLCzsq68jQsT/ChoaGiwGbP3wfW3atIG4uDhat279T1Ttv4Jmdyry9OlTbNq0CSdOnICfnx+UlZWxZs0apn9jaGiIkJAQjqduADhw4ACCgoKQl5cHBQUFqKqqssCj9Xn79i0WLFiA5ORkpo9jaGiIX375hYULSklJQXh4OI4dO4ZRo0ahb9++CAoKwo0bN1BVVQUTExOEhYVxAuVWVVUhNjYWQUFBqKmpAY/HQ3Z2Nnbu3IkBAwawfJmZmXB3d4eioiLKy8vx8uVLiImJ4eTJkzAxMUFeXh62bt2KpKQkODo6cmL5vXnzBn5+fnjw4AEUFRXx8uVLWFpaIigoiBO4vCECAwOhrKz82XxTp07F6NGjAdTGdwsPD8eGDRugoqKCN2/ewMjICIGBgQJ6GAYGBgBqJ9YxMTEICgpCRkYGJCQkcPDgQVhaWgKodUA7bdo0FiQ8PDycBUlu6Fh1dTViY2MRFhYGU1NTeHp6YsOGDdi/fz8AwMHBAevWrYOCgsJn7w+oDV7e0DOztrZGbGws+33ixAkQEUaNGiWQ19DQEF26dMH58+eZd/fz58+jRYsWAu0UAAYPHoyjR4/i8OHD+PHHHzF58mShdVi0aBFat24tNJbj5xATE8PatWtx4cIFTJkyBQMHDmw05uOnT59w/vx5hIWFISEhAWZmZhg1ahScnZ3ZeSUlJUhLS8P58+dhYWEBS0tL7Nq1C2FhYejevTvGjx8POzs75OTkICAgAHFxcRgzZgzmz58voM9YUVGBbdu24fbt20hPT8egQYPg5ubGCUj/6tUrPH36FBcuXMCkSZPw9OlTBAUFQUFBAXv37m3UO3piYiIuX76M8+fPQ0xMDNnZ2aipqQEATgB7PmZmZgCAgIAA/Prrr+wbiYqKQk5Ozle9Az4jRowQumCpH3bH19cX+fn57PeVK1dw8eJF9tvKygr29vacoOo1NTXIzs5GdHQ0Jk2ahDdv3uCvv/4CAHTp0oW11wcPHrBA8OPHj4e+vr7Qun769AlZWVmIiYlBbm4uzMzMYGNjI1SP5/79+zh27BiA2hi4zs7On50A5+fnY+/evSgtLUWfPn3Qp08fgedARIiPj0dcXBwAQFdXFw4ODtDS0uLke//+PW7dugU1NTWYm5vj2bNn2LNnDwDA1dVVQD+pucnOzmbBzk1MTODk5MRpk6Wlpbh//z6Ki4thb2/P3qekpCS8vb3RqlUrNmYkJiZCWVkZnp6eAgtFPjU1Nbh8+TIuX74MoFZHVFi7KiwsRGhoKN68eQMAGD58OLp16yaQ79mzZ6x/yM/Px759+6ClpQUPDw+W5/Xr14iJiWFGaHZ2dujTpw9H97iyshLPnz8HAOjo6KCkpAS3bt1CQkICzM3NMXjwYMjIyDTl0UJRURHr1q3DixcvcPLkSRw7doyNR43x7t07hISEID8/H5aWlrCysoKKigonz5s3bxAXF4dHjx5BT08PDg4OUFNTw44dO9CzZ0/06NEDAFBcXIy7d+8iOjoakpKScHd3R/v27QXa64cPH3D79m307t0bZWVluHnzJrKysuDt7c2eU0VFBc6dO8d0XD08PAQW+M3Kt2y3CRNlPnz4kEaPHs22MW1sbCgiIoLi4+Pp6NGjJCcnRw4ODpxyIiMjCQANHDiQMjIyiIjo1KlTpKKiIiDKrK6uJj09PbK2tmYiqadPn9KwYcNITU2NUlNTiYjo6tWr5OjoSACoVatWZGBgQH/99RfFx8fTrl27CAB5e3tz6nHhwgWSkJCgffv20adPn6iyspImTZpEioqKFBcXR0REz58/J319fSa6Kioqos2bN1Pr1q0pICCAiIiio6PJ29ubxMXFqWfPnqz8goICsrCwIAcHB7aNm5qaSg4ODmRvb8+RxTeF+qLMutTU1JCnpye1bt2a3cODBw+oR48epK+vT8+fP+fkP336NAEgExMT6tSpE+3evZsiIyPJ2tqaVFVVKTk5mZN/zZo1BIDCwsIErh0UFMQ59v79e+rfvz+JiYlR+/btqWPHjjRw4EDy9vYmDw8PEhMTIzc3ty9+Dnfv3hWaXl1dTfLy8qSjo8PS/Pz8SEpKiu7cuSP0nG7dulG3bt2osrKSiouLydDQkAYOHCg0b25uLgGgtWvXNli3c+fOkaqqKmuPTcHc3JwiIyOJiGjjxo0EgLy8vNhxJycnunTpEuecyZMnk5ycHIWGhlJ8fDxt2rSJtLS0aMCAAVRaWkpEREeOHCFJSUkCQK1btyZNTU3y8vIib29vateuHSkpKZGtrS2pqqqSg4MDeXt7k5qaGqmrq1NVVRW7VnV1Ndna2lLXrl3pyJEjFB8fT5MmTSItLS3asWMHp55iYmIEgJydnUlCQoJdPzo6utFnsGDBAmrXrh3t37+fxo0bRy1atCApKSkSExMjW1tbSkhI4OQvLCyktm3bEgBq3749BQYG0vLly0laWprWrFnT5HfwOQwMDGjixIlCj9XU1ND69etJW1ubtm3bRvHx8RQQEEBSUlI0e/Zsqq6uJiKirKws6tOnD3tGbm5upKamRgMGDCBzc3OSlJQkf39/1gcNHz6cDAwMSE5Ojs6ePcu5Jl+UqaGhQQoKCuTt7U3e3t6koqJCbdq0oSdPnrC81dXVNHnyZGrdujWtWbOGVq1aRa6uriQlJUUHDhwQuB8VFRVSVFSkxYsXU5s2bUhKSoqkpKQIAP3yyy+cvO/evSNnZ2fS1dVldWjfvj0pKSlx3tnmzZtJX1+fANAPP/xAP/30E6moqJCUlBRJSkqSlJQUHT58uEnv5EtFmdXV1TR//nxSU1NjdezZsyeZmpqy53Ty5EkyMTEhAOTk5ESjRo1i9y0hIUFqamq0bds2GjBgAEsXFxcnQ0ND9n75eHh4kJycHPXq1YsMDAzI29ubLC0tWX9XVlbG8oaFhVH79u3J2dmZ4uPjaebMmaSlpUXjx49n32BlZSXZ29uTlJQUycvLU3BwMOno6JC4uDiJiYkxNZfr16+TiooK9enTh44ePUre3t5kYGBATk5OVFBQQEREb968oQEDBrDxeu/evaSvr8/uicfjkZubm8A9NUZcXBzp6+sTUe2Yp6SkRAYGBmysefLkCcnJyQmct3LlSjI1NWXvxMTEREDF5Pbt26SmpkY2Njbk7e1N/fv3J2VlZerevTtJSUmRn58fERHduXOH+vbtS/379ydvb2+aMGECSUhI0LBhw6iwsJCVt2PHDurQoQMBoE2bNpGZmRlJSEgQANq9ezcREWVmZpKlpSVZWFiQt7c3DRkyhBQUFGjGjBlNei5N4bvomD169IgA0IgRIwQmC+7u7iQvL89+f/z4kczMzKhLly6cBkpEdOXKFYGJ2Z9//kkA6Ny5c5y8KSkprHPjc/78eQJAw4YN4+StqakhGxsbMjY2ZmmFhYWkpaVFDg4OFBkZyfmTlpZmOkXnzp1j9/bmzRt2/rZt22jw4MGc68jIyJCuri77nZqaSgDYoMuHPzFtaNLwORqbmL1+/ZoA0LJlyzjpt2/fFvoc+ROzefPmcdLv3btHAOj333/npD958qTBiRm/HdQ/5uXlRXJycgLXnjBhAgHgfIhfA7+NbN26laX5+fmRkpJSg+d069aNAFBJSQk9e/aMLRSEUVlZ+dmJWc+ePWnEiBFfVf+6E7OSkhLq1KkTAaCUlBQiqp3wZGZmsvy3b98maWlp2rBhA6ecM2fOEACOruHly5fZ5CUnJ4elx8XFEY/HIwsLC8rPz2fphw8fJgAc4whfX19SUlIS0Pvi6yempaWxtB9++IENvs+fP6eCggIKDQ2l169fN/oMvLy8CABJSEjQmjVrWNuOi4ujnj17kqKiIl2+fJlzztOnT8nW1paj3zJo0CABncLmoLGJWXZ2NgGgX3/9lZN+6NAhAiBQ7yFDhhAAmj17NuXl5RFRbX+ko6NDAMjT05OKi4uJiOjly5dkZGRE3bt355TBn5h5enpyBh7+IkNTU5M+fPhARP95p/X1FH/66Sdq164dZxJORGyB7ObmRllZWUREVFVVRT179iR9fX1WLhHRxIkTSVpamtO2iIh0dHQEFuRJSUnsPfn4+DBd0YKCAmrTpg21b9++SYvVL52Y7d27lwDQ0aNHWVp+fj6pqqrSiBEjmGHP8+fPSUZGhmRkZOiPP/5gefljjbKyMh08eJCl87+306dPc67n4eFBCgoKAs97x44dBICOHTvG0lq0aEGenp6cfEePHiUAAsY+I0eOJACkqalJjx8/pnv37tHkyZPp2bNn9OHDB9LT06NevXpxJg/8sabuxD4tLY0MDQ0JAFlbW3PGoUWLFhEAOnLkSKPPtC51J2ZE/1m88/U8hU3MEhISiMfjcb4NfjuYOHEi1dTU0MuXL0lVVZW6d+/OGevs7OxIQUGBYyg1ePBgatOmDecaiYmJJCEhwVk8pqam0sSJE9n73L9/Pz19+pScnJzo6NGjVFpaSm3atCFXV1dOWZs2bSIAdOrUqS9+Lk3hu/ox8/Ly4mzbA7X6T3XJyMhAamoqZs2aJSDaqJ8XAGJjY9GuXTsmUuPTqVMnGBsb48GDB6ioqAAAKCgoQEJCQqAcHo8nkPbo0SO8fPkST58+xZIlSzh/nTp1QpcuXQAA/fv3h5WVFcLDw2FgYIA5c+YgISEB48ePx5EjRwTq6+bmxv7X1NTEli1bmFj09evXSE1N5Yg7mht1dXWEhoayehQUFCA1NbVBPbvo6GgAEBDPCXsXAHDr1q2vqtf8+fMFYm/a29t/VVl1CQsLg6+vLwYMGICpU6d+c3lfw/Hjx3Hz5k2h7hyaipycHBO31NXVqCum/f333yEmJoahQ4dyznVwcICysrLQdjlw4EC0bduW/VZUVASPx4OzszPHzYiioiKAWrEPAHz8+BF//vknevToISD24ovdYmJiWBq/3U2bNg3a2tpQUVGBm5vbF4ntAWDTpk1YsGAB60f69u2Lo0ePgsfjccTSb968werVq/Hw4UOsWrUKq1evhpmZGaKjo2FtbY0tW7Z80fWag5YtW2Lw4MEC8QA/F0Nx1qxZTOSorKyMli1bAqh1xcIXR2tqasLJyYm9j/qYm5tzVB3k5eUxY8YMvHr1ClevXmX1MzMzYwG469YvJyeHiYzr0rFjRxw4cAC6uroAamPnTpo0CRkZGZy6tGjRAqNGjeK0LaC236xfZ36fMnfuXKxZs4aJAFVUVDBlyhRkZ2eDvkNgGv53FB4eDh8fH2hqasLIyAgfPnxAeHg4043W1taGhIQEZsyYgdmzZwvU29/fn6Nn2FAfyT/m7e3NSZs0aRKnPgBgamrKKRMAunbtCgBCn5+cnBxiY2PRsWNHGBsb46+//kK7du1QXl4OHR0drFy5UkB0B3C/0S5dujCx3JEjRziugxpS02gK8+bNQ69evbB+/Xpcv35d4HhVVRWWL18OIsKBAwfg4+MDHx8f/PrrrygvL8eePXtARPjw4QMKCgowb948zrzCz88PxcXFHJ12GRkZrFy5knOdXr16QVZWlvMcTU1NmZj49OnT8PT0RPv27REZGYnRo0ejpqYGJSUlAiowjel4Nwf/eOCqiIgIAPgiGfanT5+QkZEBTU1N1mnxkZaWRocOHXD69GlkZ2fD0NAQFhYWAvLpzxEcHIy+ffs2eFxSUhJxcXEIDAzEtm3bsGnTJvz5558wMDDA0aNHBfxh1fWfpK6uDldXV/j4+CApKQkVFRXIz8+HtbV1k+oojE6dOgn9AMXExDB48GDs3r0b06ZNw4cPH/DmzZsGdUkcHBywadOmL77u1/oKaqrOwpcQFhaGH374ASNGjMAff/wh4MOtpKQEly5davD9SktLg8fjQVNTk+kqCuNz/pxCQkLQuXNnpvf0rVhaWsLZ2Rnh4eE4efIk51hVVRXu3r0LQ0NDph/IR0pKCgMHDkRERASePHnSqE7E06dPhQ7IPB6P8zsiIgKfPn0SmAQCYGkRERGYM2cOAHyT/zAVFRWOHzc+7dq1g7u7O/bu3YuMjAzo6+vD19cXYWFhiIiIYAsfPz8/XLp0CR4eHpg5cyb69evH9CC/J4qKioiKikJqairWr1+PM2fO4N27d0122ty5c2ekpKR8c31GjRqF2bNn48GDBxg8eDAGDx4Me3t7vH//HgcOHEBeXh5u3ryJU6dONViGs7OzwCJbmOPvLVu24OPHj7hz5w5iY2Px8eNHHDt2DC9evGhQ98rMzEyg7/oe/QNQq//28OFDDBs2jC2c6vueq6+P11Ab/lbfeOLi4nByckJsbCwePXqETp064dq1a3j37h0OHjyIN2/eoLCwkOndCaMhPVh1dXXExsaiqKgIp0+fRnp6OtLT0xv0pTZ06FBERER88z0JQ0JCAsuWLYOLiwtWrlyJdevWcY6/ffsWly5dQo8ePTBr1izOMf67ERMTg7i4OCQlJXHmzBm4u7uzvikiIoId43Py5EmUl5czHTMAuHTpUqPfIH8CXBd5eXmkpKSgZcuWiI2NZTpmX2NY1xT+cc///FXG06dPP5tXTEwMCgoKKCgoQHFxMedYZWUlXr58CUNDQ2hrawOofRF5eXlNqk/dnQhhvH79GtnZ2QgICEBeXh6ioqLg4eGB9PR0DBw4sNGONC4uDoaGhjh9+jR+//13pKWl4fXr182yKlFRUREYRIFaIwgDAwOEhIRg7ty5iI+PR15eHnbu3PnN1wQgMEH+p1i/fj1mzJiBxYsX48iRIwIWP7q6uqiurmaWlHV59uwZMjMzMXToUMjKykJSUhLy8vK4ffs2CgsLBfLz04StkNPT03H8+HFMmDChUeX2psDj8RAcHAxJSUn4+Pjg5s2b7FhVVdVnB28tLS2OkYuwunfv3l2oM+L6g+nndn0AfJFxypegoaGBdu3aCT3WsmVLlJeX4969e3jy5AnCw8Ph5+fHMdIBanfY+ANBcnJys9Trc5SWlmLixIkwNzdHQkICJk+ejMDAQLbz+aU01ZK3Iep/ozk5Oejbty/09PQQGRkJWVlZeHl5cZTGvwRhlshXr16FpaUlhg4dips3b0JPTw+BgYHNdi/fwpo1a5iTYC0tLZiamgr9qz8B/V7weDwoKyujvLycOUT29fVF27ZtsWfPHsjIyKB3796YOXPmV5W/ceNGGBgYYNWqVXj06BGGDx+OH374oRnv4MtxcnLCxIkTERkZiV9++UVoHnl5+QbfCVBrYT1//nyEhIRg+fLlePPmDQIDA7F9+3YMGDCAYyCxZs0aWFlZYeDAgbh58ybU1dUxffr0Jk/4KysrcezYMZiZmWHWrFm4desWjIyM8OOPP379w/gC/vGJ2YABA6CsrMxW4nWpP6mSkJCAiYkJMjIyBAajp0+f4tatW3B0dIScnBwAwNjY+IsGEqBW7NmiRQtmpVSXjIwMZmGUmpqKYcOGsZn3oEGDcPDgQWzfvh35+fmNiiWXLVuGmpoaxMfHcyxOmzp5FEZiYqJQFyOHDh1illSjR49mnXRzXPNzNLYCby4+ffqEcePGYdeuXThx4gSWLl3Kjm3YsIH9P2jQIMjLy+P3338XeE7R0dEoLS3liCvGjRvHVnJ1qaiowJYtW2BsbIwhQ4YI1IfvLqG+OOJbUVdXx6JFi/D06VOO5Z+MjAxmzJiB58+fC7iEqKysxK1bt6Cvry9g6Vp/8Ll69arQ9lM/moGdnR0AICkpSSDvoUOHAECo5WtT6dWrFx4/fsyZhNYlKSkJCgoKGD58OIqKilBSUgIJCeECAENDw2+uT1NYsmQJ9u/fj4cPH+LkyZMYP348nJycmhSFoznhv5dWrVqhsrIS7u7uuH//Pu7fv4/Q0FBMnz4dTk5OQndemkJRURFGjx6NoqIixMfHIzQ0FB4eHnBycmKL5X+Ka9euYdu2bWw37N8Q5q+mpgbXr1+HsbExzM3NsXXrVqxfvx5HjhxBdHQ0ZsyYAScnJ0ybNq3JZe/cuRM+Pj5YvHgxkpKSEBwcDCcnp0YlAd+bBQsWoHXr1ggJCeGkS0lJoWXLligqKmJqSMLgT15tbW0RHx8Pd3d3REVFISIiApGRkSzf2bNnsWjRIrRv3x7Pnz9HaGgovLy84OTk1GAf0RAxMTFYuHAhpk6dirt37yIkJAROTk7fPRLRV0/M3r17h7dv3wKo3Yrkh1nIz89npreJiYnIzc1l52RlZSE5ORlEhKysLNTU1EBdXR1//PEHkpOTMWXKFGRlZSErKwtz585lOkd5eXl4//49gFp5taqqKpYuXcr8ot29exdz5syBnJwcFi1aBKDWVPbq1asoKSlBUVERc6sB1JrH3r17F3l5eUzXytjYGEuXLsWjR48wYcIEpKeno6ioCHFxcbCzs2M7dHZ2dqiqqoKLiwtbgVdXVyM5ORmysrJsUCopKQER4datWygvLwcAyMrKoqamBs+ePQMRIScnB/PmzWMroq+JT/np0yc2oa2/iwjU7vABtbtCVVVVyM3NxZ49e+Dp6SlwDhEhMTFRaFn8uhUUFHAm0JKSkpCRkUFgYCAePXqErKwsXLx4EQ4ODggMDBRa55KSEoHyq6qqcO3atQbvQxiPHj2ChYUF3r59i9DQUGhqarL2ExISwgnT1L59exw5cgRxcXGIjIxEZWUlgFqXBsuXL4ejoyObdAC1uwHW1tbw9fVlbaS8vByhoaFITk7GkiVLhO6InTt3Dvr6+kw362vhr+zr4uPjI6BbCQBz5szBx48fsXHjRpZWWVkJX19fZGVlCdV1+9IYrvV3HmVkZLB48WKcPHkSt2/f5lzv4MGDMDQ0xIgRIxq9jy9hwoQJGDhwIJYuXcr5doHa1XBCQgImTJgAMTExmJqawtXVFWvWrMGrV684eSsqKrBq1SqYm5vDxcUFQO2AuGLFClhaWjaoq9UY5eXlqKysbPB7jY+PB4/Hg7a2NtvFvn79OpYsWdKk69QXW/Np7Pu4efMm5/vMycnBhg0b0K1bN7i4uKC4uBgpKSkwNDTkuK+4ffs2tm/f3mC5wq5ZP+3OnTt49eoV+vTpw1QcqqurcfHiRRw/frxJZTcXNTU1uHTpEoYMGYLOnTujTZs28PLyQnp6OrZu3cryVVVV4cKFC3BxcWETgObk8ePHnOdbVVWFbdu2ITMzEz/88AN4PB7zo6itrc1EuwUFBWxME0Z1dTXKysoE0p88eQIigqGhIVsQ8MdEoFZlpS7NHRu5srKSjXt8OnTogMWLFwvkVVFRwdy5c3H79m2BdnLixAmYmpqipqYGv//+OzZu3IgJEyZg7969CAsLQ3x8PIYOHcpZ9ERFRYGIMGHCBLYArampwc8//9zofQprh/w2MnHiRHaNjx8/flF4vW/ia60GVqxYwUxqpaSkaOnSpURUGxalbnrv3r3ZOdLS0pxjda31AgMDSVlZmR3z9fWlEydOsN91LXqSkpLIw8OD2rZtS/b29iQvL0/du3enBw8esDz79u3jXMvc3Jw+fvxIb968oS5durB0XV1dSkxMJKLa0B67du0iKSkpUlRUpA4dOpCBgYGAi4jg4GCSkpKiNm3aUJ8+fcjS0pJkZGSY1++wsDAyMzNj17CysiIiouTkZLK2tiYxMTGysbGhNm3aUFBQEIWEhFDXrl1JW1ub+vTpI9S6UhhJSUlkZWXFrtOlSxe6evUqJ096ejrp6uqSmJgY9ejRg1RVVWnSpEkUHh5OGhoapK6uTnZ2drR69Wrq168fK0tPT49Zle3evZs6d+7MjtX3hr9y5UpmYiwuLk6dOnWiPXv20MKFCwkAGRkZUWBgIN24cYPs7e1JXFycWrRowbFiretipX379px32RAGBgYcC7z6f/369ePkr6yspICAAGrRogVZWFiQjY0NiYmJkaOjI7N6q8u7d+/I2tqatLW1ydbWlszMzEhZWZmCgoKE1uf169ekrKxMjo6On627MG7cuEG2trYkJydH6urq9NNPPwnkiYiIIDExMdq1axcnPSAggOTk5MjT05OCg4OpX79+JCMjQwcOHKDKykoiqnXjwrfgbd26NS1cuJCIaq30+FZZOjo6zNr0jz/+IF1dXQJAHTt2pH379hFRrbVUjx49qH379hQQEEArV66kHj16lt0cpQAAIABJREFUkImJCbP2Kisro6VLl1KrVq0IAJmZmQm4+PgcKSkpZGtrS8bGxuTj40PBwcE0ZswYkpCQoOnTp3OsAXNycsjDw4NUVVVp9uzZFBwcTMuXL6euXbuShYUF59rv379nLiqaGhEgKyuLxowZQwCIx+ORra0tcz3AJyQkhCQkJMjQ0JDmzp1Lzs7OZGVlRd7e3qSsrEyurq4UHBxMubm5NG/ePGb1OGnSJIqPj6ecnBxas2YNycnJMYvFwsJC+vTpE/n7+5OkpCRzpcHvKyoqKkhMTIykpKTI2tqagoODadWqVdSuXTuSkZGhGzdusPoNGzaMuQvavn072drakra2NvXq1YsA0Lp16+jhw4f04MED8vf3JwkJCVJUVKTg4GCqqamhmpoaCg8PJwsLC2YJGhsbS+/fvydNTU0SFxenZcuW0erVq8nKyoo6depERkZG1KJFC/rtt9/o/PnzlJiYSNOnTycA1KlTJ46F5L59+8jc3JwAkJ+f32et1T99+sRcRuD/u/pZtGgRTZ8+nd0T6rg/KCwsJBsbG5KUlKRx48ZRcHAwTZs2jYyMjJil/b1798jDw4P1Z3yLyuvXr9OcOXMIAPXq1Yu59IiLi2OWxI6OjhxrPQ8PD+rZsydpaWnRihUrKDg4mLkN8vT0ZO9wy5YtJC4uTkZGRhQcHEyenp5kbm5OXl5eJCYmRr1792btJjg4mLl5GDJkCD18+JDzTC5evEg8Ho+MjY1p+/btNGPGDOrcuTN5e3uTrKwsDRw4kIKDg+nBgwcUEhLCXJfMnDmTWWXz3eAAoAEDBtCJEyc++308fvyYXFxcCAAtWrSIWfHy4YfFE+Yuw9jYmGRlZWny5MkUHBxMU6ZMIQcHBxZ+LTU1laytrdn75PfLo0ePpiNHjrB+LjIykng8HmloaNDOnTtp3bp1ZGNjQwMHDiQZGRkyNDSk7Oxsqq6uphs3blDPnj0JAHl4eHC+EyKiqKgoEhMTIysrKwoODqadO3eSubk5DR06lHg8Hjk6OlJpaamAJfO3wiP6DmYv/wOkpqYiKyuLrbIb4tatW3j9+rVQZeiGiI+PR2VlpYAV4vnz56GoqPhdvO/znebZ29szq7vy8nKcOnUKGhoa6Nev3zeVn5ubiytXrsDIyIjpBBQXF7NVoIqKClulXb9+HdnZ2dDX12e6J1FRURz9LwcHh88abiQnJyMjI6PB4507d4aJiYlAekFBARM5t27dGn369Gn0OhcuXGB6ZU5OTo06wI2NjUWHDh0+66izIcLDw9l2vpqamlBLVb4ovL7CdEVFBcLDw9nvuu8aqN09qSuC1NLSgq2tLR49esTZ2erQoQO6d++OO3fucKx3TUxMOMrzdc9TUFAQUNS/fPky27EFap3+fo1I6+rVqxwxbc+ePRu0gOO3LT6qqqoCemdA7U7pjz/+CGdnZ/z6669fXJcXL16wXQc+zs7OArorT58+xfr161FYWIhRo0axfuT+/ftYv349JCQksHLlSgFRuZ6eHrS1tTlRK4DaHX1ZWVkB0W6PHj2gp6eHmpoaXLlyBXZ2djh16hTTITUzM8P8+fM57QAANm/ejKioKIiLi2PcuHFwcXFhuxIJCQnQ1NTE4sWLER4eztG7jYiIQFlZGTZu3Ihr165h7NixkJKSgo6ODqysrJCWloaTJ0/i+vXrUFVVxciRI+Hs7Iy8vDxs3LgRd+/ehZWVFYYMGcJ2bQ8cOIAffviBSRtOnDiBsLAwFBUVwdPTE6ampo0abVRVVeH48eOIjo7m7ASFhYWhb9++7N4dHR05O9lnz55l1romJiYcR8rp6elYv349nj9/DhMTE3Tr1g1jxoxBamoqIiMjkZOTAy0tLXTt2hXDhg3DtWvXmENtgNvurl27BmVlZYiJiSE8PByXL1+GnJwcfH19BXbAb926hXXr1qG4uBi2trZwcXGBoaEhEhISsHbtWrRo0QJ//vmnQLvp3r27gCHW+fPncfz4ceZo2MXFBT169EBKSgrWrVuHwsJCLFu2DDk5OTh37hw6deqE9u3bw9DQEObm5rh58ybWrl2L3r17s2f7OUfNly9fxtq1a0FEEBcXx5YtWwQsdNPS0vDkyROMHDlS4PxDhw7h8OHDAGqNnubNm8d5Z0uXLsWuXbuwdu1aREVFoaioCKmpqcjNzYW+vj4OHToES0tLREVF4fjx43j16hWUlJTg6+uLbt264fbt21i3bh2Kiorg4+OD58+fM8fNQK2kpL4xyJUrV7B27VpUVVWhQ4cO8PHxgY6ODiIjI9mO2uLFixt0iP81iCZmIkSI+D/H3bt30b17dxw5cuSziy8RIkT884SGhmLhwoU4e/Ysc18F1Iph8/Ly0K9fP/Tq1QuhoaH/YC2bh39c+V+ECBEi/k4qKiowY8YM7NmzR6g7DhEiRPz7SEtLg56enoBbIHl5eabv+7Xum/5tiHbMRIgQ8X8KvqL3wIEDm2ylJUKEiH+GmzdvwtHRETY2NnB3d2fpr169wubNm9GxY0fs3r37fyI4umhiJkKECBEiRIj411NWVobDhw8jJCQElZWV0NPTg42NDbp27Ypu3boJ9eX534hoYiZChAgRIkSIEPEvQaRjJkKECBEiRIgQ8S9BNDETIUKECBEiRIj4l/DVE7NXr14hNTW1wb/64WH+TWRkZGDz5s3w8fH5bD3fv3+P6Oho+Pj44MiRIyy9uroac+bMwaRJk5jfqeLiYly6dAmOjo4NBov9EkpLS/H69WsWIaG5yc7Oxl9//QV/f/9mL/vvICIiAj4+/4+9846KIun+/pdhGKJIjoIJdUVllUUMiAQBFQOKIIpZMa85hzWueU37mGHNgWBWVNYMooiPIpgAFRHFQJQgMMBw3z840z+aGRQVXfZ96nPOnAMVb3dXV92uurdqBm+PLMY/w/Pnz/FPWEM8f/68xsuUnuzw6NEjXnhUVBSWLVv2zTvCv379GrGxsTW+y3pxcTFiY2O501FqC6mpqXjz5s0/LUa1iI+Pr/ZzkUgkiI2NRVlZ2XeW6v/48OEDYmNjZY4tTE9P5+2fxvj/hK/dmfbcuXPcruAaGhqkr6/P+xkZGZGVlRWFh4d/4x64NY+HhwepqKgQAJld/Stz+vRp0tLSIgA0YsQILjwrK4s0NTVJSUmJ2914zpw5pK2tTQDo7NmzXyXb1atX6ZdffiFDQ0Nq1aoVmZqaUkhIyFeVJY+ioiKysLAgVVVVMjQ0rLFyfyT29vYEQGb3+2/h2LFjZGNjQ1ZWVmRlZUV79+7lxS9cuJDatWtHVlZWZGtrS5cvX66xumszEomEVqxYQVZWVvTmzRteXH5+PjVt2pRatWrF3bfKv1GjRvHyJCcn0/Lly8nKyoo6d+5MVlZWtHDhQioqKpKpe/PmzVWW26pVKy7dhg0baOzYsd90natWraLmzZsTAN6u7UREgwcPrlZf8SkmTZpEurq6BICuX7/+TbJW5MCBA/TTTz8RAAoMDKyxcr+F+/fvU69evUhPT487XaI2ExcXR8rKyjRt2rTPpvXz86MWLVoQAMrPz/8B0pUjbYObNm0iovITKGxtbcnExIR8fHx+mByMH8NXz5h1796d29V95cqVSEtL4/0CAwORlZWFXr16ISUl5du0xxrm5MmT1T5ouVevXrwDUqVoa2sjPj4e169fR8OGDQEAq1evxvXr179JNkdHR262LT4+Hnfu3KmRQ6GlKCsr4+nTp191MG5tYffu3Zg1axaGDh1aY2V6enpix44dSExMRFxcHBYtWsT7El2+fDlmzJiBuLg4TJ48Gc7OzjVWd21mzZo1WLBgAeLi4rjzRaXk5eUhMTERzZs3l/k1bNgQcXFxvFmF1NRU+Pj4AABWrVqF48ePo3///ti+fTs6duwocybmu3fvYGBgILf8iju89+7dGydOnPjqczkBYO7cuZg9e7bcOF9fX4wdO/ab9kgaOnSo3HMCv5Wff/65Srn/KbS1tTFu3DiZsxJrK6qqqujTp4/M/ljyGDBgAO+M0R+Fh4cHfHx8uMOzNTQ0sHjxYpkTJ74HlU8ZYPwAvkWry8vLIwD0559/yo0fN27cV51H9yP4kq/gyMhImRmzqoiLiyMA3NmhX0vDhg1JJBJ9UxmfYurUqf/aGbPvibq6Onl4eBAAmbMqIyMjyczMjCQSyT8k3Y9l0aJF1KRJE/Lz8yMA9PLlS178unXraOrUqXLz7tixg9q3b8+dIVdaWkpOTk4UFRUlkzYoKIgA0KJFi3jh8+bNk5teHiNGjCB3d/dqpa2KR48eyZ0xqymk/UhNzpgRlc+eoBbNmEnR1tb+V8yYfSl//vnnD58xq4rWrVt/1xmz9+/fU/369b9b+Qz5fNfdFaUbvUkkEl54bm4u7t27x2nirq6usLOz46XJyMjAyZMn4efnh8LCQoSGhuLhw4dwdHRE586duXMCK34pDxw4EM2aNePKOH78OOLi4gAAPXv2hI2NjYyMEokESUlJiIqKQmJiIrp27SpzVqWZmZnccxvfvXsHiUQCU1NTmbiKZzS+efOG9/Worq4OQ0NDmTzVoaioCGlpaTA3NwdQbi8mnZVo2LCh3H1cpEdWHDt2DPb29nLPj6xIZmYmcnJyuP/Nzc1lNuKUlmlubg5FRUW8ePECAKCoqFjlOZESiYQ3C2VqagplZWVemsLCQrx9+xYAoKamVuVmgdLZlMrnRebk5CAzMxMAIBQKufv0JSxcuBBJSUnYs2cPZsyYgUaNGnFxCgoKMnVKefXqFUpKSqCqqgpjY2O5adLS0qCrqwtFRUW8e/cOBQUF0NbWhra2Npfm9evXKC4uhp6eHu+cuIoUFRXhzZs3UFBQ4GZsK5Obm4uCggIYGRlx915fX/+TZ31KuXv3Lg4ePIiLFy8iKioKAQEBMmk6dOgg9/kkJiZi7dq1OH78OBQVFXny/vzzzzLppbvvnzt3DkuXLv2sbPJo0qQJ9uzZg7y8vGpdnxTpM6v4jD9HRkYGd65r5XwV4wwMDKChoVFlOcXFxXj9+jWMjIygpqZW7foZjB9BUVERTp8+jffv3//Tovzv8S1a3admzD5+/Eht2rQhBQUFunbtGheelJREFhYW5ObmRn5+fuTr60sCgYA2bdpEZWVlREQ0f/58MjY2Ji0tLdq1axdZWVmRSCQikUhEAoGAevfuTZmZmURE9Ndff5GXl5fcL92AgADq168fAaB+/frx4qQzZq1atSKhUEjDhw+ndu3akUAgIB8fH97XUFlZGTVu3Jg3YzZy5EjS0dGhjh078sqVzphVtDFbu3YtNW7cmBQUFEhTU5N27tz52XtbecassLCQBgwYQFZWVtSwYUN68OABDR48mNTV1UkkEhEA8vT0pLy8PF45MTEx5OzsTEKhkGxtbcnU1JSaN29O9vb2MjNmYrGYFi1aRObm5uTl5UVdunQhJSUlGjNmDL1//56IiDIyMmjq1KnUrFkzAkAhISHk4eFBIpGIlJSUSCQS0dChQ7lnKeXdu3fUtWtXat68Ofn5+ZGWlhb5+PjQixcvuDTx8fHUqlUr0tfXp2HDhpGhoSHZ29vTzJkzuTTbtm0je3t70tXV5V2rRCKhrVu3UpMmTahr167Up08fUlNTo+HDh1N8fPxn77cUdXV1SkxMpIiICBIIBOTo6MhdS2RkJJmbm8vkSUxMJEdHRzIxMaFRo0aRgYEB9erVi7tnROXt1N7envT19enBgwc0bdo00tPTI0VFRTI3N6egoCBKSkqisWPHkqamJgkEArKwsKArV67w6iotLaVt27aRtbU1iUQiUlFRIXt7e7p9+zaX5u3bt7RhwwaysLCgHj160OnTp6l9+/YEgDp16iTTRioTGxtLBgYGtGfPHiIiOnTokNwZM3lIJBLq3r07rVixgheen58v8w5KkfYjNjY2vPA2bdrQ1atXyd/fn/z9/enWrVskFovlzliuXr2aAND+/fs/KyNR+TNzcnIiDQ0NUlZWJnt7e5o7d65MP3L27FkaOnQo2dvbU0JCAhGV24uJRCJSUFCgGTNm8MqdOHEi9z4OGTKEFyedMduxYwcNGTKEbG1tSSgUUosWLej48eO8d6asrIxiYmJo0KBB1KVLF3J2diYHBwc6d+6czLtVccbs3bt3NHXqVLK3tyd7e3vy9/eXSV8V+fn5NH/+fOrcuTM5OzuTo6Mj+fv70/Hjx3npsrOzadasWeTg4EBdunQhNzc3unTpkkx52traNGPGDDp79ix17tyZk2nhwoVUWFjIS5uZmUkzZ84kJycn6tKlC3Xu3JmWLVvGzbhW5N69e9S/f39ycnIiZ2dncnJyIn9/f/Lz86O+ffty6dLS0qhv377c/evatSv5+/vz2o9EIqE9e/bQ5MmTaeXKldW6T9IZs4SEBJo0aRJ3Xb169aIbN27IpE9KSiJXV1dO1lmzZlF2djYXf/PmTdqyZQvZ29tTQUEBBQQEcGVGR0dTbGws+fv7k6OjI6WmpvLKrjxjFhoayuW1t7cnBwcHunfvHndP7e3t6cOHD1z69+/fk4eHBxd3584dLs7GxoYAkEAg4MrbsWMHFz9nzhwaM2bM/8wKwo+kRhQza2trWr58OYWGhlJoaCj9/vvvnKHrhg0buPQZGRn0yy+/yCw5LFmyhABwg0tERAS5ubkRAGrXrh1dvXqVS3vo0CESCoU0bNgwLuxTSxAPHz78pGLm5+fHa+w7d+4kADRlyhQu7PHjx6SmpsZTzMLCwsja2rpaipl0QF+1atWnbiePyopZUVERBQYGkrOzMwEgc3NzWr16NRUVFVFRURFNnjxZZmDKycmhBg0akImJCT19+pSIygf2P/74g5SUlGQUs4ULFxIAunfvHhf2/v170tPTo8mTJ3Nh58+fJysrKwJATZs2pe3btxNReec6cOBAAsB7Zu/evaMWLVrwBrHc3FyysLDgLYW5uLhQy5YtqaCggIiIXr9+TSNHjiRdXV3KyMggIqJTp07RiBEjCABPwdi7dy+nKEq5c+cO6erqkouLS7Xvu1QxIyrveADQxo0biUi+YvbgwQOuHUnlefv2LVlaWlKrVq045ezs2bM0duxYAkAAaPTo0RQZGUl37twha2trAkD6+vr022+/UUxMDF2/fp0aNGhADRs25NU3ffp0MjY25mQsLS2lOXPmkJaWFh04cICIygekefPmkba2NpmYmFDr1q1p+/bt1KNHD9LR0eEpjJV5+/YtGRgYcGURfZliNmPGDGrYsCGv8/8cT548IQA0ffp0XripqSl3vyr+PDw86NmzZ7y0r1+/rrZiJu0vHBwcKC4ujsrKymjDhg3UuHFjmX5k7ty5ZGtrK2P28PHjR7K0tKSuXbvKlJ+fny83TqqYmZmZ0apVq+jJkyeUkJBAvXr1IgC0bNkyLu1//vMfEolEFBQUxJW5dOlSAkBHjx7llStVzDp06EB6enrk6elJgYGBNGTIEAJQbYVjypQpBID+/vtvysvLo4MHD5KxsTE1btyYcnNziaj8Hbe1tSV7e3vOsWvlypVy773UEcrW1paOHDlCgYGBtHTpUjIyMiJXV1fufcnIyCAbGxtyc3OjV69eEVG5M46enp6M+cj169dJU1OTBgwYQC9evKCcnBxycHDgTE2kz+7BgwekqqpKa9as4erYtm0bAeD1w5GRkdSxY0cCQMOHD6/WfZIqZlpaWjR37lwKDAykwMBAcnNzI5FIxGs/V65cIQA0e/ZsysrKopSUFGrYsCHZ2tpykwu+vr6c44mjoyM5OjpSt27dCAAdOXKEJk2aRG3atCEA9Pz5c54slRUziUTCjW1jxoyhmzdvcnELFiwgAJSeni5zTVu2bCEAtH79ei4sOjqaWrduTUpKStw1Vnyv69evT4qKihQREVGt+8aoPjWimFlZWdGIESOoTp063ACzfv16unv3Lu9rLSQkhACQiooK6enp0a+//krTp0+nJk2ayHQgEyZMoLp168odDBwdHcnQ0JB7sb9FMatsYyaRSMja2posLCw4BYGIyMLCQqaT6NGjx2cVM39/fzI2NqbAwMAv+rKoysbMz8+PdHV1ZV7Q+Ph4UlRU5HXuu3btIgB04sQJmXLc3Nx4illSUhIJhULq2rWrzBf2rFmzSElJiWJjY3n5AXAKQsVyAHCzLUREv/32GwGgYcOG0fTp07mfkZERiUQirtN3cXEhJSUl2rlzJ338+JGIiEpKSqhXr168GaH//Oc/MorZkCFDqGnTplRSUsKTx8nJ6asVs+TkZKpfvz7p6+tTTk6OXMWsY8eOpKWlJaOISO2mKg5WAQEBBIBCQ0N5ci5ZsoSEQiHdv3+fV8aYMWN4illqairp6+vTunXreOnEYjFZWFiQg4MDL9zOzo4sLS052YqKij6pMOXl5VHfvn15z46o+orZq1evSCQSkb+//yfTVaSoqIj69+9PdevWlRkwMjMzKT09nfu9fPmSJk6cSADI2NiYJ49UMevRo8cn6yssLKQ2bdpQ3bp1KSsrixd39OhRuf1IWFiY3L7C0dFRrmJWVZxUMfv7779l7oGdnR1pampyCme9evWoSZMmvHRisZgAUNu2bXnh0nfOzs6O3r17x4UXFxeTubk51a1bt6rbwaNVq1YEgKe4Sz9K4+LiiKjcrrBOnTp07tw5un//Pt2/f5/u3btHNjY2pKSkxClWROWK2aRJk6i4uJhXz6pVqwgA5/ksVV4q297NnTuXlJSUeB/O7du3J01NTd6zT09PJwBkb2/PhY0ZM4YMDAzo7du3XJhEIiF7e3uZ/qCkpIQsLCy+WDGr7KWckZFB9erVo6ZNm5JYLKasrCyysLAgGxsbunfvHne/pB//Fd/jjRs3crbJ0lnC9PR0bsyQ9iefUszEYjGNGjWK9PT0KCwsTKYv9Pf3r1IxKywslFHMiMr7bhUVFbn34cqVK1+9+wDj09SIjZmfnx8mTZqEgQMHonfv3gDKvdwaNGjAS3fmzBkAgL+/P8/OSepdV9leRUNDQ66NkKWlJa5du4Y7d+7AycmpWjJaWlpWK51AIMBPP/2Ew4cP48mTJ7C2tq5WvsqcPHkS+/btw6lTp7B//37OG60mqFu3roxtS7NmzWRsn2JiYqCjo4MuXbrIlGFpacnzYnvw4AFKS0vh6ekpY6fWr18/rFu3Dg8fPoSVlRUvrrKNWOX/S0pKcOrUKRgaGkJXV5cX5+vrCwBQUlICAMyePRt37tzB2LFjsX79enTv3h3e3t44ceIEZ6tUFb///jsKCgpQWlqKDx8+cGepvXr1SqYdVpf69etj6dKlGD58ODZv3izjiZmRkYGUlBS4uLigbt26vDh7e3sYGBjg7NmzGDJkCC+ubdu2MjZ7AoFArv1VRa5fv4709HSZtiwSidC7d2/s2rULycnJvOtt2LAhJ5uysrLM86nIvXv3EBERgU6dOmHDhg28cAAICAiAlpYWevbsiaZNm8rkX7NmDQDA29v7k9chpaSkBOPGjcP58+dx5swZ6Onp8eLl2XVu2bIFVlZWGDt2LAICArBs2TJevHRPwapISkpCTEwMfvvtN55dHwA0b968WnJ/K/LeGW9vb0RGRiI1NRWNGzfG77//zsmXn5+PoqIibg+rqq5x0qRJPNtVJSUleHh4wN/fv1pytWnTBg8ePICNjQ2cnZ0xZ84cNGrUCLdv34aFhQWA8j5FIpHI9Yiu/A4A5R6P0vdbyvjx47FixQocPXoUw4YNg5mZGZYsWcLZAGdlZaGsrAwlJSUoKSnhefY+f/5cZlyQeiZWtOMdNWoUXFxcuDElMzOzyv32hELhZ/sXeVS2/9TV1YWjoyMOHjyI/Px8BAYG4tmzZ6hTpw7c3Nx4afX09GTuCwAsWLCAk6Xy+/ApkpKSsHDhQjx8+BBBQUE/xGu8umMv48upUeN/V1dXzJ07F0uWLMHEiRPlbjMBlBvqfm4QqmnkGf5/TwICAmBjYwORSITZs2ejQ4cOX2WI/i0EBQVBSUmpWsbQ//3vfwHIHwylYUFBQZwyVV3EYjHi4uJgY2OD9evXfzKtq6srnj9/jh07duD48ePYvHkzNm/ejG7dumHv3r2fdJhQVlbG1q1bcfbsWeTm5nLOJFJD7K+lX79++P3337Fo0SIZN/m3b99WuUGxsbGxXKeQb0H6jKoiPz8f8fHxX62I6uvro7CwEDNmzJAbv3z5cigqKso46gDlW2eEhYWhW7ducgdoeYwYMQKnT5/GmTNn4ODgUG05+/Xrh/nz5+Po0aMyill1+dH9weeoLM+wYcMQFhaGsWPH4sKFC0hJSYGjo+MXlyvvfa6KXbt2wdbWFhs2bMC+ffuwb98+tGnTBkOHDkXLli0BAMHBwRg6dCj++uuvL5ZFSt26daGoqMi1ZwsLC3h6euKPP/7A7du38ffff6O0tFRu3jlz5mDBggU4efIk+vTpAwCcLBU/QG1tbaGiooJhw4YhIyODV6aLi8tXy/45bGxscPDgQQQFBSErKwsAsGPHji/uN7+E8PBwODk5ISUlBfXr1+eUaMa/lxo/kum3337DxIkTce7cOYwePZrnkSn1drx161a1yiouLq5yN2ttbW2eB2ZNQURIT0+Hurq6jEfVl3hSTpgwAVFRUThz5gxycnIwcOBAmX2gvjcdOnRAcXExsrOzq5W2KqTPa/DgwV8sg7KyMqytrZGcnMx5W8qjuLgYERER0NXVxYIFCxAdHY2wsDC0bdsWFy5cwMiRIz9Zj4ODA7Zs2YKVK1fixYsXCAwMRGBgIFq0aPHFMldEQ0MDBw4cAACMGTOGFyevjUhJTU2t8f37DAwMPhmvpKQkMwv0JTRv3hxZWVkQi8W83759+wAAT58+RUFBAdq1ayeT98SJE3j69Gm12khiYiIaNGiAV69eISUlhVPK0tLSuDR79uzBzJkzkZeXJ5NfV1cXKioq3/Q+VbcP+lFUlsfBwQE22p/rAAAgAElEQVS9e/eGsbExQkNDIRaLcf78+e8qQ2JiIiZOnIiEhATcvn0bnp6eePXqFaZPn8555RoYGCA8PLxG6pO25/DwcHTq1AlnzpxB3759kZ2dDbFYjN27d8vkmT59Oho1aoR+/fph9OjR8PHxwcyZM+Hr68s7yWTq1KmwtrZGcXExpkyZgo8fP0IsFn/3WR5pG/5ar/uvobS0FJs2bcKVK1eQnZ0NX1/fHz7WMGqWb1LM5HWaAoEAS5cuxU8//YSAgACEhYVxcV27doWJiQmCg4N5m0nm5eVh7dq13AAoJT09HWfPnuWFRUdHIzAwEHZ2dtwMhkgkgrKyMg4cOMCb9k5LS8PChQurlBUAbty4wfs/PDwcFy9ehJWVFbdcU1RUhJKSErkzBVXh7u4ORUVFODo64tSpU4iLi8P48eNljtT4nnh5eSE7Oxvr16/nTeMXFBRwy1NS2rVrBzMzMxw8eFDmqJGjR49CR0eH+2qW0rp162opC3369EFGRga3lC0lMzMTa9euRUlJCRQVFTFv3jxOCVBUVISbmxsiIiLQuHFjREREVFkHESEhIQGjR4+Gh4cHt0yYmprKbePxLdja2mL69Oky96VRo0b45Zdf8PjxYxnl9+rVq8jOzv4qZbYqevfuDZFIJLORakFBAUJCQmBmZiZXafoSRCKRzE96P6X/y+PevXtQVVXltr6oiuDgYAwYMAATJkxAaGgotLS0AJQfQ+bn58elu3v3LtavX48jR47IlBEWFoZ3795hzpw5MnGfmx3W19eHiYkJ7t+/L/M8v+aopIKCApntgJ48eYLk5OQq88jri44ePQqhUAgVFRVcv34dkZGR2LhxI5YsWYKWLVtCJBJxfeb3Wm0YM2YMnj17BqFQCFtbWxw7dgxhYWFQUVHB6tWrAZT34S9fvpTpP4Dy5bTKM13yrvXEiRPIy8vjlrynTp0KPT093LhxA35+ftDQ0IBIJJJ7BFbfvn3h4uKCZ8+eoV69eujQoQOePXuGQ4cOcUuaeXl52Lx5Mzw8PLB37164ublBJBJBIBB8dqn7S6jcXoqLi3H69Gmoq6uje/fu6N+/P1RVVXHo0CGZNpKdnY309PQakcPZ2Rl9+/aFk5MTTp48icjIyE+ONZXlLikpwa5du2pEFkYN8bXGaXfu3CFfX1/O6+bQoUO8+OfPn5NAIKA6derQ+PHj6fXr10REdPz4cTIyMqLmzZvTtm3baPPmzdS8eXPy9fUlsVjM5Z8wYQIpKCiQUCikuXPnkr+/P82YMYN0dXXJyMiIZ4hORDRo0CACQL179yZ/f3/y9vYmExMTmjRpEuc5WtGYf/DgwaSoqEgqKiq0aNEi8vf3p02bNlHdunXJ3Nyc82JMSkri3Ojt7Ozo/Pnz3HVYWVlx219IJBJKTk7mPKHc3d05l/DHjx9znl0dOnSgixcvVnlfJRIJpaSkkJ6eHgmFQjp37hyVlpZSWVkZicVicnBwIBUVFQoODuYMQ0tLS2nr1q2koKBAHh4enAFuXl4ede/enQDQrFmzKDk5mbZv304tW7YkRUVF0tTUpEuXLnHlHDlyhAQCAS1dupTEYjGJxWL6/fffSU1NjfNMLCsrow8fPpClpSUBoLCwMM5ZoKSkhLtXc+fO5Yx+pd64IpGIli1bRkVFRRQVFUUODg7c/SQiGj9+PGlpadHkyZMpNTWVxGIxnThxgtTU1LjtF8RiMfdMo6OjuXsjEAjI2NiYIiIiSCwW07p166hx48YkEAhIS0uL3rx5w2tflSktLaVLly6RoqIinT59WsZwNj09nVRVVWWM/+Pj40kgEFCHDh0oPT2dxGIxtyVMhw4duHTFxcU0e/ZsAkALFy7kyheLxdyWMefPn+cMf8ViMTk5OZGenh6lpKRwz2jevHmkr69PsbGxVFpaSsXFxbRhwwYSCoXclgUSiYQyMjLIwsKCrKysKDc3t9pbJsijOsb/5ubmpK6uXmV8SUkJLVq0iIRCIXXr1o3bAkP669atGw0cOJBL/+TJE5l3sbS0lB4/fkyGhobk5ubGOY0QEaWkpFTbK3Pfvn0kEAho2rRplJaWRmKxmA4cOED16tUjALR27Vqu7RYXF3PG3rdu3eI58IwePZoAUEBAAInFYkpMTKRRo0Zx2524urry7rvU+N/Y2Jji4+NJLBZTbm4uLViwgAQCAY0fP56IiC5cuEAKCgo0cuRIkkgkVFJSQtHR0WRnZ0cAqEuXLrxyExISCIBMHyyRSGjgwIGkoqJSLccjT09PatGiBeepSkT04sULUldXp06dOhFRuQOXgoICeXt7c44KOTk5NG/ePBo4cCDvaC1tbW0SiUR04MABkkgkVFZWRvfu3SM9PT0yNDTkjPqbNWvG+1+6bY/0KLzk5GSuTC0tLapXrx7Z29vTrl27yN/fn8LDw3nvq/Q+Dx8+nEpKSkgikdDr16/J1dWVAFDz5s055yKics9zQ0NDGjp06GfvEdH/Gf8PGjSI8xYvKSmhNWvWEADavXs3l1bqib1gwQJOluvXr5OdnR3vuMIJEyYQAMrJyZFb55EjRzjHISklJSVkZWVF3t7eXL8hkUho7dq1BIBGjhzJuy8pKSkkEAjol19+oXfv3pFYLKaUlBTy8/MjoVD4SeP/kpISbgyStiVvb29ycXFh22V8B75aMYuIiCB3d3dyd3enIUOGyPWIvHHjBm3ZsoXc3d0pJiaGC3/69CmNGzeO3N3dycvLS+7u3hMmTCBTU1N68eIF/frrr1xda9eu5TrqihQXF9OaNWu4dJs2baLk5GRKTk7mwiq64x8/fpxCQkIoISGBxowZI5NP3nW6u7vTwoULiah8L6OK4Q8ePODV7+7uzu2/NXv2bF64u7t7lUrC9evXZdIeP36cPnz4IBMufbGPHTvGC+/Tpw9XXmFhIa1atYrMzMyoadOmNHXqVAoPD6d169ZRo0aNyN3dneclFhkZSX369KE6deqQiYkJubu7U3R0NO/ZVZbjyZMnRES0fft2Xvjo0aO5fJmZmbRw4UL6+eefCQA5OzvThQsXeNf+4sULLq/0PLoWLVrQkiVLuDRDhgzh1SH17Dpx4gR17tyZAJCRkRENHTqU4uLi6PLly9y2C5aWlnLvORHRyZMneeVKFdGKnDt3jrdNi5Tw8HDu/E4A1Lp1a/rtt994Xn+jRo3ilb9r1y4iIk5m6e/IkSOUk5ND+vr6XJhAIOA81oqKimj06NFkZmZGLVu2JD09PWrTpg3vQ+Xhw4ekpqbG5dfU1OTOc/0aDh06RDo6OpSWllZlGnNzc/Lz86syPj8/X+7WFxV/lfdDzMnJoaFDh5KRkRF5enqSlZUVmZqa0ooVK3gfWURVb9lQFQcPHuQGIwUFBfLz86M//viDk6V9+/ZEVO7VW1HGiv3cs2fPyMTEhIszMjKiZcuWUV5eHjk6OnJbe0j36ouMjKTWrVvT8uXLefmMjY1p+PDhPC9j6fY39vb21LhxY2rSpAlt3ryZvL29CQB17dqVNm/eTDt37iQNDQ2uHOlO+2/evOEUEekH4ec86A4fPsyl79mzJ/n4+JCZmRnZ2dnxPIYPHTrEbcXi4+NDdevWJR8fHxnlX1tbm5YvX056enpka2tL7u7u3Efyw4cPuXSnTp0iFRUVEgqF5OPjw52xuXLlSlJQUKBWrVpx793du3flbqNiampKEydO5PYslE4aNGnShOzs7KhFixY0e/ZsWrFiBfcBP3z4cLp9+za5uLhw7cDHx0fGW7cyf/75J9na2tK0adNIX1+ffHx8qH79+lSnTh2aO3cuL21ZWRlNnDiRlJWVqWnTptSxY0dq2bIlRUZGcmnGjBnDbS2ip6dHwcHBvDLmzJnDtRd1dXXasWMHxcTEcHtJAuV7AL57944uX77M61PMzc155/oGBwdz++wBIB0dHVqxYgXnKdq6dWveVjmRkZHcs3ZzcyNLS0vOG5Vtl/H9UCCqwlXlH2bixIk4depUlcbVjC8jPz8fAoGA22G8tLQUYrEY6urqctN/+PABioqKX7SLenUQi8XIy8uDjo5OlTvoA+XLx/n5+dDQ0Kj2eXASiQTZ2dlQVlbmyS31alNVVa3yer8VqTcoUL6c9invx4qUlJTwTlmQ3pfc3FxuKUJBQUHGo1V6TVXVl52dzS2fCIVCbsnwaxCLxSgqKvqkUX92djbq1Kkj420qhYi4ExmqoqpnnZeXxy1BqaioyLXrW7VqFRYsWIDCwsJq33upp570/krbD1C+BF+3bl3k5OTw7HU0NTV5y7kVZavY7irm09LSglAoRGlpKYqLi6GmplZlPimlpaV4//49goKCMGjQINSpUwdqamooLi7G1atX8fz5cwwZMgQKCgo8b0Tps5a+ZxVRV1eHqqpqlfejrKyMM1iPjY1FbGwsHBwcYGlpKZMvJycHL168wJUrV9C7d2/Ur19fxsswKysLdevWxcePH/Hq1SuEhYWhWbNmcHV1lVkSz87OxtmzZ6GiogJXV1euvT569AhhYWFo3rw5unfvDn9/f6xZswYnTpyAsbExcnNzcfLkSVy7dg23bt2CqqoqHj9+DGVlZbx69QonT56Ek5MTmjdvzrWtBw8e4OLFi+jZsycaNGgg4yBUnb6ppKQEderUQXZ2Ns6fPw+BQIBu3bpV+Z5lZWXhzJkz0NDQQI8ePXjtXOqFKkVNTY13EsSHDx94S8QqKioQiUQycmtra6OkpERmqbLye/Xs2TOcPn0aDRs2hLOzM/eMdu7cCaDcgaFz5848+fbu3Yu2bdvC2tqa60Ozs7NRVlYm0zcxvh2mmDEYjH89UpvTkJCQf1oUxnfi2bNn6Ny5M0JCQuTa+4aFhcHLywv37t2r1oHkDEZtpca9MmuCGzdu4NmzZ8jMzMSmTZs+aUjLYDD+t0lMTMTTp095XnmM///Izs5GRkaGjPMLUO7oExwcjJ9//pkpZYx/PbVyxmzBggU8L7wFCxaga9eu/6BEDAajtjJlyhSUlpZi69at/7QojO/MyZMnMX36dKioqHCzZgkJCUhMTMTgwYMxf/78L9q7jcGojdRKxYzBYDCqS2ZmJjQ1NeXupM74/4+cnBzOFk6KmpraD907jMH4njDFjMFgMBgMBqOWUCttzBgMBoPBYDD+F2GKGYPBYDAYDEYtgSlmDAaDwWAwGLUEppgxGAwGg8Fg1BKYYsZgMBgMBoNRS2CKGYPBYDAYDEYtgSlmDAaDwWAwGLUEppgxGAwGg8Fg1BKYYsZgMBgMBoNRS2CKGYPBYDAYDEYtgSlmDAaDwWAwGLUEppgxGAwGg8Fg1BKYYsZgMBgMBoNRS2CKGYPBYDAYDEYtgSlmDAaDwWAwGLUEppgxGAwGg8Fg1BKYYsZgMBgMBoNRS2CKGYPBYDAYDEYtgSlmDAaDwWAwGLUEppgxGAwGg8Fg1BKYYsZgMBgMBoNRS2CKGYPBYDAYDEYtgSlmDAaDwWAwGLUEppgxGAwGg8Fg1BKYYsZgMBgMBoNRS2CKGYPBYDAYDEYtgSlmDAaDwWAwGLUEppgxGAwGg8Fg1BKYYsZgMBgMBoNRS2CKGYPBYDAYDEYtgSlmDAaDwWAwGLUEppgxGAwGg8Fg1BKYYsZgMBgMBoNRS2CKGYPBYDAYDEYtgSlmDAaDwWAwGLUEppgxGAwGg8Fg1BKYYsZgMBgMBoNRS2CKGYPBYDAYDEYtgSlmDAaDwWAwGLUEppgxGAwGg8Fg1BKYYsZgMBgMBoNRS2CKGYPBYDAYDEYtgSlmDMZnKCkpwblz5yCRSP5pURiMfw2pqan/tAgMxr8SYU0U8ubNG1y7dg1r1qxBTEwMBILape89evQIe/bs4YX5+vrC2toaALB79248fvyYi2vWrBlGjx79Q2X8X+Lp06fYuXNnlfFeXl4wMzODqanpD5RKPkuXLsXhw4eRmJiIgoICqKqqVjuvRCJBaGgoXr16hYkTJ35HKWue/fv346+//sKTJ08QFBQEJyen717n1atXsXz5cu69lEf//v1ha2v73WX5HsybNw93797Fo0ePfrjSkpKSgkuXLnH93ODBg2FpaQmRSFSj9YjFYmzatAlHjx6FiooKIiIiarT8fyOHDh1CQEAAXr9+jadPn/7Qul+8eIHt27ejrKwMAoEA48ePR8OGDeWmffnyJS5fvsy1kY4dO6Jnz57f1EYeP36MdevWITQ0VKYfWbFiBTZv3oyNGzdi0KBBX1X+zp07sXfvXjx//hwXLlz4ZN/xJURHR8Pf3x+nTp3Cvn370L179xopt7p8swa1dOlSdOnSBUOHDkVcXFxNyFTj/PTTT+jcuTP+/PNPbNy4EVZWVrzG6eTkhG3btmH//v1o1KgRunTp8sV1PHz4EAkJCTUp9mcJDQ1FYWHhD62zJjA2NkbLli1x6NAhrF+/HkVFRSAiEBEiIiJgZ2eHtm3b4tGjR/+0qHBxcYGJickX5xs9ejRat24NDw8PHDly5DtI9n1p1KgRzMzMkJ6ejuLi4h9S54kTJxAVFYV9+/bJ/AICArBx48Z/9UBPRPj48SPS09N/WJ0SiQSLFy9G27ZtcffuXe4969ixI3799VeUlJTUaH25ublIS0tDTk4OCgoKarTsfzP5+fnIzMz8oXXOnz8ftra2iI+PR25uLrZv347WrVtj/vz5Mmlv374Ne3t7XhsZPHgwOnfujKSkpK+WgYhQUlIitx+R1tOoUaNvKr9evXpIT0+v0bb87NkzTm6xWFxj5VYbqiF+/fVXAkASiaSmiqxx1NXVydzcXCY8JSWFTExM6M6dO19d9sKFC+nw4cPfIt4XUVpaSu3bt6f09PQfVmdN065dOwJAOTk5vPBFixYRADI0NKSPHz/+Q9L9H5s2bSIAVFBQUO08ly5dotDQULK1tSU7O7vvKN334+7duwSALly48EPqs7S0pL///ltu3NixY/+197Eiy5YtIyUlpR9W3+XLl0lRUZGCg4N54YcPHyYAdPDgwe9Sr5eXF1lbW3+Xsv+NzJw5k7S1tX9YfUlJSaSnp0dnzpzhwpKTk8nc3Jw0NTUpKSmJC3/79i21a9eO3rx5wyvj4sWLpK6uTm5ubt8ki7QfmTVr1jeVUxWXLl0iABQVFVWj5T569IgA0IkTJ2q03OpQY2uO9erVq6mifiiXL19Gv379EBoaChsbm68q48mTJwgICKhhyT7N0aNHERUV9UPr/FFMmzYNDRo0wPv37/+1MyRdunSBu7s79PX1/2lR/jW4urrCxcVFJjwsLAyPHj3C6dOn/wGp/t2Eh4dDSUkJ3t7evPDu3bvDyMgI4eHh/5BkjO/J9u3bMWjQIPTs2ZMLq1+/PrZu3Yrc3Fz8/fffXPiuXbswbtw4GBsb88pwcXFBr169cO3aNWRkZHyzTObm5t9cxv8KNWJj9m8lKSkJixYt4qZ45fH+/XsEBATg5MmTUFRUhJKSEn777Te4ubkBAPbs2YMZM2YgOzsbU6dOxcKFC9GyZUts3boV9erVQ2lpKa5evYo1a9bgxYsXUFFRQf/+/TFlyhRoaWmBiJCcnIzg4GAIBALMmjUL0dHRWL16NWJjY9G5c2f89ttvvOnekSNHcstjbdu2hYeHB8zMzNClSxeMGjUKHz58AADcvXsXWlpaAIC4uDiMGDFCbhxQbguwYsUKTtlr2bIlli1bhp9//plLk5aWhmvXruHo0aOYPHkyfvrpJ/znP//BwYMHYWZmBi8vL4wdOxZKSkrf9Fy0tLSgr6+P5ORkvH37FkD5UsDJkydx9OhRPHjwAE5OTmjTpg3GjBnDq6+srAwRERFYs2YNEhISYGFhgY4dO0JfXx8TJkzg0pWWlnLXcvHiRYhEIgwYMACTJ0+Gtrb2N8lfUzx+/Bh79uzB8ePHUa9ePXh5eWHQoEHQ0dHh0uTl5SE2NhaXL1/GuHHjAAD+/v4ICQmBiYkJ5syZg86dO/PsPktKSnD16lWEhITgypUraNGiBby8vNC0aVOsWbMGvXv3xogRI+TKtHv3brx69Yr738rKCn379gUAZGdn488//0RgYCAUFRXh7e2NMWPGyHT4VbFp0yaZsPfv36Nfv344f/4877q/llOnTiEwMBDR0dFo164dvLy84O7uDhUVFQDl7efly5e4ffs23r17h6lTp+LmzZsICQnB6dOn4eTkhHXr1sm0kbKyMuzduxchISF48+YNPD09YW9vj6ysLDx69AgDBw5E06ZNZeQpLCzE2rVreWH9+vVDy5Ytuev39/fnHE9MTU3h7e2NunXrVvuaxWIxAgMDMWDAAC5s+/btyMjIwMCBA6tdTlU8f/4cBw8eBABoamrC09OzyrTSNiKlUaNGcHV1hZGRES9damoqQkNDYWtrixYtWuDy5cu4ffs2gPK+yd3d/YvsPYODg/HkyRPuf2tra7i5uUFZWZkLy8/PR1xcHO7fv49x48bh5cuXOHLkCEpKSqCgoIDp06dDQ0ODV25paSn++usvxMTE4M6dO+jduzecnZ2RmpqKhIQEDBs2DA0aNJCR58OHD9i8eTMvzNfXF02aNOGuPyAgAMHBwWjUqBG8vLzg6emJOnXqVOt658yZIzf8wYMHEIlEPFussLAwmTYopUmTJiguLsaVK1fQv3//z9abn5+PU6dO4ejRozA1NYW1tTX3cVqxH8jLy0NMTAyuXr2KCRMmQF9fH6dOncL9+/cBlNt5V2yvp06dwp49e1BcXIyhQ4fy4qTk5uZiz549XLnS8ahy23r9+jXOnTvHjS1KSkrw8/ODgYFBldclFouxbds25ObmAgDat2+Prl27fvZ+fDU1NfW2evXqWr+U2adPH24p8+XLl9SkSRM6d+5clek/fPhAOjo61K9fP4qOjqZ3797RxIkTSV1dnZ48eUJERE+fPqXg4GACQIsXL6bw8HC6desWV8b06dNJKBTS/v37KTw8nC5evEj169enPn36UFlZGZWUlFCzZs1IUVGRNDQ0aMCAAWRubk5+fn40cuRIEggEZGZmRpmZmVyZ0dHRNGvWLAJAZ86cofDwcE6e5ORk8vT0JAC8PNK4vn37ysQFBweTiooKzZo1i8LDwyk8PJwmTpxI+vr6FBoayqWbP38+KSkpEQDy8PAgU1NTGjhwIPn5+ZGbmxsBoA0bNlT7eVS1lJmUlER16tQhgUBAubm5lJ+fTw4ODuTo6EgXLlyg8PBwWrZsGSkrK9OECRN4eaOioggAbdu2jcLDw2nPnj3UrFkzMjY25i37zp49m5o2bUr79u2j8PBwunTpEjVs2JA6dOhAHz584JX5NUuZUnr06PFVS3A7duwgExMTWrlyJfdMbG1tqVGjRpSSksKl8/Hx4Z7JnDlzyMDAgEaOHEl+fn5kYmIid4p/ypQppKioSEuWLKHw8HDauHEjCQQCMjQ0JD8/Pzpw4AARyV/KvHXrFgEgAwMDmjRpEsXHxxNReduysLCgUaNGUXh4OIWFhVGXLl1IS0uLbty48cXXT0RUVlZGPXv2JAcHByotLf2qMiqydOlSMjY2phMnTlB4eDgdP36cdHR0qG/fvlyaDx8+kEgkIkVFRdLR0aE5c+ZQgwYNyM/Pj4YOHUoCgUCmjWRlZVGPHj2oYcOGFBAQQOHh4TRgwAACQDY2NuTn50f3798nItmlzPz8fOrSpQsBIG1tbRozZgylpaUREdHt27dJT0+P5syZQ+Hh4fTXX39RkyZNyNramjIyMqp1zQ8fPiQTExPS0dGhadOmUWRkJG3dupWUlJRo06ZN33xPT506Rerq6tS0aVPy8/MjHx8fEolEpKenJ7OUWd02smXLFtLS0iIANHz4cBo5ciSpq6uTn58ftWrVigDQtGnTqiVfcXEx+fr6kqmpKddXrlq1ijQ0NGjIkCFcurS0NGrZsiUJBAIyNjamKVOmkFAopOHDh5Ovry8JBAJycnLi9QFlZWU0c+ZMEgqFtG/fPjp9+jTZ2dlx74efnx/3flReyiwqKqLZs2cTAOrQoQNt2LCB65P/+usv0tXV5caTS5cuUYMGDahjx44yfWV1kEgkJBaLKTY2lgwNDcnHx0fmuVRV7oIFC0hRUbFaZj75+fnk5OREAoGAxowZQ1evXqVu3bqRoqIiASBfX18urZeXFwmFQgJADx8+JCKihIQECg0NJQMDA+rduzev7ISEBDp8+DApKCjIxEmXMo2NjcnNzY38/PzIz8+PzMzMSEtLiyIjI7m0p06dIjU1NZoyZQqFh4fTmTNnqFOnTqSrq0uxsbG8cqVLmRMmTCBbW1v65ZdfyM/Pj5o2bUpqamp0+vTpz96Tr+V/SjGT2pjdvHmT6tevTwDo1KlTVaaXKj+VB2RDQ0Py9vbm/k9OTiYAMjZm8fHxpKGhQaNGjeKFr1+/ngDQnj17uLAZM2aQSCSi9evX8+7h1q1bCYBMo9m5cycBkGtjJo2rrJgRlQ/4leMsLCzIwsKCl+7t27dcx1gR6WBtampKz58/58Jfv35Nampq1LFjR5k6q0KqmIWEhFBoaCj3++WXX3hKntQe5vLly7z8EyZMIFNTU16YjY0NAeAUVSKid+/eUcuWLbnOJTExkerUqUMLFizg5T169CgBoMTERF74j1bMcnNzydjYmPr3788Lj4mJIQA8ZZmIKDQ0lABQ8+bNeXYiT548IQA0c+ZMLuzx48dy7UZGjhxJACg5OZkLq6yY5efnU/fu3cna2poePHjAy79w4UJSV1eXuRaBQEBdu3b9ouuXcunSJRIKhbyO9WspKysjALR69Wpe+IoVK0ggEMikHz9+PKmqqtLkyZN54X/88YdMG9m2bRsBoD///JMLk0gkZGJiQq1ateLlr6yYxcfHU8eOHcnZ2Zny8vK48NzcXGrUqJFMG4iOjiaRSEQxMTHVvvaEhAQyNjYmANxvypQp32y/+f79e9LQ0KBevXrR27dvufAnT56QkZGRjGLWuXPnKtvIivnExbsAACAASURBVBUreGGpqakEgHR1dSkkJIQLz8zM5PqNsrKyz8p45swZAkAnT57khc+ZM4c0NTVl0g8ZMoQA0KhRo+j169dc+OLFiwkABQUFcWEhISEy/XheXh4ZGBjQTz/9RPn5+Vx4ZcUsJiaGDAwMyN3dnQoLC3kySJXXioSHh5NAIODVVV26du3KPfe2bduSWCyuVj5pX9G4ceNqpZ8yZQoBoIsXL/LC165dK6OYEZUrSRUVMynt27eXUb6ktGvXrkrFLDAwkBf+4sULqlevHnXr1o0Ls7KykhkzcnJyCABt3bqVFy5VzIyMjHgTOG/fviVtbW36+eef5cpYE9SufS1+AK9fv4anpyf69esHoVCIoUOH8rbKkPLu3Tvs378fdevWRc+ePeHi4sL9jI2N8e7du8/WtW3bNuTn5yMqKoqX/8iRI7CyspLxqNTU1MT06dN5y07ypsFrmj/++AP+/v68MKknTnJystw827dv5y2vmpqaQklJCbq6ul9c/9KlSzFv3jzup6amhrNnz3JLj8bGxujbty+cnZ15+bKzs2XKktooubu7Y/HixYiLi4OhoSG2bdsGMzMzAICGhgY6duyIsWPHfra8fwKhUIjWrVtj7ty5vHDpMnRV7N27l7dcIG07ly9f5sLS09Px8eNHme1gpJ7IFW1PKvLf//4XPXv2hFAoxM2bN7mlNimGhoaYNm2a3Lw5OTmflLsq1qxZg06dOqFjx45flb8iCgoKsLKygq+vLy/8U89cX19fZrlJ3vuYnJwMDQ0N3rKgQCCAo6PjJ2W6efMmfH190b9/f4SGhvKWyYqKimBubo5Ro0bx8mhoaEAoFOLu3bufLFtKcXEx1q5di9LSUqxYsQIjR45EnTp1sHnzZlhaWiImJqZa5chjxowZkEgkWLlyJW+56KeffkKnTp1k0rdo0aLKNlIVI0eOhJeXF/e/jo4Ot3ReHQwMDNCzZ88v2u6gadOm2LFjB2+7Hulzr9gfXrlyhRcHlD+fdu3aIT4+Hm/evJFbfkBAADw8PLBs2TIcP36cW0aX0qxZMxlTAjMzMwiFwir7409x4MABpKWlITIyEhoaGmjZsqXcMa8iHz58wPDhw2FiYlJln1CR1NRUHDp0CP369ZOxE5X2Ld/bRKTyu9mgQQP069cPFy9e5Nq5lZWVzDv9uX5/48aNvPZjZGQEVVXVr3oW1eV/zsZMXV0dp0+fRtu2bdGgQQNMnz4dEydOxN9//82zVUpPT8f79+/h5eWFkJCQr6qrqKgIpqamiIqKkrFNqE24u7sjPDwc48aNQ1RUFHR1dREfH//JPBVtM6S4urry7DiqS2RkJDQ1NauMd3R0RJs2bbBhwwbExMTg0aNH0NHRwa1bt2Re9t9//x2GhoZYsWIFli1bxtnJrVq1ilMajY2NceLECZw4cQIxMTG4ePEitLS08Pz58y+W/XugqqqKEydOICkpCRs2bEBYWBgKCgrw/v37T+ar3MFLsbS05P42NTWFpqYmNm3ahF69ekFZWRllZWU4fvw4lJSU0K1bN5n869evx927d5GVlYUtW7bIffa//vorMjMzsWHDBty5cwcvX76EmpoaiAi9evX6wjsARERE4Nq1azVq8P/f//4XV69exeHDh3HkyBHo6up+k2IiRVlZGfn5+fjrr784256CggKcP38ejRs3lklfVlaGvn374uzZszA3N8fIkSNlnp2+vj4uX76MrKwsbN68GTExMbh//z6Ki4tRUFDw2YEVKLclnDhxIqKjoxEYGMh92CxYsACLFy/GkSNH0KNHjyoViE9RWlqKBw8eoHnz5jJKelVs27YNOTk5OHbsGO7du4fQ0FAA5fejKiq23a/B1tYWx44dw6VLl3Dv3j0cPXoUIpEIaWlpVeYRCoUQCj8/NEpli4mJ4ZTw9PR0XL9+HW3btpUxdi8qKsKUKVOwZcsW1K1bF126dJH7Lp0+fRrR0dHYsGED7t69i6SkJLx69eqrt62R2njp6+vj5MmTaNq0KWbOnIlz587JTZ+dnY2ePXsiMzMTYWFh1drOIi0tDRkZGTwlujJf0w98K7169cLmzZtRWloKoNwm/MaNG9iwYQMiIyPx/Pnzz26zUVW/+j35n5oxa9CgAbS1tdG2bVsAwKRJk+Dh4YFr165h+/bt36XO7Ozs76pZ1wSjRo2Ci4sLBAIBVq5ciQsXLlT7i7wiFy9e/C6zTnfv3kXjxo2xdu1aeHh4YPXq1bh06RKGDx8uk1ZRURFTp07F06dPERISgv79+yM2Nhbu7u5Yv349ACAzMxMODg5YuHAh98V/6tQpucbn/wRisRheXl6wtLTEnTt3MGXKFAQHByM4OPiryqvobdy4cWN4eXkhMjIS3t7eCAoKgo+PD44dO4aAgABuVrEiiYmJ2L9/P9q2bYspU6bgxo0bMmmWL18OCwsLHD9+HD4+Pti9ezcuXboEBQUF3oxddQkICICRkRHat2//xXnlkZycjE6dOsHb2xuFhYVYuXIlwsLCMHPmzG8ue/bs2bCwsMCmTZuwfPlyBAUFoU+fPlBWVsa+fftk0kskEgiFQixatAjZ2dlwc3OTe6rEH3/8AX19fdy4cQPdu3fHypUrMWPGjGrLFRUVhYCAACxcuJA329yoUSMcOHAAI0aM+GrP55KSEsTGxn5RnuXLl6NBgwbYuHEjdHV1sXLlSqxcuRIKCgpfXH91efz4MTp06IChQ4ciKSkJK1euxJYtW+Qaj1eHirMygwcPhomJCWbMmIFVq1Zh586dcHR0RN26dbFixQoZpauwsBBZWVnYvXs3SkpK5HogZ2RkYObMmbCzs0NqaioGDRqE3bt3486dO9Xe6PXt27cICgqSO8OuqamJQYMG4fLly3L7+CtXrsDOzg5NmjTB1atX5X5YfIqvnR3/XlQee3/99Vc4OTnh7NmzGDVqFDfe1Tb+p2bM5HkL7t+/Hzk5OZg2bRpsbGy4ZRNTU1OYm5vjxIkTKCws5HkAFRQU4MGDB2jXrt0n62vfvj127dqF+Ph4ma/KZ8+eQSQS/XAX4spfikFBQThw4AAWLVqExYsXy5za8CUDY4cOHb7LJsPDhg2DoqIiUlJSPts5OTk5Yd68eXBzc4OXlxe8vLywevVqtGnTBmvXrsWcOXOwZMkSxMXFISIiglPSaxM7duzA2bNnERwcDC8vL27g+tyMWXXIzc3Fs2fPMHv2bDRu3Bg5OTlwdXXFmjVrqvwy3rZtG9zd3dGhQwfY2tpi2LBhuHz5MjdIhYeHY/HixXB2dkZYWBgUFRV5+b9m1uPQoUOws7PjeQ5/C2vWrEF0dDQuX74ssyT+rTx79gzFxcVYunQpoqKi8PbtW3h7e+Ps2bNy26uSkhLnuers7IxOnTrB19cX+/bt477O/f39MXfuXKxbt46nPFY1y/EpqjpBY/jw4ZyS8KWoqqrC09MT4eHhSE1N/ewpHdI2MmDAABw4cIDXRr6nYjZq1Ci8fPkSf//9N88T8fjx419VXsXnGR8fD2VlZezYsQNA+YfprFmzMGjQILljjZaWFvbt2weBQABDQ0N0794dw4cPh7+/P5d+//792LhxI3bs2MEztfiS7SpiYmIwYMAAbN++nfPUrsitW7egqamJNm3a8MIvX74MX19fzJ8/H5MmTeLGgoiICKipqeGXX36psk51dXWoqanh2LFjGDNmzHd5poWFhcjLy4OhoWG18xw7dgyqqqrQ0NDAmTNnsHPnTqxbt45nMiT1tKxN1NiMWV5eHgBU+RUVFxeHxo0bY/z48TVV5Rfx8eNHJCQkoLS0FEVFRVy4mpoaNm/eDEVFRfj4+HDbRejo6GD69OmQSCSYO3cuNxOUnp6OQYMGITo6WqYOqVIi3f164MCBsLS0hJ+fH65evQqJRAKJRIKrV69i2LBhvLz5+fmQSCQyu2Xn5+cDqPq+3rx5E0D5oC19BtJl0/nz5yMrKwsfP35EVFQU+vbty7mqS8uVKpx5eXlcBx0TE8MdIfTw4UNefdI6pPkr8r12+pZIJDAxMeGm8qVu0UFBQZBIJDxbPVdXV3h6evKWJY2MjKCsrMxdq0Qi4f1fXFyMc+fOYfXq1XKvTd61fglisfiLBj/p7ImOjg4UFBRARLhx4wa3TFaVPFWFV2w769atQ3h4ODIyMqCoqAhXV1e4urrK3dJC+qylg6iOjg527NiB9+/fo2vXrpwdYllZGYgIJiYmXNqcnBzMmzcPZWVluHjxYrWvHSg/AUAikchdVq3I9u3b4eTkJPddrIzUNV663+LHjx8RGBjI2VZ+6TOvGD9y5EikpaXh7du3mD9/PmbNmoW+ffvKVcqk+aT3qUOHDpg6dSqCg4MxfPhwrm9KSEgAEfFmMFNTU3H48OHPXqsUc3NzaGlpYfHixfj48SMvrqioCKtXr0bbtm05RVUikSAgIAA7duz4rD0jAAwZMgRZWVn49ddfee/gpUuXcP78eV5aaRtxcHCQ20aq03alSNtldZBIJDAwMOB9GN+8eRP79+9HWVlZlf1tVSQmJnJ/79+/H1lZWXj79i03o9+rV68qtwtSUFDglAEXFxdMnz4d+/btw/jx47m+TVp+xef+4sULdOvWrdpLmU2aNIGhoSFWrVrF+xAnIgQFBSE6OhqdOnXiZMnOzuZMeg4dOoTevXvj5cuXePHiBeLi4vDr/2PvzuNqyv8/gL/abqVSSolUSoqiSJZw0TBK2WXLGIwsYyc7DWMQJmNtxkwzhsHI0tjHNvYwxqSyZck2tgqptN221++PHp2f44YQmu98no9Hj0f3cz7ncz7nc889933P+Xw+Z+TIV97Oc3R0RL9+/XDgwAEcOHBAunWYnJyM1atXA3jxZ+z5dENDQxw8eFB6fFVGRgZOnToFf3//l97CX7NmjfR+FhQU4ODBg9izZw8CAgJQp04d6bxaqVIl2b5PnTr1pfX7IN529MCsWbOkIc8KhYJ169ZlmzZtZKPiSHLdunXU1NRkly5d3naTry0uLo4uLi7SyBRXV1f+8ccfJItGPymVSmlIr4aGBlu2bMmUlBTm5eXxyy+/pJ6eHm1sbKhUKlmtWjWOHDlSNoLq0aNHtLa2ZqVKlahUKunk5MTg4GCSRSM7WrduTU1NTTZt2pSenp50cnKSRvzk5uZSqVRKUx64uLgwNzeXJLls2TKam5tLoyBnzpwpbfP27dtUKBQ0NDSkUqmkhYUFjx49SrJoRNiwYcMIgNWrV2ft2rVpbW3NFStWSCNkPDw8pGkU6tatSw0NDbq5uVGpVNLa2ppLlixh8+bNaWxszCVLljAqKoozZsyQpmCwsLCQRqxlZ2dTqVRSW1ubCoWCSqXypaNz7927R29vbxoZGUnDxZ8dDfi8sLAwamtr08nJiUqlko6OjvT29maXLl2ooaHBLl268Mcff2RWVhavXr1KhUJBMzMzjhgxguHh4ezcuTPNzMy4YcMGkuTJkydpamrKKlWqUKlU0sPDg25ubgwMDKSuri7r1KnD8PBwXr9+nZ07d6ahoSEBsFmzZjx06FCpjrlx48ZRqVTS1NRUau/nR1q9yPXr12lvb8+KFStSqVSyefPmtLe3Z2BgIM3NzdmoUSOGh4czJiaGoaGh0rFtZWUlTXVx7949aei+oaEhhw0bxrt37zI1NVUagfnsX926denv7y+NXP3555+l97pu3brS1Apff/01K1euLB1bX375JVNSUtiqVStqa2tTqVRSqVSybt26DAwMpLOzMytUqMB58+Zx3759pdr/X375RRqt+zJNmzYlAHbo0OGVZZ44cYI6OjqsUaMGlUolXVxcqFQqZVMhhIeH8969ewwICKCWlhZ1dXWpVCp57do1kuS8efNYp04dAqC1tbU0m/7Zs2fp6ekpa8/iY2vs2LFMSkoiSS5YsID6+vrU0NDgtGnTGBcXx5ycHA4dOlRar379+tyzZw+jo6Npbm7OypUrc+LEiWzfvr00BYOBgQHt7e0ZHh4uTcfwIuHh4dI5YPny5QwPD2d4eDgbNGjAxo0by0a8JiUlUVNTkwA4e/bsV7YpWfSUDg0NDdatW5fff/8927dvz2bNmtHOzk523F2+fJkmJiasWrUqAwICOHjwYDo4ONDPz4+1a9dmlSpVGB4ezn379vHkyZP8/PPPCYAmJiaykYihoaGsUKECAXDKlCmvHJ06a9YsampqslmzZpw9ezaVSiVtbW3Zo0cPamho0MfHR3rfJ0+eTACsUKECBw8eLJ2TfvnlFzo6OhIA7ezspM/CyZMnpVHgxX/VqlWjUqnkhAkT+OjRIxYWFnLWrFmsXr06tbW1+cknn/DSpUt8+vQpu3fvLq3XoEEDrlmzhidPnqSZmRktLS2pVCrZsmVLVq1alRs2bKCBgQGdnZ0ZHh7OhISEl+53dHQ0mzdvzipVqnDSpEkMDw9nt27dqK2tzTFjxshGjBaPcn3Rn56eXqmOhdzcXGlUa6NGjahUKmlpaUlfX18CoLm5OadMmcKMjAwuXLhQdh5Zv369VM6BAweora0tfbc5OTnRxsaGU6ZMkUbqhoWF8cmTJySLRmWamprKPteNGzempqYmAwICpFGojx49orGxsfQdpVQq2aBBAwYGBtLBwYFGRkYMDQ3lkSNH+Ouvv7J69eoEQGdnZ27ZsoUkmZCQwE8//ZQKhYLa2trs27fvKz+Db0KDJMs82nuB06dPw9XV9bUmBiwrUVFR0oODNTQ0pMnycnNzsXXrVlleS0tLtGrVSnr96NEjqZ9M06ZNYWtrq1Z+YWGhNEigXbt2ap3ST506hX/++Qe6urro0qVLiesV69GjBzQ1NdWW2djYwNPTU5Z327ZtUKlUaNmypdpVj61bt0q/sorLvH79Ov7++28ARaOniieQ3bVrl/Sr+tlf+5s2bQJJODg4ICcnB3fv3pXKt7CwgJeXF/Lz8xEZGSnbds+ePV94OTspKQlHjhyRpbVv3/6lAwBu3bolTTBZq1Yt6bbEnj17kJ6ejipVqqiNgvv999+lX9eurq6oU6eOtOzSpUs4f/48AMDY2Fi6OhMdHY2EhATpGNm+fbvsCquzszPq1av3wnoWe349oGik3vMzsL/Mli1bUFBQIFvvypUr0iSMHTp0wJ9//im7zVF8jGRkZEidqwHIjruvvvoKCQkJ8PX1BQBcvHgR0dHROH/+PJ48eYIdO3ZAV1dXNpFs8Xt98OBBtdsqxe/1H3/8IT0P8Nlja+fOncjKyoKVlVWJo/WeV/xed+rU6aXnimvXriE4OBg3btwo1VWzZ4+76tWro3nz5gCKHp5efGWhdevWasdm8Wd+//79sj6UdnZ2aNy4MTIyMtCzZ0+0adNGuiKXkJCA7du348yZM3B3d0d0dLT0fhZzc3ODvb292vmnatWqaNmyJa5cuYJt27bh2LFj6Nq1Kzp37gxzc3PExsYiNDQUxsbGCAoKemXn7IKCAmzZsgUbN26ESqWCnZ0dunXrVuIt3WPHjmHWrFnw8vJCcHDwK9sUAPbu3YvIyEgUFBRIE/aGhIQgPj4efn5+aNWqFSwtLfH06VMsXrwYp0+fRuPGjdGlSxe4ubkhOTkZ33zzDeLj4zFx4kRUqFBB9rBvIyMj6Vj97bffZFefn/9clyQqKkoa3OLu7o5evXoBKDo/hIWFoUmTJhg6dKja+96iRQtYWVnJzhXA/59/UlNT4e/vj44dO0qjUnfv3i11mjc1NcWlS5fU+lh6eHjA0tISu3btkqVbW1ujWbNmyMzMlJaZmJhIE5k++z3k6elZqm4wx44dk64Wv2i9Z8/9z3v69Cni4+Ol/rmlUfydARQ9CN3Q0FAa2Vl8Hnn2XAEUPZXg2W4z9+7dk/Vl7dmzJzIyMmS38ou/M5KSkvD48WM4OzvjxIkT0ndUjRo11LobpaSkyK7gP3uOiYyMRH5+fokjcM3MzNC2bVuQVOvrWzzDQ5kq81BPEIRya9myZaxZs6Z0VfZZ6enptLa25tChQz9AzV7f/fv36eDgwJ9++umD1sPX17fENlOpVFy1ahU1NTXf2/NG39aTJ09oaGioNleeoK74ylhJ9uzZQwA8fPjw+62U8D/hPzUqUxD+6y5fvozCwkKoVCq1ZXfu3EF2drbsMVzlVUpKCnx9fdGpUye1/prv28WLF0FSrQ9QcZ8iIyOjf8WzhLOysuDn54fevXuXOGJQkLt48SIKCwvV+o/m5ubixo0bMDIyKnGUsyC8ynu9lSkIwoeVkpKC9u3bIzExUW2kcHR0NKZNm4bRo0d/oNqVXkZGBk6ePCk9s/ZD+vPPP+Hr64uaNWvKnrf38OFD5ObmIiwsTLptWp6lpaVh/vz573wKi/8VR44cQadOneDs7CybWDsxMREaGhoIDg5G586dP2ANhX8rEZgJwn9Mfn4+VCoV1q9fD6BoZG5xH8TSzpUkyOXm5uLgwYNSvzwNDQ3069ev1JOVCv9OKpUK165dk0bHKxQK9O7dGzo6OmrTxghCaYnATBAEQRAEoZwQfcwEQRAEQRDKCRGYCYIgCIIglBMiMHsDly5dwrx587B27dpS5SeJsLCw15oLRig7GRkZOHfuHEJCQnDx4sX3ss2cnBycOXMGEyZMkGbBftcePnyIc+fOSY+I+Tc5fvw4QkJC1OZ+e9euXLmCrVu34uzZs+91u28iJSUF586dK/XxdP78eVy+fPkd10puw4YNOHz4sCztyZMnWLlyJW7evPle6yII/1ofbqaOf6czZ87Q0tKS2tra7NmzZ6nWyc3NlWZD/l/y8ccf093dnW5ubiX+LV26VDbD9Icyffp06uvrEwC3b99e6vXS09O5b98+Dh48+IXzFb2In58ftbW1CYDZ2dmvW+XXlpCQQFdXV2lW63+TrKws6QkXFy9efG/bXbp0KatWrUoA0hMTyrMePXoQwCvnbUtJSaGbmxs1NDRob2//nmpHxsbGUk9PjwYGBlLazz//TBsbGwLgV1999d7qIgj/ZuKK2Wvy8PDAgwcPSjX7ezFtbW3s3r0bGzdufIc1e//2798PNzc3xMXFwc/PD/PmzZP+zMzMMGbMGLi5ucmeFvAhzJkzB9u3b3/t9YYPHw5vb2+Eh4fLZoEujV27dmHs2LGvvc03VbNmTcTFxZX5A7rfB319ffzwww9YtGhRqWYzLyujR48u1RMDyouvv/4avXr1Unv6x/MMDAwwb948ODg4vKeaFXFzc8PcuXMxadIkKa1ly5b47rvvpGcTviunTp1Sm0lfEP6txDju90BDQ0N6pMj/GisrKwCAu7u7bB99fHzQq1cvbNmyBTt37vxgD68vVlzP17Fq1SqEh4ejWbNm722b/1XPPqZMKJmtrS0iIiJemU+hUMDX1xdbt27FoUOH3kPN/t/48eNlr+3t7WFvb//OA7Pt27f/KybxFYTS+E8FZiqVCvv27UNcXBw++eQTWFpaIisrSzY5IABkZ2cjMTFRel25cmUYGRm9sNzU1FQ8fvwYhw8fRo8ePWBsbKyWp3iyyWe/rPPz83Hnzh1YWFjAwMAA9+7dk2YPr1SpEkxMTNTKycnJkT37zNTUFIaGhvjnn39k9czKykJ8fDxu3ryJhg0bonLlytDT08Pdu3dRoUIFVKlSBUBR/6uHDx9K5RXX5W1pamrC0dERQNGz9J4NzJ7ta1KlShVUqFChxDKSk5OlZ7hZWlq+8LmJiYmJyM7OBgBUrFhR7f18Uzo6OtDR0SmTyTZTU1Ol5yyampqWeIwAwD///CM9T7Gk466goACPHz+GhYUFnjx5gtTUVNn7+aynT59Kz7W0srKS5ijLy8uTXcUs7TKgqL9kcnKytL3itn/+eE1LS0NKSor0+tn35dnj3NraWprnKzExUXrm4Ks8W09dXV1Uq1atxHwqlQr379+XXtvY2Lx0fqn79+9LT0WoXr06dHR01PI8fvwY6enppSozJSUFaWlpAP7//Xzw4AE0NTVl79mzn+uXfQazsrKgq6v72nNkZWVlISkpCVpaWi+9KpmZmYnk5GTo6OiUGOjk5OQgJydHeq9v376NqlWrlsn8d+np6dLzE5+v54uW5eXlYd++fVixYgUmTpyImzdvwtDQEObm5tK6SUlJMDc3f+fBoSCUmQ99L/V9SUhIYMOGDdmwYUMGBgaydu3arFevHn19fWX5Ll68SFdXV3p6ejIwMJA1a9Zks2bN+Pfff8vyNWjQgP7+/lywYAFr1KhBhUJBHR0d2tnZcceOHVK+9PR0+vv709zcnK6urlJ6ZGQkGzVqRABct24dx4wZw0qVKlGhUFBLS4suLi68d++ebJtXr15l9+7daWpqysDAQDo6OtLe3p5NmzalQqFgnz59pH3w9fWlhYUFAwMDaWdnx1q1arFRo0ZUKBTs2rUrSfL06dN0cnKijY0NAwMD2bJlS7q4uHDOnDksLCwsVbvOmDGDALhlyxa1ZVOmTCEAaXtnz55lz549aWtry8DAQFpZWdHFxYXR0dGy9QoLCxkSEkJzc3P279+fTZs2pZubG5VKJRMTE6V8Dx484OjRo2lubs7AwEC6u7vTysqKffv2VXsW5MWLF1+7j1kxd3d3+vv7v/Z6ixcvJgDOmjWL9vb2VCgUVCgUtLe355IlS2R5c3Nz2a9fP+rr67N79+60t7dnrVq1eOjQISnP0qVL2bRpU/bo0YMbN26U+u6YmpoyNTWVJOnj48OKFStSqVSyTp060nHp7u7ONWvWkCSTkpIYGBhIBwcHAuC5c+ekbRQvq1mzpmzZ/fv3OXz4cDZr1oxubm68desWx4wZQ3Nzc+ro6NDW1pbDhg2TygkNDaWmpiYBUEtLi6NGjZKWubq6EgC1tbW5ePFiTpgwgUqlkk2bNi1Vu/7zzz9UKpWsV68e27VrR1NTUyqVSs6dO1eW79q1a2zcuDErVarEwMBA6ujocMqUKbJj+86dOwTAQYMG0dvbm2ZmZtJneEKlnAAAIABJREFUsFWrVrxz546szL1799LGxoa9evXioEGDqKOjQ29vbyYlJcny5eXlcdasWbS1tWW3bt1Ys2ZNOjg4cPbs2axUqRL9/PxIkpmZmZw+fTrd3d3ZoUMHKhQKOjs788svv5TVMyIigt27d6eLiwtPnDhRqnYKDAykubk5J06cyHr16lGhUFBfX59KpZIXLlyQ5U1KSuLYsWNZt25dKhQKVqxYkYMGDeK1a9dIFvUDDA8Pp5ubG5s1a8a4uDgqlUpqa2uzTZs2LCgo4Jw5c6hUKvnxxx+r1UVbW1vWx2zFihVs2bIllUolvby8OHv2bO7fv58KhYIAWK1aNdn6hw8flo7XZ5ctX75cWkdbW5sKhYLW1tbS8tjYWJqZmTEwMLBUbSYI5cF/IjDLzMyklZUVa9WqxfT0dCl93LhxNDQ0lE6qsbGxtLCwUDvB16pVi61atZKlNWjQgADo5eXFnTt3kiz68nJ2dqapqamULyMjgxEREWzWrJksMDtz5gzHjh1LADQ3N2dwcDCfPHlCkty1axcrVKggO5moVCo2atSIpqamsuCka9eu1NXVZUxMjLSvzs7OtLCwkH3htmnThoaGhrxy5QpJMi0tja1bt2bz5s1lXwDLli0jALUT94u8KDDbt28fK1SoQG1tbUZFRTE1NZU2NjZqHdNHjRpFU1NTWRD6/fffEwC/+eYbKe3HH3+klZUV582bJ6V17txZrT0WLVpEAGoPYf6QgVm/fv14/vx5KX306NFUKBRSAJ+ZmUk/Pz/6+fnx8uXLUr527drRwMCA8fHxJMmtW7eyefPmBMB69erxxx9/5OzZs+nr68u0tDSSRYEZAHbs2JEPHz4kWdQZ/JNPPiEA/vHHH1L5u3btUgvMiu3YsUO2LCkpiREREXR0dCQAGhsbc+XKlXzw4AGTkpLo5uZGbW1tnj59Wipj1apV1NDQUPs83bt3jwB4/fp1pqenMyIigo0bN6apqSnv3r37yna1s7NjtWrV+PjxY5Lk48eP2bVrV9rZ2Ul5Ll26RACyADgxMZGVKlXiokWLpLTiwMzNzY2RkZFS+t9//82qVavKOs9v27aNALh06VIp7cGDBzQxMWH37t1ldRwwYADNzc2lzyVJent7EwB//vln3r59m2TR5xeA9B6T5LfffksAXLZsmZS2YcMG1qtXjwAYGhr6yjYiiwKzChUqcMyYMTx69ChJ8vLly/Tz86O5ubksmHR3d6ezszPv379Pknz69Cm9vLzYuHFj5ubmMjs7m4GBgaxevToNDQ3p7u7OBQsW0MvLi+7u7rx16xZHjx5NfX19Wef/Ys8HZseOHaOxsTEbN27M69evy/J27NhRLTAr1qFDB7VlT58+JQAuX75cLf/WrVsJgN26dStVmwlCefCfCMxycnLo4uJCHR0dLl++XPoVnJeXx+7du/PIkSMkyfHjxxMAfX19GRQUJP25ublRS0tL9ku1QYMG7Ny5M7OysmTbmjBhgiwwK9anTx9ZYEaSN27cIACuXr1aLb+dnZ0sMEtOTiYAjh07Vpbvzz//JADu2bOHZNFVAgDSL/Ji+/btIwBpH5KSkmhtbc2DBw/K8hV/Ib9uYObi4iJrLz09PVpaWkr7duHCBerp6cm+1Mj/P3E++8W0cOFCAuDIkSOlX+wk+dNPP3Hq1KnSa2tra44bN05WXmpqKgEwLCxMlv4hA7PnR2Xm5eWxXr16dHJyYl5eHjdv3iy9Z88ed8Vf2iNHjpTWLQ48iwOx5/n4+LBp06bMz8+Xpd+/f59GRkZs166dlPY6gVmxZs2aEQBv3rwpSz937lyJAXrjxo3p5OTEzMxMWdlDhgyR5Sve19KMyjQ1NaWpqSkPHjwotcPTp0/p7e0tfckPGDCAADhq1ChZmxoaGrJKlSpSWcWBWUmjMkNDQwmAmzdvJkkuWbKExsbGap/50aNHs1KlStLrlJQUWltb09vbW5bv4MGDBMARI0ZIaQ0aNOCAAQNkP45UKhXNzMw4fvx42frh4eEEIJ2vXiUwMLDEUZnx8fHU0tLi5MmTSZIbN26kpqYm+/fvz7i4OMbFxXHNmjVs27YtAXDfvn3SugMHDmStWrWkds7Ly5ONvHZzc3tlYHb8+HFaWlpy7ty5VKlUanlHjRr1wsBs5MiRrxWYFRYWMjk5We09E4Ty7D/Rx0xXVxdhYWHo3r07Ro0ahZkzZ6JJkybw9/fHmjVrpP4cO3fuhKamJgIDA2Fvby+t369fPwBFI9+eL/dF/Z5eh56e3ivzFD/H8OrVqygoKJD6mNy4cUOWT0tLCzo6OsjLywNJqX/U8/ksLCxw+PBhmJub49GjR/jtt9+QkZGBnTt3vtE+2Nvbw8PDAwUFBWjTpg2qVasGS0tLqR+Ni4sLYmJiULlyZTx69AiRkZHIzMzEjh071Mrq378/Dh8+jBUrVmDVqlVwc3NDjx49MGjQIFSsWFHKd/LkSWhoaODRo0d48OABDhw48N7mKXsb2tracHV1xfr165Gfn4+LFy9CS0sLTk5O4DNPSLOzs8P48eMREBAgW9/JyemF/fIAlPicvqpVq6J58+aIiorC/fv3X9gnqzRatWoFa2trWdqLjuHp06eja9euiIiIwGeffYb8/HwsXboU33777Rtvf/r06ZgxYwbatGkDOzs7DB06FO7u7ti5cyd0dHRQUFCAuLg4ODg4QEdHR9amQ4YMKdXnDQB69OiBCRMmYMuWLfD390dAQAA6d+6MgoIC3L59G5GRkQCgNuI3IyMDiYmJqFWrFgoLC6W+TcWfxWfrExERAUtLS6SkpCAjI0Mqs7ifW0muX7+OVq1alWofSlK7dm3UrVsXmzdvxvz58xEZGYnKlSvDzMwMa9askfK5urrC1dVVrb369esnnR+ffxZou3btkJCQUOJ2s7KyEBwcjOXLl2PcuHGYNm3aG+9DaWloaMj6mwnCv8F/IjADir5MEhISsHLlSmzduhV79uzBnj17sGDBAhw+fFj6otLU1ETXrl0/cG3VmZmZITAwEN9++y1mzpyJOXPmYNOmTZg+fTrc3NzQsGFDAEVf5j179sT69esRGhqKiRMn4tixYwgJCUGzZs1Qp04dqcxt27ZhwYIF0NDQgJeXF9q3b4+WLVviyJEjr12//v37o3v37i/Nc+nSJcyePRuJiYlo3bo1dHR0oFQqcfToUVk+CwsL7NixA/v370dYWBh+//13nDp1CvPmzcPKlSul7Vy8eBELFy7EoUOH0KRJE9SoUeO9TrfwNjw8PKSHiANFAXVpJyCuX7/+Gz8YOyMjA3l5eW+0brGKFSuWuvN5p06d0Lx5cyxYsACfffYZYmNjkZ2dLQ0MeRPjx4+Hn58fli9fjm3btmHKlCkAgD59+mDevHnIyclBTEwMunbtWiaTOhcP2jA2NkZwcDD27NkDQ0NDacocfX192WAAa2trBAcH44svvsCCBQswdepU3LlzB4MGDYKBgQFGjhwpK3/ixIn48ccfUadOHdStWxcAXvoeFdfnVV42ItPDw0M2EayVlVWZtNXLpgQKCQmR/j948CDGjh37wkEwgvBf9p8YppKdnY2hQ4dCX18fU6ZMwcmTJ3Hjxg3069cPV69eRf/+/aWRcCRloxTLi7y8PFSpUgUODg44evQo2rZti7CwMHTq1AkHDhyQ/SqsXbs2nJycsHPnTrRt2xYzZsxAr1698Pvvv6NSpUoAgAMHDmDixIlo0qQJ/vnnH0RERKB///7w8PB4J/Xfu3cv/P39YWtrK21v7dq1UkD5rOKZ2H19fbFz5048fvwYkyZNkq5m3rp1CzExMejSpQt0dXVx8+ZNnDhxAhEREZg+ffo7qX9ZezYoA4Dc3Fxs2rTpnW0vLy8PqampqFWrFkxNTd+qrFOnTiEjI6PU+bt3744bN27g7NmzWLx4sWyeq2cZGhq+9EpgsVmzZsHOzg4rVqzAzZs3pc/Dhg0b8PXXX8PS0hI1atTAjh07Xquez0tOTgYANG3aFFlZWejZsye2bNmC0NBQxMXFISIiAhEREejUqZPaun5+fjAxMcGWLVugr6+PJk2aoH79+jh48KD04+jevXtQKpWIiopCdHQ0YmNjpTKfvTL8PAsLi1LV/2VX1Z4//uLi4srsavOL6tevXz9kZ2cjPDwcp06dQlBQUJlsTxD+1/wnAjMNDQ0cPXoUEydORF5eHrS0tGBnZ4fvvvsOtWrVwv3791FYWIhZs2ahoKAAX331lRSoAcCjR48wduxYJCUlfbB9+PnnnzFz5kwMGjQIv/zyCyIiInD06FEsWbJEFpTt2LEDc+fOxahRo7BmzRps2rQJx44dw8KFC2W/Tn///XeQxMiRI6GrqwugaHqFU6dOASg6UZel4u2NGjVKGlqfnp4ube9Z8fHxGD9+PLKysqCpqQlTU1MsWLAA3t7eSE1NxcOHD3Hr1i3k5ORg4sSJqFGjhnQF58SJE2Va77Lw7NQrAPD333/j/Pnz6NmzJ3R1ddGzZ0/o6elh7dq1suMuJycHs2fPxpkzZ15re2fOnEF8fLws7ejRo/jzzz/h4+MjTcGhr68PTU1NtUeLPXny5KXzZXl6esLQ0LDU9Smemmbo0KG4du0a2rdvX2I+Ozu7Us399s0332Dbtm0Aim7btmzZEqtXrwYAXL16FSYmJujSpQsKCgrUjoebN2+WOGfar7/+Kmt7lUqFuXPnQkNDA927d8fNmzexfft2tG7dGj169JCuWD58+BBbtmyRlXXv3j20aNECQUFB2Lt3Ly5evIiYmBj89ttvaNKkiZTvp59+QnJyMhYuXCi7ChobG4usrKwX7n+LFi1e2UZA0VXY/Px8tcdcbdiwASqVCp9++imAoluWhYWFstuYQNGP1Llz5yI1NVWW/rJg183NDVWrVi1xmaOjI/T09BAYGIhly5bh119/xdChQ0ssLz8/X5oCBwAKCwtx7NixUs3j9qzCwkLcvHlTdkVTEMq9D9e97f0KCgoiALZq1YqHDx/mzZs3+emnn1JfX5/79+8nWTRIoHfv3tTU1KSPjw/Dw8M5Y8YMVq9eXRrJdefOHS5cuJCGhob08PCQdSY/dOgQvb29qa2tzZkzZzI+Pp7p6en8/vvvaW5uTgMDA6nz+/HjxxkYGEgAbNOmjayTdUhICPX09FitWjWGh4czOzubCQkJtLe3JwACoKWlJZVKJceNG8dffvmFeXl5JMnz58+zevXqUr7q1atTqVTS39+fERERUr5vv/2WGhoa7NixI8PDw7lo0SI6OTlJQ8+7dOlClUrFq1evvrBNjxw5Qj8/PwJgu3btSuxEXmz58uXU0NBg586dGR4eztDQUDo6OkrbCw0NpUqlYkFBAS9fvkwNDQ3WqVOHGzdupEql4qVLl2hhYcF27doxPT1dGiHn5OTE8PBwhoeHS9MdaGpqsmnTpkxOTmZeXh5VKhWHDRsmdbwubUdglUrFdevW0dbWlpUrV+aWLVtK7Kz8IsOHD6empiYrVarE77//nhcuXOCsWbNoZWVFMzMzaVQhWdRRW1NTk+3bt2dUVBQvX77Mnj17MjAwUOrgnpiYyIYNG9Lc3Jxbt24tcUoTHx8famtr097envPnz+f169e5YMECacqU4lF3xZo0aUIdHR3OmjWL4eHhHDFihDQNBQDOnz+feXl5LCgo4MOHD1mzZk2amppyw4YN0vbz8vI4cuRIAuDcuXPVpiohydmzZxMAv/jiC1l6YWEhMzIypFHOkZGRLCgoeGm7Dhw4UBq1fO3aNapUKk6aNIlaWlrctm0bSTI7O5sODg40MjLi8OHDeevWLYaHh9PT01M2crS487+Ojg4///xzHj9+nHv37mXPnj2poaEhDbbJzMxknTp1WLlyZW7evJlnzpzh5MmTWa1aNWppabFChQpMSEhgbm4uHz16JE1lYmdnR6VSSaVSye+++46//vqr9Bk8ePAgNTQ06Ovry/Pnz/Ovv/7ipEmTaGVlRQ0NDXbo0IEqlYr5+flUqVScMGECAXDIkCFSGS/TqlUrAqC/vz+vXLkiHc+VKlWiu7u7NCjl8ePHbNSokXQcZGdn8/Tp0wwKCuLAgQOZl5fHwsJCqlQqVqtWjRYWFrxz547a+3T79m3Wrl2bBgYGUr3z8/Olz36/fv2kz09eXh6dnZ0JgC1btmRKSop0PD1/rggPD2enTp3o4OBAZ2dnGhsb89atW9L2nz59Sk1NTTZp0kR6n4tHtG7atEkapSwI/xYa5DM9Uf+H3blzB1FRUcjMzJQ62JqYmGDixIlwd3eX5T116hS+/vpr6RfbkiVL4OTkBACIjo7GjBkzpLzOzs5S34wFCxbI+meNHj0aDRo0wMCBA6U0Y2NjREREYNmyZdizZ4+UPnjwYHTr1g1AUb+cZ/uYbNy4ERUrVsSpU6fQsWNHhISEICoqCsnJybh8+TJu3boFW1tb/Pzzz/Dy8sLq1asxadIk2W3Cffv2gSQcHBywbt06NGnSBFu3bsUPP/wAoKjf0IQJE9CoUSOEh4fjt99+AwCMGzcO7dq1K7FNv/nmGxw4cEB67ejoiKVLl77wPdiyZQt++uknqR0mTJgADw8PTJo0CefPnwcABAUFoW3btli2bBmys7Nx8uRJaTLSFi1aYPz48dKAi++++042eGDQoEHw9/fH+vXrsW7dOgBA27ZtcfPmTVy/fl3KV6dOHXzzzTcvrCdQNJFrhw4d1NItLCzUriy8yOLFi1GtWjXY29sjNDRU+tXu4eGB8ePHS7eVi508eRJff/01Dh06hFq1auGzzz7D8OHDpeW9e/eWJisFiq6iPj8ha3BwMJo3bw4rKyuEhoZKt+NcXFwQFBSkdjXj7NmzCA0Nlfot1a9fH0FBQbh+/Tp69eqF27dvIyAgAJMnT8bkyZNl665cuRK2trZYvHgx9u/fL6XXqlULy5Ytk+XNzMyEoaEhUlNTZVdu7969i8GDB8vyzps3Dw0aNHhhu8bGxmLz5s3Q0dHBjh07EBMTA6VSifHjx6tdDfvuu++wadMmXLt2DfXq1cOcOXNkn4tHjx6hf//++Omnn7Bo0SJcuHBBWta3b1988skn0uvz589j0qRJuHTpEnR0dNC+fXtMmDABN2/exNy5c/HHH39gzJgxWLJkCf755x/Y2trio48+gkKhQFJSEmJiYgAUDZRZu3YtmjVrhsWLF+OXX35BbGwsWrZsie7du2P06NGYPn06VqxYgfT0dCxduhSxsbGyiaW7deum1m7P69SpEzp27IgHDx5gx44diI6Ohp2dHXx8fDBhwgTZAKcnT55g0aJF2LVrF+Li4lCrVi2MGTMGI0aMAADpNnjVqlWlq5rTp0+Xrt7dvHkTI0eORGFhoVTmsGHDcPnyZdk5UU9PD1u3bsXEiRNlbQ3Iz7MLFy7E+vXrce7cObRu3Ro9e/bE559/jlGjRmHFihUAirpjtG3bFkDRFc8VK1YgJiYGXl5emDBhAj766CNcunQJH330EaZMmfJeH5EmCG/jPxOY/dslJCSgTZs22LRpk+x2SEZGBqKjozFs2DDY2NggJCQELVq0wJ9//glXV1cp38OHDxEbG4shQ4agUaNG77Q/k/B2njx5AgMDgzKZTf1tZGRkIDs7G7q6ui/t81Qax44dw8qVK7F+/foyeZJCMZVKhfT0dJiamr5wQEJhYSEyMzNf+vSO15GRkQENDQ3Z7Pwk8ejRI1SuXBmpqalo0qQJBgwYgClTpkBTU1Oq57lz5zB58mRYW1tj69atL92HJ0+eID8/H5UrV37rNsvNzUVaWhr09fVfehu6uC4GBgZq/f3S0tKgq6tb6lGtbysnJwdPnz6FmZmZNLK1+JgEoDbaMj8/H2lpaWpP/khPT4eRkVGZHneC8C6JwOxfYtGiRVi3bh1OnDihdsLMzs5Gx44doampiaZNm2LhwoXSSfRZBQUF8PT0hK2tLTZv3vw+qy/8x2RnZyM/Px9GRkZ48uQJfHx8EB4eLvux8L9qxYoVGDt2LDIzM9U+g0DRVeFLly7JrpgLgiAUE4HZv0R8fDzatGkDZ2dn2S2MlJQULF++HObm5li7di0ePnwIHx8feHp6om/fvlK+pKQkbN26Fbq6uli9enWpn0koCG/C29sbFy9exPDhw6VnQ77sNvf/ktjYWHh7e8PDwwOjRo2Cj48PgKJb+TExMfjhhx8QFhaGnj17fuCaCoJQHonA7F8kNzcXa9euxebNm6WRTL169YK7uzs8PT2ly/3Z2dlYu3YtNm7cCJVKBTs7OyiVStSvXx8eHh7iYb7CO3f27FnMnz8f9+/fx2effYYBAwb8p467S5cuISoqClu2bJH6XVWsWBH+/v7o1q3be7sdKAjCv48IzARBEARBEMqJ/85PWEEQBEEQhHJOBGaCIAiCIAjlhAjMBEEQBEEQygkRmAmCIAiCIJQTIjATBEEQBEEoJ0RgJgiCIAiCUE6IwEwQBEEQBKGcEIGZIAiCIAhCOSECM0EQBEEQhHJCBGaCIAiCIAjlhAjMBEEQBEEQygkRmAmCIAiCIJQTIjATBEEQBEEoJ0RgJgiCIAiCUE6IwEwQBEEQBKGcEIGZIAiCIAhCOSECM0EQBEEQhHJCBGaCIAiCIAjlhAjMBEEQBEEQygkRmAmCIAiCIJQTIjATBEEQBEEoJ0RgJgiCIAiCUE6IwEwQBEEQBKGcEIGZIAiCIAhCOSECM0EQBEEQhHJCBGaCIAiCIAjlhAjMBEEQBEEQygkRmAmCIAiCIJQTIjATBEEQBEEoJ0RgJgiCIAiCUE6IwEwQBEEQBKGcEIGZIAiCIAhCOSECM0EQBEEQhHJCBGaCIAiCIAjlhAjMBEEQBEEQygkRmAmCIAiCIJQTIjATBEEQBEEoJ0RgJgiCIAiCUE6IwEwQBEEQBKGcEIGZIAiCIAhCOSECM0EQBEEQhHJCBGaCIAiCIAjlhAjMBOF/SGFhIfLz8z90NQRBEIQ3pP2hKyAI5VlGRgaioqJeuFxbWxtt27Z9jzUqWXp6OqZOnYrY2FhoaWnh2LFjr7X+/fv3ce7cOTg4OMDBweEd1VIQBEF4FRGYCcJLqFQqxMTEYP78+UhPT4eTkxN0dXUBADk5Obh27RoaNmyI3bt3w8LC4oPW097eHocOHYK5uXmp17t37x5CQkKwdu1apKenY/bs2QgODn6HNRUEQRBeRtzKFISXMDMzw9SpU9GqVSsAwM6dOxEXFyf9zZgxA3///Tfat2+P1NTUD1ZPc3NzBAUFoUaNGq+9rq6uLgIDA6GpKU4HgiAIH5o4EwvCG9LT00NwcDAaN26Ms2fPIjo6+kNX6bVZWVlh0aJFWLRoEbS0tD50dQRBEP7zxK1MQXgLOjo6qFKlCgAgPj4ebdq0QWpqKn755RdcvHhRyte7d294eXmprX/q1CmsXr1aet2zZ08YGhqiSZMmsnyHDh3Cxo0bpdeenp7o3bs39PT0yniPBEEQhA9JXDEThLdw7949HDx4ELq6uujYsSMKCwvh5+eHpUuXYvDgwZg8eTIUCgX8/PywePFi2bqbNm2Cj48PKleujMmTJ8PT0xN9+/ZF+/btkZWVBQDIz89HUFAQevfujZo1a2Ly5Mnw8PDA2LFjMXTo0A+xy4IgCMI7JAIzQXgN+fn5yMvLQ15eHtavX49u3bohJycHM2bMgK2tLX7//XecPHkSixYtgoeHB+zt7bF8+XK0atUKkydPlpX1yy+/ID09Hf3794e9vT0GDBiA3bt3Q0tLC0eOHAEA3LlzB9988w369OmDSZMmwd7eHoMHD8a0adOwadMmnD9//gO0giAIgvCuiFuZgvAanJ2dpf+NjIzw0Ucf4dixY2jevDkAoHbt2hg0aBB8fHxk69na2qqVZWVlBQBwd3dHUFAQOnbsCA8PD0RFRcHIyAgAYGFhgYEDByIoKEitvJycHKSnp5fp/gmCIAgflgjMBKGUGjVqhN27d0uvtbW1UalSJVkeBwcHLF68GHPmzEFaWho2btwIAwMD5ObmqpW3bNkymJmZYdWqVZg9ezbmz5+PGjVqYNq0aejfvz8AwMDAAKGhoTh9+jSWLVuGXbt2obCwEJmZme92ZwVBEIQPQtzKFIRS0tHRgbm5ufT3fFAGAGfOnEH9+vXx119/wc3NDQcOHMCBAwcwbNgwtbwqlQpz585FbGwsNm/ejK5du+LOnTsIDAzE8uXLQRLJyclo164devXqBX19fWzcuBEHDhyAr69vme7b5cuXUVhYWKZlCoIgCK9PXDEThDKSmZmJ/v37w8TEBDt37pQmon2RgIAADB8+HL6+vvD394e/vz/i4+Ph5+eH0aNHY/DgwZgyZQpiYmJw/PhxNGvW7J3V3cjICBoaGu+sfEEQBKF0xBUzQXiF/Px8pKSkID09HdnZ2S/M9/TpU9y7dw/JyclQqVQAgEePHmHSpEmYPXu2Wn4LCwsMGTIEly5dktJsbGygpaWFypUrQ1NTE/Hx8dDS0oKJiYmU5/fff8eaNWvUysvLy0NqairS09ORk5PzWvt47949ccVMEAShHNAgyQ9dCUEorx4+fIgRI0Zg8+bNAAA/Pz+sWLHihTPsT5s2DSEhIbC1tZUmbG3SpAlycnKwd+9e9OrVC46Ojhg6dCgePHiA+vXrw8jICH369IGFhQXWrVuH9PR07NmzB+7u7ti1axcGDhyIrKwsWFpaQktLC46OjrC2tsaPP/6IFi1aoHXr1vj0008xceJEREZGAgA6duyIsLAwWFtbv3T/Tpw4gV27dmHVqlVITk5GpUqVEBAQgObNm6NPnz5l15CCIAhCqYjATBBeIjMzU21Gf1dXV9kVrGeRxPHjxxEdHY3CwkL4+vqiTp06AICYmBiEhYVh4MCB0ijOqKgoFBYWoqCgAOvXr0fDhg3h7e0Ne3t7qczExET8+OOPSEtLQ7du3eDp6QkAOHjwIDZs2ICWLVugPrAhAAAgAElEQVSiU6dOOHfunKwu9evXR8WKFV+6fxkZGTh79qxaupmZGVxcXF7ROoIgCEJZE4GZIAiCIAhCOSH6mAmCIAiCIJQTIjATBEEQBEEoJ0RgJgiCIAiCUE6IwEwQBEEQBKGcEIGZIAiCIAhCOSECM0EQBEEQhHJCBGaCIAiCIAjlhAjMBEEQBEEQygkRmAmCIAiCIJQTIjATBEEQBEEoJ0RgJgiCIAiCUE6IwEwQBEEQBKGcEIGZIAiCIAhCOSECM0EQBEEQhHJCBGaCIAiCIAjlhAjMylBeXh6uX7+Oo0ePfuiqlEuFhYVISUmBSqX60FX5V1GpVEhJSUFOTs6Hrkqp5OfnIyUlBRkZGW9VTlZWFjZu3Ijc3Nwyqtm/U2ZmJlJTU9XSnz59ivT09A9Qo/9X/F7n5eV90HqUpKCgACdPnsSuXbveqpy0tDRs3LixjGolCK/2nwjMdu7ciQ4dOpT4N3HiRGzatAnXr19/q23s378fLVq0gIODA7Zt21ZGNS87y5Ytk+33mDFj1PJMnDhRWt6vX78y3f73338Pb29vmJmZ/atOcrNmzZK127p169TyfPXVV9LyLl26lOn2N2zYgMaNG8PMzAzffvttmZb9rpw7dw5mZmb4/PPP36qcOXPmoHfv3ggKCiqjmv27qFQqDBs2DM7OznB3d5ctS09Ph4ODA+zs7JCYmPhB6jd//nx4eXnBzMwMhw4d+iB1eJG4uDi0bdsWzZs3x6pVq964nB49esDKygoBAQFlWDtBeLn/RGBmZ2eH+vXrY+/evTh16hQ6deok/eXn52PmzJmoU6cOAgMDkZaW9kbb8PLywqBBg1CxYsUyrn3ZqF+/PgBg9+7dqF69OgYOHKiWp0WLFkhMTMT58+fh7e1dptuvV68e2rVrV6Zlvg8ODg4wNDTE7t27YWJigtq1a6vlady4MWJjY3Hjxg106NChTLfv6OiIoUOHlmmZ75qNjQ38/Pzg4+PzVuV89NFHaN26NcaOHVtGNft3IQl3d3fY2tri1q1bOHHihLRMoVCgdevWaN26NSpUqPBB6ufh4YFWrVp9kG2/Sr169TBo0CDUqFHjrcoZNWoUPv7447KplCCUFv9DDAwM6OzsrJaekZHBtm3bEgBbtWr1VtuoUqUKx44d+1ZlvCvBwcEEwM2bN78wj7+/P+fMmfNOtn/v3j0C4Jo1a95J+e/KkiVLCIArV658YZ6hQ4cyODj4nWxfpVIRABctWvROyhfKtyFDhtDS0pJPnjz50FVREx0dTQDcu3fvh65KiRo1asSuXbu+VRlz586lpqZmGdVIEF7tP3HF7FndunVTSzMwMEBkZCS8vLxw7NgxfPfddyWum5+fj7y8PBQWFr7RtkkiLy8PBQUFL833bPkkkZ+fX2JdXlXOmzI0NHxlnvz8/BLrVVK+0tbzTdq3sLCwVP1bissuRvKdtd/LFBQUlKrdSpuvOG9pjqtnlabdio/XZ/MVFhaWejulyfcuj+OXKd7/vLw8kCz1enl5ea98X4rLfjZfQUHBax3Xz7+fxVey38SL6lva4/B12+hVitunpPe9eHsl1a142cvqU1z2m56jgZKP+5d51XmLpGzZ6xxDz+5rScfQs/lets+FhYVSOaXZv/z8/LdqQ+Ht/OcCsxepWLEiZs6cCZL46aefZB2OU1NTMXToUFhZWUGhUKBhw4b46quv8PDhw1KVTRLTpk2Dn58fFAoF7O3tMWbMGCQkJMjynThxAhMnTsSgQYOQlZWF5cuXw8vLCxYWFpgzZw4ePnyICxcuYMiQIahWrRpsbGwwderUMm2H56WkpGDTpk0ICAjAokWLEB8fj88//xzW1taoXr06hg4dWmLH5MePHyMwMBCWlpawtbXFqFGjcPjw4RK3cenSJQwbNgzW1tZQKBRwd3fH3Llz1fLt3bsXgYGBWL16NYCiPkju7u5QKBQICgrCjRs31Na5e/cuAgICULFiRRgYGCAgIAC7du1C//794eTk9HaN8xJPnz7F9u3bERAQgEOHDiEhIQHjxo1DzZo1YW5ujgEDBpR4/Fy+fBkjRoyAjY0NqlWrhiFDhmDfvn0lbiMhIQFjxoyBvb09FAoF6tati2nTpslOqA8fPsTevXsxYsQILF++HCkpKZg/fz6aNm0KhUKBwYMH48qVK2plx8TEoHPnzlAoFFAoFOjduzciIyPRsWNH2NraIjMzs8Q6JScnY/369ejatSsGDBggpf/5558IDw9HQEAA7t27hzNnziAgIADGxsaoU6cOfvjhB9mX1blz5zBv3jwEBATgzJkzL23rQYMGISAgQPrbvn07AEjbKP47fvw4AGDVqlVo1aqVtG8ff/yx2jYuXryIhQsXIiAgAFFRUTh9+jT8/f2hUChQtWpVhISEICUlRa0us2fPRv369aFQKGBjY4Phw4dj+/btsLW1LVW/zVOnTiEgIABGRkZwcXHB1KlTcefOHbV8xeeKL7/8Ukp7+PAhfv31VwQEBCA2NlY6V1SvXh0BAQG4fPkycnNz8d133yEgIADVq1dHv379Suyjdu3aNdmx1b17d+zdu7dUAdoXX3wha/ewsDBpWVRUFFq3bg2FQoF69eohICAAc+bMkZb36tULCoUCFStWxIULF2Tl9ujRQ3rPDh48qLbduXPnSueD5s2b4+uvv37trin79u1Dhw4dpO0MHz4cV69eLTFvSd8LISEh0vLr169jxYoV+Oijj/DNN9/g6tWrCAgIgL6+PkxMTBAcHIz79++rlbtixQp4enpKdfD19UVAQACcnJzQtm1bKV9kZCQ8PDzg6emJmjVrws3NDbNmzZKVFR0djZkzZ8LNzQ1RUVGIjY1F165dpbJHjx6N7Oxs2Trp6emwsbFBly5d1JYJ78kHuEr3wRgYGHDGjBkvXJ6ens6aNWsSABMTE0mSqampbNasGT/++GOeO3eOycnJ3LNnD62srNivXz+1Mp6/lalSqfjRRx/R09OT//zzD5OTk/nXX3+xadOm/Pjjj5mRkSHl7dGjB42MjKijo0NLS0t2796doaGh7N27N/X09GhsbEwzMzP269ePoaGhHDt2LHV1dTlz5sxS7X9pb2UuWbJEen3mzBk6OTkRAGvWrElLS0vOmDGDoaGhnDBhAnV0dDhgwABZGdHR0TQxMaGjoyN37tzJ6OhoTp06lXp6emq3Ms+fP8+KFSuyX79+TE5OZnJyMkNCQmhgYMAvv/xSyrdv3z66urpSR0eHDRo0oJeXF4cMGcLQ0FB+/vnnBMAGDRrI6nHhwgUaGRmxcePGvH37Nu/evcsWLVoQAIcMGVLqW4Nvcivz6tWrdHFxIQB+/PHHdHNzY7du3RgaGsrp06dTX19f7fg5efIkK1WqxHr16nHLli1MTk7mokWLaGBgoHYrMzo6mlWqVGGHDh2kdtu7dy+NjIw4ZswYKd/Ro0fp6upKPT091q5dm9bW1vz000+l40dLS4teXl6yehw/fpy6urrs3Lkzr169yuTkZPr4+BAA+/bty4iICBYWFpbYDocPH5a298knn0jpn3zyCWvUqEEA9PDwoJOTE7/++muGhobSzc2NAPjHH39I+adPny4dd7/99ttL35/4+Hgpb1hYGDMzM0mSOTk5DAsLo52dHePi4pidnc3169fTyMiImzZtktptzJgxVCgU3LVrl1TmnDlzWKdOHQJg/fr12bBhQ06dOpWhoaH09fUlAIaGhsrq8cUXX9DAwICRkZFMTk5mbGwsra2tqauryy+++IKnT59+6X6sWrWKCoWC7du355EjR3jkyBH6+vpSQ0ODpqamvHv3Lkny+vXrdHd3p5GREZVKpbR+cHAwa9WqRQB0d3eng4MDZ82axQULFtDExISGhoY0MzOjnZ0dFy5cyJkzZ0rdO4rbjCT//vtvWlhYcOzYsVIbjRo1igC4fv16WZ1LupV54cIFAmC9evUYFhbGtLQ0kuTGjRupo6PD6dOnMzk5mbdv36aPjw8VCgUvXLhAkkxLS+PKlSsJgAcOHJBtKy0tjfv27VNblpOTw4YNG9LAwIAhISFMTk7m1q1b2aBBAwIo9a3Mffv2UU9Pj3379mV8fDzPnDnDKVOmUFdXV+1WZmpqKps3b84BAwZIbRQREcEKFSowIiKCJHnq1CkOHTqUAGhgYEBHR0eGhoYyNDSUs2bNooGBATt37iwr99tvv6W+vj6///57qdyBAwcSACdPnsyDBw+SJBcsWMAKFSpw3bp1VKlUTE9P58aNG6mhocFVq1ZJ5UVGRkqfXRMTE9aqVYtz585lXFwcR4wYQQ0NDfr7+8vqkJycTAC0t7eX3jvh/RKB2XNat25NAPzpp59Ikps3byYAtZNqQEAATUxMmJ2dLUt/PjC7ceMGATAyMlKWb8eOHQTAY8eOydJ9fX1pZWXFX3/9VZbu6upKR0dHxsfHy9IrV67MoKCgl+5TsTcJzMiiIAMA69Spw3PnzsmWeXt708DAQHpdUFDA7t2709ramtevX5fl/fnnn9UCs+HDh1NbW5tXr16V5W3UqBGNjY1lgStJWllZ0cjIiEeOHJGl+/n5UU9PjxcvXpTSPD09qampycePH0tpcXFx1NHRea1+J2/ax+zx48cEQDs7O165ckW2rGnTpjQxMaFKpSJJ5ufn093dnZUrV5a+gIstXrxYLTALDAykpqYm//zzT1leHx8f2Zd1MVdXVzo5OfHy5cuy9E8//ZRVqlSRpXXo0IEAmJCQIKVdu3aNRkZGbNmy5Qvb4FkuLi6ywIwkt2/fTgBcuHAh09PTpfTbt28TAJctWybLHx8fX6rAjCwKBnR0dDh16lRZ+owZM7hu3Trptbu7Oz09PWV5Hj58SACcP3++LL24XgMHDmRubq6UnpGRQRsbGw4cOFBKS0tLo7GxMQcNGiQrY9WqVQTAHTt2vLT+MTEx1NXVZe/evdWW+fv7087OTi3d19dX7b2OiYkhAHbp0oVJSUlS+tq1awmA8+bNk33ZhoSEEIDsMzJo0CBaW1vLPnt5eXn09PSUfemT6oFZYmIi3d3d2bVrV7XjeMaMGQTA1atXywJ7d3d3zp07V3p95syZEgMzkvzrr7/Ulq1evbrE81piYiKrVKlSqs/67du3peP72feaJIOCgmSBWWFhIfv27Utzc3Pu3r2bjx8/5uPHj7l//35Wr16dJiYmzMrKktoNAJVKJePi4mTltm7dmt7e3rI0Kysr2traytKuXbtGAFy+fLmU1qdPHzZq1EiWT6VSsUGDBvT19ZWlHzt2jADYqFEjpqSkyJZ169aN9vb2srS8vDyePXtW7ZwsvD/aZXjx7X+KkZERAKB58+YYPXo0XFxcpGVpaWnQ0dFBamrqKy/tV6lSBbt374avr68s/WX9Rezt7dGnTx+19AYNGpQ4KvB9+eqrr1CvXj1ZWqNGjRAVFSW9TkxMRGRkJL766ivY29vL8pY0KjM4OBiVK1dGrVq1pLT09HSkpKQgLS2txH4o/fv3VxsNZmpqipycHGRlZUlpxbeaTE1NpTRXV1coFArZratz587h8uXLsvK8vLxgbm6u3ghvYMqUKXB0dJSl9erVC+PGjZNuOxYUFODs2bMYO3YsrKysZHmHDx+OcePGydJGjRqFgIAANGnSREq7cuUKEhMTpWP3ee7u7mq3b59tm2IltZuxsTF0dXXLZNSxn5+frI7F27l169Ybl+ni4oKWLVsiPDz8/9g776iqju/tP1y4dOm9i2ABBcUOYsESI/YSW4waoyaaGEuMscSWWLDGLiqJmlhQY1cUu7F3NFZEAUVAAZF2qfd5/+C958fhgqKomK/ns9ZdC2bmzNlnzpR9ZvbswZgxY2Bubg4AOHbsmMhtx4YNG9Tq1KtstwICAiCXy4X/DQwMoKOjI0pTUFCAFy9eqNWZstahPXv2ICcnp0QXIyW9o1cxePBgWFlZqeURGBgoeocl5d2zZ0/UqlULBgYGQlhUVJSobZXE3r17MXr0aLRt2xaLFy9Wi3d2dgYADBgwAJs2bULfvn3Rr18/hIeH4/nz56/3gEVYsWIFGjVqpOaqxtraGk5OTmXK46+//kJGRgZ++eUX0bsG1MsoLS0NGzZsgLm5OdatW4d169YJcb6+vgAAmUxsJdSxY0d4eXm9Uo6UlBTReyt6/3PnzuHbb78FUOjayNjYWEhz+fJlREREICYmBra2tiXmPX/+fJiamr702QBAS0sLderUeaWsEu8OycasCCkpKYK9TdOmTQEAtra2GDFiBKZMmQIXFxfY2tqia9euOHnyZJny1NfXF2wP6tati0qVKqFVq1b/KV9eKp4+ffrKNBs2bAAAODg4lClPGxsb1K9fH0OHDoWrqytsbGzQpUsXJCYmvpZsffv2VQsbNWoUSGL37t1C2KpVq5CZmSlSdAYMGICePXuKfjdv3nyt+5eX1y03Ly8vaGhoYOjQoahRowYsLCzw9ddfIyYmptyyNGrUCABE5TZr1iwkJSWhe/fu5c6/NMrapkpj5MiRSEpKQkhICABg9erVqF+/Puzs7IQ0Tk5O2LBhA9q2bQsrKyu0atUKU6ZMKdd9gcJ27uXlhT/++EOoO6mpqfj1119hYGDwykH58ePHcHJyQpMmTcotS3lp3bo1vLy8MGjQIOjp6ZWpbo0cORKdO3dGZGSkSKEryqBBg7B9+3b06dMHR44cQf/+/aGnp4cRI0bA0dHxjWS9e/cuLl68CBsbG2hplW+eQUNDQ+j3y4K7uztCQ0NL/KkUdw0NjdeSYdSoUUhJSRFco2RmZgqujcaNGyekc3FxwaJFi+Dv7w9HR0eMHj0av//+e5k3DEl82EiKWRHOnDmD+Ph4+Pv7w8LCAkChAXGDBg1w69YtbNiwAZcvX8aRI0cwYsSIMuW5f/9+eHl5ITQ0FFOmTMH169dx+PDhCnEWqhocSvPITvKlX8UHDhx45T309PReS6b58+ejU6dOiImJwbp163DlyhUcOXIE9evXf618NDU11cIGDBgAb29v9O7dGz179kSfPn0wadIkDB8+HN99952Q7tChQ4iMjBT9is5EqXapvsyTfWnG8GVFV1f3tdIvXrwYbdq0QUFBAfbs2YOrV6/i2LFjIrnflB9//BEAMHToUHTu3BlffvklVqxYgalTp6Jnz57lzv9d0b59e3h5eWHTpk3Izs7Gtm3bhGdRMXDgQKxatQo9evTAlStXcPjwYRw/frzc99bR0cH69euRmpqKpk2bYvjw4Wjfvj2ysrLw+++/C7NFLyMtLa1EQ//3Tfv27REYGAg9PT3cuHGjTHXLxMQEt2/fRrdu3TBnzhwEBQWppXnx4gXatWuHDRs24O7du/jll19gbW2NjRs3YujQoW90Ioi5uTlsbW2RlZVV7l2EJHH9+vVy5VFSnq/DsGHDYGpqin79+sHd3R01atTA9evXERISgpo1awIo3GHZvn177N27F8OHD8fFixdx4sQJnDp1Ct7e3m9VfomKQVrK/P8kJCRg4sSJ0NTUxA8//ABNTU3k5uZi8ODBsLOzw99//y0oHSQRGRlZpnw3bdqElJQU3LhxQzRFXdpOn3dJ06ZNYWVlhd9++w09e/ZUU6IiIiIQFhaG4cOHl3h9WZzOduvWDSNGjMCBAwfQv39/0Rdj8U5KoVBg9uzZqFq1KrZv3y44yiSJWrVqlbqLs6xMmTIFjRs3xqJFi4SwSZMmwcPDQ5TO3NxcWPoq7ZkGDx6MFStWYNCgQTAxMRHFP3jwAFu3bi2X9/Nu3bpBJpPhwIEDGD16tKjcShpwxo4dC0tLSyxYsEC0NPW6A0FxSGLdunWYPHkyWrZsKYR///3377zTd3NzK3ce48aNw+eff45JkyYhJydH1OYuX76MnTt3Yvv27QgMDBTC38Ysw9WrV9G6dWvs2LFDmDHq2bOnsPv1Vbi5uSE1NRWHDx/GoEGDRHHv023BkSNHsH//fgwbNgxLly4VyfCyujV16lS4u7vjzz//RO/evTF37ly0atUKdevWFdLMnz8fMpkM06ZNg6urKyZOnIiJEyeiXbt2WLduHb755huR8nf//n3RLkSlUqm2g9jCwgJOTk4IDw9HWlqaqG2y0Ia6TM+tMqX4+++/1WY3i5e/gYEB/P39ERERgdjYWNFyaXZ2NjZt2oR+/fpBS0vrlTNmReV7+PAhmjVrhmHDhqF///7CGOPj4yNyYbR//36cOXMG8+bNQ69evYTw1NTUl5oyvA55eXnQ0NAo9yykxJvx0cyYJSQkoKCgQNgyr+LMmTMIDg6Gv78/7t27h+3bt6Njx45CvKamJhISEnD79m0AhcrLjz/+KMx4xcXFCWmfPXuGnJwc0T1iYmKgVCqF8zOjo6MxduxYDB48WE3G3NxcPHv2DHfu3MG1a9eE8LS0NKSnp+Ps2bOiQeTZs2fIzc1Ve6bSsLKywqRJkxAREYEmTZpg06ZNSEpKwo0bNzB79my0bt0aQ4cOVbOHU1GSMhkXF4eCggJhy72trS2mT5+O0NBQTJ8+XXClERoaKgyGRctMU1MTSqUSjx8/BlBo79WzZ88SbVSSk5ORnZ0tul7F5s2b1cJ27tyJlStXYuXKldi0aROysrIQGxv72n6zTExMsG7dOkRHR6NJkyaCTcndu3excOFCNG3aFCNHjhTsS4qWDYASt8QXf2fa2toYNWoUDh8+jAkTJgjh+/btK9W7OknExsYCKHSzMWjQIBw8eBApKSmibe6q+vPkyRO1gSouLg45OTlISkoCAMTHx2PWrFmYPn06Fi9ejLVr1yIrKwvx8fFl3jqflpaGjIwMtfuVVh6q8OLvRRVe0vsujT59+sDOzg7z58/HyJEjRTOpMpkMGhoaOHToEJ4+fYrU1FT8/fffwsBa/D6lyZuamoqsrCxReFRUFJKTk/HFF19g5cqVOHToELKysnDhwoUyyT1gwAD4+Phg5syZ2Lp1K4DC/mDlypX4448/8PTpU5EdpKqvSElJEc1yq2Qq7VleFa4aiIv2M0eOHEGrVq0QHh6uttxc/Ho9PT3MmzcPbm5uaNOmDbZv3y6ktbe3x8yZMxEcHCzk/+TJE9y9exf16tUTFHNXV1fY29sjKCgI58+fR2ZmJvbs2YPmzZvjp59+AiBuPyEhIbC2tkavXr2EPkrVj1y6dAmJiYmvbPM9evRA3759sWrVKsGPZUJCAqZNm4Y5c+aApGBLq6WlhVmzZiEzMxM9evQQbBTv3r2Lbt26QU9PTyhHVbkULzeFQoGUlBSEh4fj6tWrAAr7wsTERIwfPx79+vXDypUrERoailOnTolc66jyvnPnDtLS0hAfH4/169fD0dERkZGRwrigQlUniveR8fHxOHHiBBQKhcjG79mzZ9DW1hZ9mEm8Z973boOKYNu2bTQyMiIAymQyWlpaCj8dHR16eXmxZcuWou36KiIiIlitWjXq6+vT0tKS7u7uHDVqFMPDw+ns7MxWrVrxyy+/ZG5uLo2NjUX3yM7OFnbqaGtr09LSki4uLhw1ahQjIiLo5uZGMzMz9urVi0lJSWzWrBkBCNurz549y/Pnz9PS0lIIt7S0ZExMDPfs2aN2v+K7iUpCqVRy4cKFwrZ6Y2NjwZVCSEgIs7OzRelPnz5NMzMzAqC2tjZbtmwpxFWvXp0ymYwAaGRkxG3btpEkFQoFx44dS7lcTlNTU1paWrJ58+acPHmykM/ChQtJkkuWLKG5ubmofBctWsTVq1fT2NiY7dq14/Tp07l582bheTU0NGhpaSnsGuvatatQPqampty/fz9J8tGjR3Rzc6OjoyOtrKyENBYWFhw8eDAvXLjwWvVoz549bNCggfAe9PX16e7uzoULFwq7sFQsWrSIhoaGBEC5XE4fHx9RuWlpaQmyREdHkyzcVTVgwAChLCwtLdmwYUPOnj2bAGhoaMhGjRqRJFevXk1ra2vq6urS0tKSVapU4S+//MLQ0FCamZkxICCA48aNY3h4OE1NTYVnd3FxYUJCAnNycuju7i68P2NjY2H34pMnTwiAdnZ2tLW1Fa41NzfnwIED+fDhw1LL6PTp07SwsBCuqVy5Mp8+fcpPP/2UOjo6BEB9fX1OnDiRZOGOM1U5aWlpsWbNmiQLdxDr6+sTAHV0dNizZ88yv6dRo0bRyclJrS6T5OzZs6mnp0djY2Pa2dmxb9++jIiIYOfOnYWyHD16NGfOnCm4KdHW1mb//v1JFu5wU7UHVT1ITEykUqlkSEgIAbB69ep0cHAQnsnS0pI9e/YU7ZIsicTERLZq1UroK6pXr86RI0eyT58+gruDHTt28ObNmzQ3NxdkcHJy4oMHD4RnU5VZhw4dSJIjRowQlf2QIUNIkp999hnlcrlQt6ZOnUqy0G2Pnp6eUAdr1qzJjRs3csaMGdTW1ubQoUMZFBTEL7/8UnQ/leuHou9a1Tfl5+czJSWFlStXppeXFz08PDhs2DAaGRmxTZs2aruLDxw4QEdHR8rlcpqZmdHNzY1z587liRMnCIC6urpcsWKFkP7GjRusUaOG0HYaNGjAPXv2CC4zvL29GRMT89Lyz8rKEtUDR0dHDh48WNhNamdnJ7jCIMlbt26xQYMGQnpXV1fRDuC//vqLfn5+9PLyoo+Pj1A+//77L5s3b04vLy96eXmxcePGjIyMJElGR0fTzs6OVapUoZeXl9BPGBsbs2PHjoyMjGRBQQFHjRpFS0tLmpqa0snJiUOGDGFUVBR//vlnmpiY0NzcnAsWLOCECRPYoEEDenl50dvbmxMmTCBJPn/+nE2aNBFkaNq0qbDTPSUlhV5eXqJdxxLvFw3yLbp0/kApKCgo1XZAU1PzlYa5mZmZwpeYi4uLsLMlNTUVDx8+hLa2Njw8PESzXADg7e0NmUyG5ORkYWbDyspK2HWXkJCA+Ph4AIVnu92/f180K+Hu7g5DQ0PcuHFD9AXr6ekJLS0tREREiO5Xu3btMhBufrYAACAASURBVBubKhQK0Re4p6dniUsuGRkZomVbfX19YWdfTEyMyMmml5eXaIbi5s2bwpebl5cXlEql4DTSzs4O1tbWAAoNn1VfhM7OzsJOoYcPHyI1NRVyuRx2dnZqxseq8r1//z7S09OFcFdXVxgbG+PgwYOYOXMmduzYgezsbCQmJiI2NhbHjx/H5s2bkZ+fX2YnwSpyc3NFGwOqVatW4lmFxctXW1tb2Nlb/H16eHiIdvnduXNHqAceHh7Q1tYW6lbR+hMfHy/MVNrb2wvLdrGxsUhOToZMJkPlypURFRUl5G1oaCgs26jKV4WTkxPMzc0xbdo0bN68GYcPH4ZcLkdcXBwSExNx8OBB7Ny5EwYGBrh8+bLazkQV169fF2YoKlWqBDc3N9y7d09kh+fm5oZKlSohJycHt27dEsLlcjlq1qyJ9PR0kQNmBweHMu9wnDBhAhwcHDBs2LAS4+/evYusrCwYGBiIdsv++++/yMvLg6urK7S0tEQzxDVr1hR260VERIiWt2rWrAmFQoH27dvD1dUVwcHByMjIQGxsLC5fvowrV65gzZo1+Oabb0TL6iVBUu1dP3r0SJjRdHFxga6urtouYnd3dyQlJYlmPlTvunjZm5qawsXFRdQ+i94PUG+7qnZ97do1kISFhQXy8/NF9ae0+wH/1zfdv38fbm5uojpS2g7AlJQUoc1XrVoVBgYGyMrKEpYzVXVLRdE4VZ6qd+3o6CjYDb8KVT0wMTFB5cqVkZeXh3///VftfoC4Pyjap70Jubm5+Oyzz5Cbm4stW7aI+v6jR49i8uTJqFGjBi5dugSgcDbu6dOnwvtUER0djefPn6N69eqvbfMr8YFQsXqhhMS74c6dOzQwMODRo0dLjJfOvyuZJ0+e0NTUtFRfdyrnn8X9IX0oJCQksF27du/9XMnffvuNfn5+zM/PLzG+Q4cO9PX1fa8ySfy3CA0NJQBh9qw4Q4YMKdGfncT/Hh+NjZnEx4XqXLldu3apufmIiorC0aNHRbaEEoUolUrk5+dj//79arZVR48exYYNG9CqVasSZwkrisaNG+PLL7/E6dOnMWPGDNSsWVNtg8a7xsrKCufOncPvv/+O7OxsITwrKwvLli3Dvn371HzRSUgUxcLCAjKZDFu3bhXNFj958gQbNmzA2rVrpTr0kfBRLGVKfJzs27dPONNU5fDR0tISmZmZaN++PSZNmiRN9ZfA0aNHMW3aNDx//lxYUjU3N0dubi5Gjx6Nzp07l+mg+/dFp06dEBYWBjMzM/Tr1w+zZs1677vJlEolQkJCEBQUBENDQ2Epz8rKCsbGxvjxxx/RrFmz1/ZrJfFxsXHjRmzZsgUPHjwQTBNSU1Ph7e2N7t27o1WrVmoOcCX+95AUM4n/ee7evSs4rPX09HypawyJ/yMjIwNXrlwBUGjjY2NjU8ESlc6lS5fg5ub23mfKSiImJkawjSqruwwJCQkJFZJiJiEhISEhISHxgSDZmElISEhISEhIfCBIipmEhISEhISExAeCpJhJSEhISEhISHwgSIqZhISEhISEhMQHgqSYSUhISEhISEh8IEiKmYSEhISEhITEB4KkmElISEhISEhIfCBIipmEhISEhISExAeCpJhJSEhISEhISHwgSIqZhISEhISEhMQHgqSYSUhISEhISEh8IEiKmcRHzdmzZ3HmzJk3vj4tLQ0xMTF40yNnk5OTERMTg5ycnDeW4b/A48ePsXbtWiiVyje6PicnB3v37sWNGzfesmQS74Pk5GSsXr1aVM8LCgoQExODxMTECpRMTHZ2NlavXo3c3NyKFuWjIyYmBgsWLMDdu3crWpQK56NTzJRKJW7fvo2BAwdi06ZNFS1OibRq1QrNmjUr9bdo0SLExcVVtJj/ac6cOYNmzZrB19cXp06deqM8OnfuDB8fH7i4uCA7O/u1r//pp59Qq1YtuLi44MKFC28kw3+BHj16wNPTEwMHDkR6evprX3/q1Ck0btwYHTp0wNy5c9+BhBLvkh9++AE1a9bEkCFDcPXqVSH82bNncHFxQe/evStQOjFTpkzBkCFDpHr2nhk3bhzc3NwwZswYLFq0qKLFqXA+KsUsMjISderUgYeHB9auXYtHjx5VtEglMmTIEKSlpeHkyZOoXbs2vv76a+Hn7e2N8ePHw9nZGX///XdFi/qfxdjYGEOHDi1XHv3794efn98bX9+uXTu0atWqXDL8F/j8889hbW39xte7uLigW7dub1EiifdJ+/bt0a5dO7VwExMTfPnllxWimF24cAFRUVFq4aNGjULXrl1Rv3799y7Tx0xQUBDCw8MrWgwRcXFxWLduXcXcnB8Rubm5TEhIYFxcHAEwKCiookUqlSlTplBbW5sKhUItLjQ0lADo6urKjIyMCpDuf4OCgoJy14PffvuNAJiVlfVG1586dYoAePLkyTeW4b9Ao0aN6Onpyezs7De6Pj4+nlZWVuzXr99blkzifbB06VIC4NmzZytaFJLk0KFDeeHChYoWQ6IIR48eJQAePXq0okUhSa5fv57fffddhdxbq2LUwYpBLpfD2toa+fn5FS1KmdHV1VUL69SpE2rXro1r165BoVBAX18fz58/BwDIZDKYmJgIaZVKJVJTU0uMK0pqaiqUSiUMDQ2hra1dYprc3FzI5XJoaGgAAFJSUqCnpwc9Pb1S5c/OzkZWVha0tLRgZGQEAMjMzISenh5ksrczYZuTk4PMzExoamrC2Nj4pWnT09ORl5cHY2Nj4TlKIy8vD+np6dDV1YW+vv5ry0VSeC/GxsbQ1NR85TUFBQV48eIFtLW1YWho+Nr3fJcoFAooFAoAgL6+fol1U4XqvRsYGEBHRwcA4OTkVGLdKlpOpZV1cnIy0tLSRGFpaWnIz8+HqanpK9/luyQrK0tYyi6rLGWtW7m5ucjIyBC1s6ysLOjo6JSpPr0Oqr7CzMxMLS49PR2VKlV66fUpKSmltkFPT883lkvVJor3TZmZmYLNWvH28rK43bt3Y9OmTfj8889LvF9WVha0tbWhpfX2hsei5ff8+XPo6upCT08PKSkpQppKlSpBLpcL/78sTiWnqt4V7V+Lk5mZCZlMBj09PaHelZanClW9AwAjIyNoaWkhKysLAN6oL3zVPYrWrdLGE9UYBZTeznJzc5GdnQ0jIyNhXCg+RhXtx0qqrzk5OTh48CAmT56M1q1bC++hrH34W6FC1MEKJi8v7z8zY1YS8fHxNDMzIwA+e/aMmzdvJgACoJubmyhtQkJCqXEkuXbtWgYGBlJPT48A6OPjw71794rS3Lhxg7/88gvr1avHq1evcseOHQwMDKSGhgarVavGH3/8sUQ5N2zYwJo1axIAjY2NOW7cOIaGhtLBwYFr1659w5L5P5KTk/nzzz/T29ubAGhoaMgffviBjx8/Vkv74sUL9u/fn9bW1gTA5s2bC7NdxetBZmYmZ8yYwYYNGxIAK1euzGHDhvH+/ftq+ZY2Y7Z27Vq2adNGKPsWLVqolSspnjE7e/ascI2dnR1XrlxZzhIqZNWqVQwMDBR+mzZtYlhYmChs7ty5JMm//vpLCPv++++FPPbs2UN3d3fheTw9PTllypQS7zdhwgTWqFGDAOjt7c1JkyYJ16ampqo9f9u2bYV8q1Spwt9++00tzwsXLhAA+/Xrx/Pnz7NHjx40MTEhAPbt25cvXrwodznFxsaKyiQwMJAREREkyd9//10IGzNmDElSqVRy4cKFrFKliiD/p59+yjNnzojyDQ8P59dff83AwEA+efKEhw8fZoMGDYS6tWDBAubn54uuSU1N5ZQpU+jj40MAdHd358iRI7lgwQK6urpy/vz55XrWp0+fMiQkhIGBgfznn38YEhLC1q1bEwDbtWvH8+fPMz8/nwsWLGBgYCAtLCwYGBjIqKgotbx27twp9AcGBgbs1KkTHz16JEpz7Ngx0YxZSkoKQ0NDOXjwYI4fP15Id/r0aS5fvpyBgYG8evUqFy9ezObNmxMA69aty6VLlwppv/jiC6HcO3fuLLrf5MmThbguXboI4RMmTBDCXVxchHf6+PFjHjt2jCNGjGCVKlV48eLFcpWviiNHjgjld+vWLX799dfU1NSku7s7r127xqZNmwryFO0f8vPz6e/vX2JcQUEBFy5cSFdXV7Zp04a2trY0MzPjjBkzRPe+e/cuhw4dSicnJ06dOpWHDh0S6h0ANmjQgJGRkWoyL1iwgHXq1BHS+fr6cs6cOaxevTp9fHzeSrksX76c9erVE+7RsGFD9u3bt8RZ1ejoaLZv357169dn165dCYB9+vQRtfnr169z+vTprFevHuvXr89Lly6xdu3awnMmJyeTLOwLq1evzmbNmrFZs2Y0NDTkmDFjRGPGunXrBLmK/u7cufNWnr0sfJSKWX5+/n9CMZPL5Xz27JkoPDIykgEBAQTA/v37U6lUMi8vjwqFgv7+/mrKl1KppEKh4IABA9TifvrpJ8pkMkZERFChUDAjI4PDhw+nTCbjsWPHhHSrVq0SBp9q1aqxbt26nDp1KoODgzlgwAACYHBwsCjv0aNHU19fn9u2baNCoeCJEydoa2srpL1y5Uq5y6h+/fr89NNP+fDhQyoUCp4+fZr169dnixYtRAPd8+fP2aRJEzo7O/PAgQNUKBQMCQmhsbFxifWgY8eO9PPz482bN6lQKHjlyhW2atWKdnZ2TExMFKUtSTGbPn067e3tefLkSSoUCsbExPCrr76iXC5XWz5RKWY1atRgjRo1uGjRIgYHBzMgIIAymYwbNmwodzklJiaye/fuBMAVK1YwLy+P+fn5DAkJoZaWFq2srJibm0uy8KNl5MiRbNWqFdPT00kWKmVaWlpC2SkUCv7111/U0NDgxo0bhfvk5+dz6NChNDQ05OLFi6lQKHjkyBFhgPH29mZOTo6QfsuWLdTS0uIff/wh5BscHEwAHD58uOgZVIqZpqYmzczM+N133zE4OJgTJ06kpqYmW7ZsWe5yUiqVPH/+PM3MzNiwYUMqFAoWFBQI5VKnTh0OGTKEOTk5zM7OZu/evenp6clLly4J8vfs2ZPGxsa8e/eukO/AgQNZvXp14T3XqVOHwcHBDA4OZt26dQlA1N5I0t/fn4aGhjx48CAVCgUPHz5MIyMj2tvbc+nSpeVeEpwzZw4dHR0JgHK5nK6urgwKCmJwcDBtbW1pamrKZs2asVq1aly8eDEXLVpEExMTtXJevnw5dXR0uHbtWioUCiYmJrJRo0Z0dXXlw4cPhXTFFbPbt2/Tz8+PJiYmbNGihZBu4sSJwoeWtrY23d3duXDhQgYHB/OTTz6hTCbj7NmzSf6faUrlypXVFLOCggImJCTQxcVFpJjl5ORw3759BMB169YJ702pVPK3336jp6cnAbw1xWzPnj1s3749AVBfX58///wzBw4cSBMTE165coUFBQWCaUrxD7eCggLho7toXFBQEAHw+PHjVCqVzMnJYWhoKPX09Dhv3jwh3fXr1zl+/HhqaGhQS0tLqHepqalcv349TU1N2bx5c9E9g4ODqa2tLWqTo0ePJgB+9tlnPH36dLnL5PTp05TJZGzdujWvXLlChULBPXv2CB/NRet2amoqnZ2d2aNHD+bl5ZEk7927R2dnZwYEBAjpkpOTuWzZMpqbm1Mmk9HDw4PBwcHs1KkTvby8+PTpUx48eJDa2trcvn07CwoKWFBQwLCwMBoaGnLcuHFCXvn5+VQoFLS1teWwYcNEdeR98VEqZv+VGTMAtLGxoZubm/BTdc7Dhg0TBk4VgwYNKnFWrLS4WrVqsUOHDqKwjIwMGhkZqc2CLV++XPhSKTq4JiUl0cHBgR07dhTCrl+/Tg0NDfbo0UOUh+prdfv27WUviFI4ePAgZTKZmqKzePFiAhCVTf/+/SmXy3nq1ClR2uPHj6vVg6tXr1Iul6vN2mzdupUAeO/ePVF4ccUsLy+PlSpVYt++fUXpoqOjCUCkyJD/p5j9+uuvIpnT09Opo6NT6qzU6/Lw4UPq6elxxIgRonAzMzNaW1uLwtq2bct9+/YJ/3/yySds2LCh0DGSZHZ2Nt3d3fn5558LYWfOnCEALly4UJRfbm4ua9euLaojJDlgwABWrlxZZEeZl5dHPz8/NQVApZh5eXmpzYj279+f9vb2ZSmGMjFp0iTq6uryxo0bomeoV68eb9++TZKMiYkhAI4dO1Z07enTp0tUtFT1Z9WqVSIlXlUvin7YnDhxgpqamvzqq69EeQwfPpwA+PTp07fynNeuXSMAfv/993z+/LkQvnfvXgLgrFmzRHVy5cqVooH87t27tLKyYu/evRkdHS38fv31VwIQzeAUV8xUtGnTRqSYkeTFixcJgJMnT2ZaWpoQnpGRQV9fX1pZWYnqTMOGDdUUMxX169cXKWYkeejQIQIo0cZMFfe2FDOSPHDgAAGI+pS4uDjh7+vXr5eomJFkRESEWly7du3YtGlTtVlWV1dXtTpDktra2mzfvr3arH7btm3p7+8vCqtcuTItLS1FYU+fPiUADhw4sAxP+2o8PT1paWmpNn7t2rVLrY6sXbuWALh161ZR2u+++452dnZqeXfp0oV2dnbCzG5WVhZTUlJIkv369aOXl5do/CJLriMkaWdnJ9mYvU8q0h7ldZDJZAgKCoKRkREGDx6MpKQkLF++HAMHDnypfU9Z+eGHH+Dg4AAAyM/PB0mcPXv2pTZ4DRo0ENl5mJubC3mouHHjBkjCy8tLFK6ygXgTlwnF8fHxwYQJE+Dp6QmlUomCggIAwL1790TplEol1q1bh44dO6rtoPT391fL19XVFePGjUP//v1BUiiL4vmWhqamJsaNG4fPPvsMQKEtEYBX+uZp2rSpyA7G0NDwrdZTFxcXtGjRAuvWrcP48eNhY2ODR48eIScnBxkZGbhw4QIaNGiAuLg4ZGRkiHbRDRs2DHl5edDS0hLqyeXLl5GZmSm6R1BQEIDC3apFkcvlJdbXAQMGwN/fH7q6uigoKIBSqcS///6L58+fw9bWtsTn8Pb2hr29vSjsVbZPr8v333+PefPm4ddff8XmzZsBAPv27UPVqlVRvXp1AIC1tTUmTZqE7777TlRPwsLCXpp3ixYtRPYuJcmelZWFgoICNZuh4u2pvKju7evrK7I9VYUXr5PFZd23bx+ePn2KW7du4ZdffhHFDRo0SGiTb4q/v7/ongYGBvjss88wcuRInDp16j+3o7lof2NnZ/fG+YSEhODZs2eQyWTIy8tDdHQ0Tp48+dJ+tV69ei+1BVaRnp6u1u+o/Myp7MHKw7Vr13D//n3MnDlTzYa2pLbQu3dvVK5cGU2aNEFeXh7u3r2L8+fP49atW2pp8/LyEBMTA3t7e7i6ugKAyL5s4cKFiI2NhZaWFvLy8nDq1Ck8ePAASUlJamNYRfNRKmZ8Q2eg7xstLS188cUXAAqNqXv37o1ly5ZhwIABbyX/Xr16Yc2aNVizZg12794NMzMzeHp6CsrEm9KnTx/89NNPCA4OxrfffgsTExO8ePEC+/fvh52dXYkK0etiYWGBMWPGYNmyZdi+fTvOnTuHFi1aICEhocT0vr6+ZcrXyMgIAwYMwLRp03Dt2jUcP34cvr6+grHoq9DQ0MDQoUMRHByMK1euYPv27ahZsyYsLCzK/Gzvih9//BEtWrTAoUOH0K9fPyxduhTNmzfHyZMnsXv3bjRo0ADh4eFo06aN6LqOHTti3bp16NOnDw4dOgSZTAYfHx81Y/zXdRTarFkzpKamok+fPvjnn3+Qnp6Oxo0bIzExsVTF7H1gYWGB5s2bY8+ePbh58yY8PT0xZ84cLF26VEijo6ODoUOHYtGiRbh27Rr279+PunXrlmpM/Tp4e3vDyMgIR44cwbNnz2BpaQmFQoHFixfD0tKy1M057xuVY+Y///wTtWrVei/3LGs7/l/G2toaixcvxrVr13DkyBEEBAQAgNqH0pvQq1cvrF69Gvv370e7du2QlZWFn376CUChr7HykpqaipycnDK/R21tbSQkJKB169Y4f/68MHbcv39fLa2GhsZLjfPz8/Oxe/duDBw4EElJSUKdLbrJ4kPho/Jj9l/ms88+w8yZM3Hr1q23opgpFAr0798fEydORNu2bREVFYWbN28iLCzspbsBVTNBr2L27Nl4/PgxqlWrhrFjx6Jdu3a4ffs2pk+fjsqVK5db/n/++QfVqlXDhg0bMHbsWCQkJODw4cP45ptvSkyv2vX3KiIiIuDv7489e/bgq6++QkJCAk6cOIEJEyaU6frk5GS0adMGS5cuRa1atZCQkIALFy5g7dq1ZX20d0azZs1gYWGBOXPmID8/H0ePHkVISAhq166N+fPnIy8vDyEhIRg0aJBwTX5+PkaMGIHhw4ejatWqOHbsGO7evYuwsDA4OzuXS55p06ahd+/ecHV1xaVLl/DgwQOEhYWhTp06pV5T1vpXXqZOnYqCggKEhYXh3r170NfXF81YPXz4EAEBAfjzzz8xbNgwJCQk4PTp05g/f365721ra4t+/fohIiICrVu3xtixY+Hh4YGcnByEh4e/cufx+8LU1BQAhF3f74OytuP/VXJzc4X+JTAwEI8fP0ZYWBjCwsJgY2NT7vxnzpwJZ2dnjBw5EjY2NnBycsK9e/ewcePGl7bL1+Xy5ctlSrdhwwb069cP7u7uuHXrlvCsHTt2VEurpaVV6syXUqnEoEGDEBQUhPHjx4vyqlq1arme5V3wUc6YlYV3sWW6PMhkMowfPx47d+7Erl27MHnyZEyfPl0t3aNHj3Dt2jXUrl1bCMvNzVWb+t2xYwc2b96MjRs3ihw85uXlvXRGsSxLqHfu3MGIESOwc+dOODk5ASicRbO2ti7XFH5RFixYAJlMhoMHD4qcl5Z0tJGOjg527tyJX3/9VfQ+S0obHByMjIwMnDx5Em5ubi9NWxI7d+7E1atXsXfvXgQGBr729e+acePGYeLEiZgwYQKcnJxgbW2NcePGoX379mjQoAHatGkjekenTp3CkiVLMG/ePIwZM0YIVy23FcXDwwPnzp3D7du3RV/EBQUFasvjt2/fxrRp0zB69Gj8+uuvQnh2drawbFoUa2trmJmZvTczhIYNG6Jt27aYNWsWgoODsWDBApFMGzZsQFRUFC5evAgfHx8h/G0c5XP37l3s2bMHmzdvFgaNPn36wN3d/YNyodKtWzesWbMG27ZtU5sFv3PnDhQKRbkG85LaTFBQEAwMDIR+RUVubi5IiuqH6rinD22ZqjSKP29eXh62bdsmCjt8+DAOHz6MpUuXYvjw4UJ4ZmbmGx93puLhw4fo0qULfvrpJwQGBgqny1StWhUGBgblyltFvXr14OzsjK1bt2Lw4MGi2d+S3vfMmTORm5uL5cuXC+6VShrPgMKVsNJWezIyMrBv3z5MmzYNPXv2FMITEhLeqI6kpqaCpPBx8rb5KGfMYmJiAADR0dGlpvH390fbtm3x5MmT9ySVmOjoaCiVSrXTCcLCwmBiYoIZM2Zg7ty5osocEBCAnJwcLFmyBEBh5Vm/fj0aNWqEs2fPIiMjA8nJyQAKj0MBCn36qBSx8PBw+Pn5ITU1tdSyOXr0qOj/9PR0IU8Vly5dQnJyMsaNG4cNGzYgMjISkZGRb31Qyc7ORmRkpPD/tGnThEFeJb9MJsPKlStx9+5djBgxQkh7+/ZtdOnSRZRWRX5+Pu7cuQOg0FfW9OnTBaWkeFpVXSpO0TMdV6xYgQ4dOpSY/mV1sCzxr0u7du2gpaWFuXPnCh1UkyZNYGNjg2vXrql9iarqSXh4uODH6OzZs/Dx8cGdO3dE54ROmDABDg4O+Omnn3D9+nUAwNOnTzFq1ChcunQJT548ETpOlf3UyZMnhaWEq1evonnz5jhx4gQSExNFy8fZ2dnIzc1FaGhoic+lUCjw9OnTt1JGKn788UekpKQgPT29xOV3ksJ7zs3Nxdy5c4XZ7LK+Z1V40fRr165FbGwsli1bhpCQEERGRuLJkydvvf28SqaSwm/cuCGU8yeffIKuXbsiODgYv/32m1APDh48iM8//1zk76p4vwEUvtPSTA8AYOjQoXj48CGAwjY5f/58nDx5EiNHjhTNcjg7O2P//v3Yu3cvAODEiRP4/vvvUb16dcTGxiIuLq5Eu9nff/8dQOFSVvEzWEtr12+C6tlLK1djY2OYmJjg22+/RXh4ODIzMxEaGoomTZrg5MmTomtVdlgHDhxATk4OcnJysGXLFtSqVQvR0dFqcj969AhKpVItPCcnBwkJCbh586ZggmBgYICHDx/iyy+/RIcOHfDzzz/j2rVr2Ldv31s7JcfQ0BCTJk3CiRMn0LNnT0RGRiI7OxtBQUEYPHiwqLwACLPyqnd15MgR9OnTB0eOHIFCoRCZT2RmZmLv3r1ISUlRM7NQcfToUeFdb9myBZ988slL60hkZCTi4uKQkpIiHBV19epV2NrawsHB4d3pBxWx46CiiIqKYqNGjSiXywmAGhoarFOnTon+oqytramvr8/o6Oj3LmedOnWooaEhbGUvvltHtXUeAG1tbQWfQQUFBfzuu+8IgLq6utTW1mbjxo0ZHh4uuLWoWbMmL126xGfPngk+s3R1damrq8u6desyODiYvXr1or6+PocMGcL169dz6tSpQplpaWlxwoQJJMk7d+4I/tRkMhnt7e355MkT5ufnc9myZWp+YHR0dOjh4cHJkye/sQd4FUePHqWtrS21tLTYoUMH2tjYcMSIEVy6dCnNzc3p5+fHIUOG8M6dOywoKOCoUaNYqVIlVq1alV5eXqxcuTKnTp0q1AM/Pz+ShbugnJycqKmpSV1dXZqamvKrr75icHAw7e3tBZcJ58+fp5OTE2UyGQHQ0dGRu3btYnZ2Nj09PamhoSGUa6dOnRgcHEw/Pz/KZDJ+8cUXDA0N5Q8//EBNTU3BNcCoUaNIFu6K61NXYgAAIABJREFU09XVFWQzMjIqV1kVp1evXnR0dBTt6poyZQrd3d1Fu+DIwl1NPXr0oIaGBnV0dKirq0sPDw8uWbKEX3/9NQHwq6++4uLFi0kWtjEXFxdqaWlRV1eXlpaW/Pbbb+nq6irUAdXOxv79+1NHR4fa2trU1dWlu7s758yZw3HjxhEAGzVqxF9++YW7d++mtra24C6jbdu2JMm0tDTq6uqKyvBtuBdRkZ6ezmrVqnHy5MlqcampqezatStlMhl1dXVpYGDAPn36MDg4mC1atKCWlhaHDBnCgwcPsmHDhkI90dHR4Zw5c0iSq1evppaWltB+qlatSrKwHc+YMUPUdlT1qU2bNvzrr7/K/Wxz5swR7i2Xy/nzzz+TJEeNGiWUp76+PpcsWULy/1zr4P/7nAoPDydZ6CdxxIgRNDExobOzM+vXr08nJyfR7uURI0aI3tGOHTsYHR0tuEeQyWQMCAgQXAOpdmV27NiR9vb21NXVpY6ODs3NzTljxgw1twU3b94UXGno6upSJpOxe/fuTE5OFnxlNW3alPHx8UL5tmrVSuj7zM3NGRwczPXr14vqWa9evcpdzm3atBGeXVNTs8SdlyR5/vx5VqtWjTKZjEZGRvT39+fevXuFnbOampqcOXMmlUol582bR0tLS+ro6NDQ0JB9+/bl9evXuWrVKhoZGbFNmzbs2rUrN23aJBrrfH19SRa6lujWrRv9/PyEdq3yvafa/ezh4cFatWoJ9U8ul9Pf3/+tuDlSKpWcNWsWa9SoQS0tLVaqVIn9+vUTxgxNTU12796dZOFOb1W/aWpqyhYtWnD//v3cvn07nZ2dqa2tTWtra27dupUtW7akn58f/fz8GBAQwMuXL4vuu2rVKnp7e1NLS4tOTk7s3r07L168yM2bN9Pc3Jw6Ojps1KiRkD4sLIyurq6Uy+WsUaMGf/jhB5Lko0eP2Lp1axoaGnLXrl3lLo+S0CD/I5bwb4Hs7Gw8fvxYLdzQ0FBtfV71pfY27KFel6ioKNFyooWFhZrH/ri4OGFGoahHddXOFBWquKdPnwpfETY2NjA0NERBQYHwnADg4OAAXV1d5OTk4N69e9i6dSvGjBmDgoICkYGkqakpzM3NoVAo1A5Td3JyQl5eHgIDA+Hg4ICpU6cCKLS92rdvHw4dOoRz586pLfW9Cc+ePcOLFy8AFHqjVi3BxcfHY82aNahevTrat28v7Mp5/PixyEO7ubm5YESqqakpvOvnz58Ls4Da2trCsknR+1lbWyMpKUm0nGdmZgYzMzNkZWWJvqSqVKkCDQ0NpKWlCbMNJiYmyMvLExnsqp4hNTUVSUlJQriGhgaqVKlSrrIqSkpKCgoKCmBpaSmEpaenIy0tTW3Ho4qidbKk+mNubi5M6yclJQl2R3p6erC3txeVfdH6Gh0dLXypWlpaCvZTqvdibGwMfX19xMfHC7KoykmpVOLBgwciOa2trd/aLs38/Hw0a9YMy5cvh7e3d4lpSqo/+fn5wgyHhYUF0tPTRTPbRkZGsLKyQnJysshmSi6Xw9nZWbD/bNGiBVq3bg2gcClm+/btOHnyJC5cuIA//vhDtCTzuhTtD4DC5X5HR0c8efJEmBkFCmdRbG1thR28KlR9hYqi1xkbG4vqVvE8bWxsIJfLRbMwRdvZpUuXUL9+fRw6dAheXl6CnCpZSiIzM1NUR1RmCKXVu9zcXMTGxgIoNM9wcHBAenq6aAampHHhdSnaTwOF9oOlLQtmZGQgISFBqAfF5VS1JaBwo016erqo3hW9n4WFBSpVqiTq3+3t7dV2Zqratep9du3aFXl5eQgNDYWGhgbi4uJQUFCADRs2YMWKFfDx8cHBgwfLVSYqVO9MS0sLLi4uovGk+LuOioqCXC4XLWGr+umiff+ryMnJwaNHj1CpUiWRCUx8fDwyMzOFcUHFixcvhA04RW078/LyUL9+fcydO1doo2+Vd6LuSXzUTJkyhXXq1Cl1VqxNmzZqXqolJD40VF7b3zcjR46kl5dXqfGWlpYcPXr0e5To/aKaMTt06FBFi/JRcebMGcrlcuG0i+KMHDlSzefhx4hSqeQ333zD+vXrv7N7fJQ2ZhLvlpiYGDx58gTHjh1TiwsNDcXly5ffzVeGhEQ5iIuLQ58+fbB69WokJydj1qxZmDFjxnuXQ1NTE+np6YKdowqlUok1a9aApMjP3P8axWfhJd4Pmpqa0NDQwPr16wXbUqDQTm3NmjUICwtDr169KlDCD4NDhw7h8uXLOHDgwDu7x0e1lCnxfsjOzsakSZOwceNGKJVKNGvWDAYGBggPD4eNjQ1+/PHH9+b2QEKirDx48ABNmjRBfHw8PD09MX36dHTt2vW9y5Gbm4shQ4bg1KlTMDc3R9OmTbFjxw7I5XK4uLhgwoQJb8UX4IfIzJkzMWPGDGRlZcHU1BQrVqwo15KtxOsRFhaG2bNn4/nz54LZha2tLWxsbDBu3Dg0adLkg/FUUFHk5uYiLy/vre1ULQlJMZN4Z8THx4t2XcnlctSsWbMCJZKQeDnPnj3D48eP4ejoWOFOgZ8+fSqaPTI3N1dzE/G/xsOHD0V+0ZydnWFmZlaBEn2cPH/+XLCTfJvuMiTKhqSYSUhISEhISEh8IEg2ZhISEhISEhISHwiSYiYhISEhISEh8YEgKWYSHyxKpRLx8fEYNWoUrly5UtHivBcKCgoQERGBkJAQ3L17t6LFkXiPKJVK3L59GyEhIWqe6CU+HlJTU7F69Wo0a9bsvZ5DKiHmwoULGDt2LJo1aybyRQcAY8eOxXfffffO7v1xb6+Q+KDZvXu3cGySsbGx6EzC/1XGjRsnHIQdHByMatWqVbBEEu+LGTNmYPLkyQCAefPmoVatWhUskURFMGbMGFy4cAH//vtvqWc/Srx7Fi9ejL179+LFixdq5wJv3LgRmZmZwvGHbxtpxkzig+XTTz/FzZs3YWVlJfJg/T5YuXJlhczSTZ06Fbdv337v95WoeEaPHl3iyST/S/To0aOiRfjgCQkJwciRIwFAdDKExPvlr7/+wsSJE0uMi4iIEJ3T/LaRFDOJDxYdHR14eHi89+3ySqUSf/31F27duvVe7wsUHgNT0W4aJCoGAwMDWFlZVbQY74zU1NQKaVP/Zfbs2VPRInzUFD12rCgWFhaiY8feNtJS5gdKRkYG7ty5g3r16gEAwsPDUatWLcTFxQnnA9rZ2aFJkybCNc+ePRO87RePUxEVFYXLly8DAD755BPR+V9FiY6OhouLC4DCcxTDwsJgb28PPz+/UmW+evUqIiMj0axZM+EcshMnTqBZs2av+fRl5/bt27hx4wYaNmwonC9XPA4AvLy8UL169RLjOnbsKDRAlcf306dP4+uvv35nchfn2LFjePbsGTp16vTKtP/884/gBNXT07NM+YeHhyM1NRXdu3eHTPb2vsdOnjwJf39/aGhoICoqCgkJCfDz88PBgweFc0Xbt28PfX194ZoDBw4I5x/WqlULNWrUUMv3woULiI6OhpubW6lL2Hl5ebh48SJ8fX0BFNa1xMREdOjQQe1MQBVpaWmCx24fHx+4ubkhOjoasbGxaNq06Ws/f0JCAk6ePCn8361bN2hqar4yTkVubi527twJAGjXrh10dHReer9z584hNjYWVatWRe3atcsk44MHDxAXF6fmlPbmzZu4efNmqX3F2+TZs2cYOHAgoqKi8PjxYzg4OJSY7smTJzh16hSqV68OLy8vtfiUlBQ8fvxYiNuzZw/8/PyEjzeFQoEbN26gQYMGAIDDhw8jJSUFXbt2FRyjJiYm4sSJE5DL5YKpREmcPn1a8CPXvHnzUpXmhw8f4uLFiwCA1q1bC2fGFo9zd3dHnTp1hLjjx48LTlxLe58BAQHC35cvX0ZUVJTwv7e3d7lNHS5duoQaNWrAwMAAZ8+exaNHj/DJJ5/g+vXrwtmjAQEBoo9FVf8DAC1bthSdLQmIxyEA6Ny5s3BGaVGePHmCmzdvCqfAbN26FSRf2ubv378vrGSo6siFCxeQnJyMTz/9tBwlUUjRvqlDhw6lpktLS8ORI0deWn/KxTs77EnijRk+fDgtLCzYsWNHbtmyhaamppTJZKxWrRo3btxIHx8fAlA7x+/q1av09fVlpUqV1OLu37/Pli1b0sfHh76+vvT29qaJiQlnz55NpVIppAsODqaPjw+NjY15/Phx/vDDD9TV1SUAampqskuXLszMzBTl/ejRI1avXp3u7u709fWltbU1W7VqxQYNGlAmk3HHjh1vXBbp6el0dnbmF198IQo/ePAga9euzQYNGtDX15f29vb08/PjxYsXhTRr166lm5sbAbBWrVqi69euXcvGjRsTAH18fITwBQsW0MnJiQDo6enJli1bslOnTm8s/6tYuHAhraysaGtrS19fXzo5ObF///4EwODgYFHaAwcO0NnZmU2aNKGvry8rV65MHx8fPnv2TEhz4cIFdunShXp6ehw2bBhDQ0NpYmJCmUxGAHRxceHevXvLLXdoaCibNGlCTU1N/vPPPwwICKBcLqempibDwsLYt29furu7EwBnz54tuvbnn38W4oqfmfrnn3+yYcOG9Pf3p6+vL6tWrcpq1arx0qVLQprbt2+zV69e1NPTY5cuXbhv3z76+fkJz6irq8ulS5eqyTxnzhza29vT19eXvr6+1NXVZadOnaitrU0zMzMmJSW9djnExsayZcuWNDAwIABmZWWJ4gICAuji4qIWR5IrVqygvb09zc3N6evrSxMTE3bs2JEAOG/ePFHaW7duMSAggDVq1KCvry/d3NxYo0YNbt++XZRu+fLl9Pf3p56eHm/dusVWrVpRW1ubmpqawnvft28fvby82LBhQ/r6+tLKyopNmzbl1atXX/v5y0rLli3p4OBAmUzG5s2bs2XLluzRo4cQf+PGDTZv3py1atWir68vq1Spwpo1azIxMZEkefz4cbZr1446OjocPXo0//zzT+rr61NDQ4MNGjQgSX7++efU1dVl1apVuW3bNpqbmwt1wtHRkfv37+fUqVOpo6NDANTQ0GC1atUYGxsrkjUiIoItW7akv78/p0yZwrp161JXV5d79uxRe65ly5ZRR0dHqFPm5ubU09PjqlWrSJJ37txh3759KZfLaWFhIbp29+7dQtzIkSNFcWvWrCEAPn36VAgLCgoS+uKqVaty48aNb/w+fvnlF7q5uVFLS4t//PEHAwICqKmpSQBs2LAhV61axc6dOxMAT506Jbp23759Qtzw4cNFcXv37qW1tTWHDRvGpUuXCuNR0T4gMTGRLVq0oLa2NqtVq8ZVq1axSpUqbNy4MR0cHKilpcUhQ4YwPz9flPewYcPo5OTE8ePHc8aMGTQyMqKenh5tbW3ZpEmTNy4LsrBPqV+/PnV1dYV3aWRkRLlcTgBMT08nWXhOpqenJ3V1dWlsbFyue74MSTH7AJk2bRpNTEwIgLVr1+auXbv41Vdf0dnZmTk5OczNzWXdunVLPWDZz89PLa5+/fr08PCgQqEgSWZnZ/OXX34hAF6+fFlIt3nzZjZo0IAAaGNjwyVLljAyMpKRkZEcO3YsAYg6hOTkZHp4eNDHx0foROLi4lipUiU6Ojry5s2bQqV+E65du0a5XC5SzBISEmhgYMCpU6cyJydHCKtcuTIdHBxE16emphIAPTw81PJWKpWsVasWPT09ReG7du0iAP75559vLHdZmDVrFjU0NDh+/HhhANq6dSurVKmipphFRkZSX1+fS5YsEcKio6Pp6OjInj17CmHXr1/nzz//TBMTExoZGdHPz4+7d+9mZGQkDx06RCMjI9apU6fcsu/fv58tW7YUFKGpU6dy165ddHZ25u+//06STEtLo0wmK/HA+pLizp49S21tbc6dO1cIS0pKYvXq1ent7c3c3FySZFZWFmfNmkU7OzsaGBiwbt263LJlCyMjI3ny5En6+fnR1tZW9AGxfv16AmBoaKgQNnfuXALgypUrGRcXV67yULWl4soXWah8F49bsmQJNTU1+e233zI+Pp4kefPmTXp4eKgpZrGxsXR2duaXX34ptKXnz58zMDCQzs7OTElJEdLOmjWLrVu3JgBaWlpy1KhRnDBhAp2dnXn06FHGxMRQX1+fX331lVCe8fHxtLe3p5ubW7nK4FVMmjSJBgYGauEPHz6kg4MDg4KChOeLi4tj5cqV2aZNG+bn5zMpKYk///wzdXR0WKlSJTZu3JiRkZH87LPPhLb966+/0sLCggBYs2ZN7tixg5GRkTxy5IignAYEBPDgwYOMjIzk33//TQAcOnSoIItCoaCbmxsHDBgghOXl5XHIkCHU19cXKUpXr16lXC5n9+7dhbD79++zTp06bNOmjegZXV1daWpqWmK5WFtbl0kxW7x4MfX09Dh37txy9alkYZ1S1UstLS3Onz+fkZGR7Ny5s6BUnjhxokTFjCxsg/b29qKyO3LkCPX19fnbb7+J0g4cOJA2NjbC/7m5ubx9+zZr1KhBAGzTpg1PnjxJsnA8UX2YpqamCtcEBwdTT09PSEcWfhwC4DfffCNqA69LdnY2a9SowWrVqvHatWtC+NWrV2lnZydSzMjCvrhVq1aSYvYxUrlyZdaoUUPUMItSkvL1sjh9fX1u2rRJFJaQkEAAwkCq4vvvv6eenh6PHDkiCk9KSmKlSpX4448/CmH79u0jAG7btk2UdsCAAQTAc+fOvfxBX8HTp09pa2srUsyWLVtGmUzG+/fvi9KOGzdOrbEUFBS8VDGzsbFRU8xiYmLeuWL24sULmpmZ0dvbW1CWVezevVtNMdu/fz+trKzUvu79/PzYrl07tfwrV65c4kzfoEGD3toAHBQURADcunVrqWlKU8xKiluyZAmNjIx48+ZNUbouXboQAG/fvi0Kr1+/Pv39/dW+rMePH08AoplalRJZVAF78eIFHR0dRYPwm/Lbb7+VWTHLy8ujlZUV3dzc1AZY1WBYVDE7ffo0NTQ0+M8//4jSbt68mQAYFRUlCp83bx4BcPPmzWqyLFiwgDKZjI8ePRKFjxw5ktbW1q/30K9JaYrZuHHjCIATJ07kmjVrhJ9KSS0qq5GRERs1alTqQFy9enUCYEJCgijc0NCQ9vb2orAXL14IM0QqDh8+TLlczn379onS/vHHHwQgKNEkee7cOWpoaNDW1pb79+9nXl4eycI+KygoSHT9Dz/88EaKWUJCAgsKCrhy5Uo6Ojry8OHDJebxJmzcuJEAuGDBghLjX6aYkaSzs7NIMZs/fz7lcrnaR873338vUsxUdOvWjVWrVmVGRoYofPny5WqK2YABA1itWjVRuri4OAJgy5YtX/6gr0DVjg4ePKgWN3HiRDXFjCx5rHmbSDZmHzB+fn5vzcAwMzMTAPDo0SPcvHkTALBly5ZS0xsbG4vsG4DCs/qKH2Ab+//YO++wKo7uj38vIIJIUYqAwKVKEUSxgIViix0LWLBFxW6sUXijEhUTe4k1iQ0romDvXYyoWFBUUMEoKCCIqBTp+P39wcO+bi4aRQzm/d3P89w/dmZ25uzu7NyzM+ecefIEQKm9wJdAQUEBEolElDZixAg0aNAAFhYWePToEeLi4pCSkoKDBw/KnC+RSODq6oqMjIxy89q1a4ebN29+Edk/xLlz5/Dy5UvMnz9fxsC0efPmMuU7deqEtLQ0AKW2Junp6bh16xbi4uLQtGnTctsos/P70vTo0aNS6vnuu+/w3XffAQBu376NlJQU3L9/X7DRKQ8dHR0Zuy0AUFJS+tvrv3fvHp4+ffp5QleApKQkPH/+HNOmTUPNmjVFeeU9+xYtWuDMmTNo1aoV0tPTBRvRvXv3frCd8uxfxo4dC2dnZxgZGeHhw4d4+PAhkpKScOzYsc+4os8jLCwMBgYGMvaSM2fOBAAZ5x93d3eRHddfkUgkH+VEoaqqKtjwltG2bVsUFhYCAKKiovD8+XPcvn273Hvt7OyMmTNnYu7cuejcuTM0NTUxZcoUdOvWDX5+fqKyf/zxx9/KUx7jxo3D48ePERUVhYcPH8LCwqJC9XyIv3t/392v9UNMmTIFU6ZMwcuXL3H8+HE8ePAAkZGRQn8tj5o1a370Ppxv3rzB69evoaWlBeC//zmGhoYfdf77KAtPVGar+i7/1Bj6V+Remf9PCA0NhYWFBVxdXeHn54cbN27A2Nj4s+vt27cvHB0dsXLlSty7dw/FxcU4ePAgdu3ahVGjRn127DFtbW1oaGiI0hQVFXHz5k0YGRnB29sbfn5+ePnyJfT19WXOl0gkghPD18Snhv/Izs7GsmXLoK+vj/79+2PJkiVQUlL6n9pcOC8vDzNmzIC+vj6GDx+On376CcXFxdDS0kKjRo1gaWn50XUpKCiI+s2CBQugpaWFyZMn49mzZ0hMTMS0adNgamqKH3744Utczns5c+bMJ5/z4sULNGjQAI0bN4afnx8uXLiAatWqfXI9ioqKuHr1KgwMDNChQwf85z//wevXr6vUG/Tx48fQ0NCAj49Pub93HUcqSuPGjWXSqlWrVq4TQnBwMOrXrw8fHx8sWrQICgoKMo5FZcyaNQsRERGYPHky9PT0MGvWLDRv3hzz5s1DQUGBUO59H09/x5EjR1BUVAR1dXV06NBBZPz/T/GxQW6fPn0Kb29vWFpaIiAgAEVFRXBycqqUvvXDDz9ASUkJnp6euHPnDu7cuYPAwEBoaWnB39//s+v/2pDPmP0/4Pbt2xg3bhxcXFywZs0aQSFLS0tDYGDgZ9WtoaGBli1bIiQkBN988w3Mzc1x9+5d/Pjjj/j+++8r9OfxLmlpaTKxfGbNmoVFixZhw4YN6N27tzDj9OLFC5nYYyTfGxfsQ3lfmjLvu7Kv879j8uTJ2Lx5M37++WeMGTNGUDrKPPr+FxgyZAiOHDmC+fPni6JqX7p0CUlJSTKztR+isLAQ8fHxwiyMg4MDGjZsiNOnT6N169YoLCyEjY0Njh07hnr16lX6tXyIsmf/7h/3h9i5cyd8fX3h5+eHQYMGCbMmu3btwo4dOz6p7enTp2Px4sXYuXMnPDw8hI+Z5ORkxMXFfVJdlYWtrS0KCgpQXFz8Sc/4fXTp0kVmlr1+/fp4+PChKK2wsBB//vmnSPHbvHkzxowZg4CAAIwbN07wWt+8ebPMCsOzZ8/w4MEDeHh4oEWLFpg3bx727t2LuXPnYsaMGahfv77gZV1RT+j169dj4MCBOHv2LLp16wZ/f3+EhIRUyn36WMr7IIqKihI8M8uYNWsWDh06hG3btok8MZOSkmTu/aeiqKiIVq1aQUtLCx4eHgCAfv364datW+9Vmj8WOzs7XLt2DQUFBTIz2FWFfMbsX8y1a9cE194yQkJCZJQNf39/pKenY9WqVaJZsvDw8M+WYcOGDdi4cSOio6Px9OlThIeHIyMjA//5z38+WykDSpdKy5bwyjhx4gS6dOmCQYMGiZYBExMTy60jPT0dWVlZMgrexo0bPzjNXh65ubkICwv7pHPKY9CgQTAwMMDq1auRk5Mjyjt79qzouLCwEBs3boSDgwP8/f0FpSwnJwcvXrz4bFm+NAkJCaLjvLw8LFiwACRF6SdOnICmpqZIKSsuLv7opZT3kZubix49esDe3h5JSUm4f/8+Hj16hKNHj4pCqFQGf50Ni46Oxp49e0RpPj4+MDExwbp162RmI/56rwDgxx9/hL6+PmbPni1ayiqv7Id4/Pgxfv/9d7i5uaFv376iGeb3vTuXL1/+4gpb06ZN8fDhw3KXCydNmvTJfTw7O/ujyuXn58tsfXX27FmYm5tj+vTpglKWm5tb7nJ6YmIievfujfT0dAClMa/69++PuXPnAigNRVHGlStXZM4niV9++eWDM1IdOnQAUBqyYsaMGdizZw+GDx/+Udf3uejq6kJNTQ0LFy4UpT958gS//PKLzEfl9evX4e3tjT59+ghKWUpKSqX0nzZt2qC4uBhz5sxBRkYGMjIysGbNms9WygDA29sbAGSuMysrq1LG+grxxazX5FSY/fv3U11dnSoqKoyNjS23TGhoKAHQ1dWVhw8f5o4dO9ijRw9KpVKqq6tTKpXy8ePHJMnZs2cTANu3b8+IiAju2rWLvXv3FlzJ+/bty/z8fJKl7t19+vShRCLhihUrBG/BZ8+eMSQkhNWrV+eAAQMYFxdHkly3bh3V1dWprKxMVVVV9uvXj6NGjeLWrVtlDIw/lYyMDMEItlOnToIjRJcuXaioqMh169YxIiKCW7dupb29PSUSCZWVlUWeNSQ5ZcoUAmC/fv0YERHB/fv3s0WLFnRwcCAAmpmZiQxQy4z/Bw4cyIiICG7YsEEwxJ8/fz4BcMiQIYJXW0X59ddfqaCgwLZt2zIiIoIREREcPHiw4KLt5+fHvLw8FhcXs0mTJtTW1uaKFSsYERHBJUuWCB5oJiYmfPToEUkyPT2d+/bto7q6Ou3t7UX9JzY2lnZ2dtTQ0OCBAwc+S/ZHjx5x7NixBMCAgID3PuuyMBDLli1jREQEx48fTxMTEw4cOJASiYQTJ04UylpZWbFGjRoMCwtjREQEV69eTVNTU9rY2FBBQUEwfn/9+rXgDGFmZiYKpREXF8eWLVsKYTqePXvG7Oxsurq6Ch6kmpqaHDVqFEeNGsVjx46JjIwryqtXr1irVi3WrVuXa9as4cWLFzlq1Cja29sLjgfvGuNv2bKF1apVo4uLi/DslyxZQmVlZQLgd999x6tXr5IkPTw8qK6uzn379jEiIoKHDx+mq6urEN7g8uXLQr05OTns3Lmz4NTzrrNISUmJEBYhKCiIERER3Lx5M21tbSmRSKiqqsq7d+8K5XNzc6moqMg6depUSiiNmTNnUklJiTt37mRERATXrVvH2NhYJiYmsl69elRRURHyTp8+TXNzcy5ZsoRv375lcXExQ0JCqKyszBYtWjAiIkKm/itXrlAqlRJ2MVgRAAAgAElEQVQAIyIiWFBQwOLiYkZERFBdXZ26urrCebm5uTx16hQBUE9PT3B0mjJlChUUFDhz5kxGRETwwIED9PDwEMLu+Pv7i+6npaUlVVRUuH37diYlJTElJYVDhw6lurq6MP6SZFhYGCUSCbt06cKgoCBOnTqVZmZm9Pb2prq6Ops0acIHDx6QJG/cuME+ffoQACdNmiTUExcXRwMDAwJghw4dPsuxKjk5mYMHDyYAtmvXTsaRqoy+ffsSADt27MhRo0bx22+/paGhoRDWpUePHkKYmbK+FRAQwIiICAYEBNDZ2ZkNGjRgjRo1GBoayrS0NObl5fHMmTNUVFSkjo4Ojxw5wlevXpEkr1+/zl69ehEAp06dyoSEBJKlkQqUlZVZvXp1qqqqCv81YWFhoj5bEQoKCjh9+nRWq1aNw4YNY0REhBBax8zMTHDESkxMJFnqjFOnTh0qKyszJCRE5BBSWcgVs6+Mc+fO0dTUlFKplFKplHZ2dszMzJQp9/btW86ZM0coJ5VKuXLlSmZkZNDLy4tSqZSNGzfmo0ePmJ2dzdGjR4vKLly4kPHx8fTz86NUKqW7uzsPHjzIMWPGiMrt3r2bZGl8qXfT7e3tWVJSQpL88ccfWaNGDY4YMULIB0BtbW1OmTJFJu7Zx3LixAlRm927d+ebN2945coVurq6CullLvDXr1+nk5MTXVxc2LdvX+G+vXnzhr179xbKN2nShLt372ZOTo6Q1qpVK2HQLioq4qpVq4S8jh07CvHRjhw5Qm1t7XI9vyrCsmXLRNc4b9487t69Wzj+4YcfSJYOWJ06dRLS+/Xrx5s3b/Lo0aN0d3dn48aN6eXlJYSseLf/ZGVlkSS//fZbId3U1JTnz5+vsNyzZ8+W6XvlER0dza5duwrlevfuLfzJm5mZ0crKil27diVZGkuoZ8+eQtmePXsyMjKSsbGx7NChAxs2bMi2bdvy4sWLorY9PT2F9iZPnizK27p1K8lSDzxzc3N6enoKfUFdXZ0AWLduXV66dKnC96KM7du308LCglKplGZmZgwICGBKSgo3btxIqVRKa2trBgUFCeVDQ0PZqFEjQdaZM2fyyJEjVFNTo7GxsRDW5O7du+zevTtVVFQolUrZsGFD7ty5k/Hx8ezQoQPNzc3p5ubGx48fCyE0yn5/DV1w8eJFtmjRgjVr1qSWlhbbt2/P06dPMzIykg4ODjQ0NGSbNm2YmprKwsJCuru7U0FBgdOmTfvs+/P48WP27dtXkK1Lly6CQvDo0SP26dNHyLO1teXmzZuFc/ft2ye6LqlUKlN//fr1RfllSvm7aaampiRLlZx3011cXEiWjhX+/v5Cep8+fRgdHc3MzEwOHz6cVlZW7NSpk6DwHjp0iAEBARw+fDgbN27MJk2acOjQoSKljCz98w8LCxPqnTRpkuDt2LhxY0qlUtavX5/5+fn85ZdfOGPGDOFZHz16lGSpt7GnpycDAgIYEBDAn376iRkZGRV6Flu3bhXqCQgIeO+HWkJCghBuRSqVctq0aUxNTeXjx4+F++3t7c38/HympKQwICCAZmZmdHBw4Jw5c5iSksL8/HwOGzaMUqmU3bp1Y2JioqjtgIAAoR8sXbpUlH7y5EmSpWFMTExMOGbMGAYEBLBjx46USqVUUVGhqqoq9+zZU6H78C7BwcFs0KABTU1NGRAQwPv37zMoKEjoB6dPn+bbt29lZC/7gKpM5IqZnM/i7NmzwlfPu4SHh/Pbb7+lRCKRCaXxb2fDhg10cXERYqjJ+bp5+/YtJ06cyH79+omeWXx8PI8ePcq6deuyfv36Ff6AqGxiY2PLnY2Njo4ut3xCQsInz/o9ePBAmI0oo6CggOHh4aKA02/fvqW2tnalhmmQI+dT6dWrFydMmCCTHh0dze+++04mlMa/HbliJuezcHd355gxY8rNy8nJobW19f+UYhYdHc06derw3LlzVS2KnI/k6dOnBCDMnv2VssCkFZ19+F+luLiYgwcPFmY05cipKj4UD3Hr1q3/c4qZ3CtTzmdhbm6O7du3o0uXLrCxsYGGhgZSU1ORmpqKefPmQSKRwMHBoarFrDTmzp2L2bNnC55Bcr5+NDU10bRpU4SEhMDa2lq0j2ZwcDCCgoIwbdo0mXhZ/9/Zvn074uPjceTIkaoWRc7/c9q2bYvjx4+jTp06wj6oeXl5CA0NxYEDB7B8+fIqlrBykZB/cY2SI+cTKCgowL59+xAWFobIyEhoaWkhJSUFLVu2hLe3N7y8vP6nYm3J+Xfy8uVLzJ07F1FRUbh79y4AoH///tDU1MSIESMqxbvrf40XL15ASUlJCOgpR05VkZ2djdDQUNy8eRPBwcHQ1tZGly5dYG5ujgEDBvzPfVTJFTM5cuTIkSNHjpyvBHkcMzly5MiRI0eOnK8EuWImR44cOXLkyJHzlSBXzOTIkSNHjpz/UYqLi6taBDmfiFwx+5dQWFiI48ePY+DAgTJbvHws58+fx4oVK7BkyZJKlq7yKS4uxvHjxzFnzhyEhIRUtTjvpaioCH5+fpg1a1ZVi4KIiAj8+uuvmDNnTlWL8rekpKSgf//+WLNmTVWLUmVkZ2fj+PHjmDZtmsw2XHK+XjZt2oT+/fvj0aNHAEq3Vjp+/DiGDRuGrVu3VrF0pWRnZ2P//v3o378/2rVrV9XiyPlUqjRYh5yPJiQkhMbGxgTA2bNnf/L50dHRdHR0ZI0aNditW7cvIGHlsnfvXjo4OFBBQUGIfv81kpmZSXV1dWpqajI5ObnK5Hj48KGwxZSrq2uVyfGxHDx4kADo7Oxc1aKIKNsa5p9gzZo1tLW1FbZ8kfPvoF27dgTAnTt3kiyN9+bg4EAlJSXRFmNVyfPnz+nm5kZ1dfV/fDzIycn57O3qvmays7NZVFT0RduQz5j9S+jbty+io6MrvDF4gwYNcOvWLTRs2LCSJfsy9OzZE7dv30bNmjWrWpQPoqGhgVu3buHq1aswNDSsMjksLCwQFRWFli1bVpkMn0K3bt0QFRWFAwcOVLUoAo8ePcKCBQv+sfbGjh2Lixcv/mPtfQ5v377FyJEjUVJSUtWiVDnBwcGIiopCnz59AACKioq4ffs2dHR0qliy/6Krq4vw8HC4urr+421v3boV69at+8fb/aeYMWMGnj9//kXbkCtm/yJq1aoFiURS1WLI+Qvm5uaoV69eVYsBJSUlqKurV7UYH02jRo1Qp06dqhZD4OjRo8jNza1qMb5K0tPTsX79elAeXQm6urpo1KgRFBTkf5/lERYWhpcvX1a1GF8EkhU2JfoU5JH/v2LS0tLw559/AgAMDQ1hamr63rIvXrxAXFyccGxtbQ1tbe2Pbis/Px9RUVHCcd26dcsNuvnmzRvcu3cPTZo0AQDcuHEDBQUFqF27NmxsbIRyly9fBkno6+vD3Nz8o+X4EPHx8UhPTwcA2NjYCEEF09PTER8fD6BUOSmLDA0Az58/x8OHD8vNK6uzRo0aqFu3LjIyMvDgwQNUr14djRs3Fsrcvn0bOTk5UFdXf+8uBjExMahfv36FrqugoAA3btwQjh0dHd8blDc6Ohpv3rwBADRu3BjVq1d/b713795FVlYWgPf3nzdv3iA6Olo4/lCdT548QVJSEgCgZs2aaNCgAWJjY0FSdO2PHz/Gs2fPhOMmTZpAWVlZpr6HDx9CRUUFRkZG772GD5GamirY+SgrKwv9VVdXV1QuKSkJT548EY4bNGggmol9/vw5Nm/ejJ9//hnffPMNLl26BAAwMjJCdnY2MjMzAQAGBgYwMzMTzouJiXlv3ufw+vVrxMbGCscaGhqwt7cXjnNzc3Hr1i3h2MnJCSoqKjL1XLlyBW/fvgUA1KtXr9wZnbdv3+LKlSvCsZ2dnUxA2ePHj+Pnn38W6lRQUIC+vj6KioqQkZEBoPSeW1lZCec8ePDgvXkAkJOTg9u3bwvHJiYm5faDzMxMxMTECM/s3b7VokULmfIfw7vjCAA4Ozvj2bNnoj5S9jwjIyOFWUIrKyvo6uqipKQEkZGRcHFx+Sjl7PXr17h06RIOHjwIqVSKrl27isaRxMREJCcnC8fvjj/Xrl1DUVERAHE/iIuLw4kTJxATEwNTU1N07dpV1EfKIy0tDUFBQUhISECvXr3wzTff/K3sn0JKSgpmzJiBs2fPwtzcXHiPmjVrBiWlUlUjKysLly9fxr59+2BsbIxu3bqhQYMGonrK3mtnZ2ekpqbi/PnziI+PR/fu3dGoUSMAwNWrV7F3715oa2ujc+fOMmNvYWEh5s+fjzFjxkBdXR0hISGIjIyEs7Mz+vXrJ9r9o4wjR47g0KFDAIBWrVqhT58+onErIiICs2fPRnJyMnbv3i38l3xsP/gkvuhCqZwKkZ+fz+3bt1NPT4+6urqUSqU0MzOjpaUlJRKJjI3ZoUOHaG5uTh8fHwYEBLBJkybU19fn0aNHZepu0aKFjI3Z3bt36ejoyPbt2zMgIIAdO3aknp4eFy5cKJQpLCzkiBEjaGxsTEVFRY4ePZpWVlbU0dFh7dq1qaamxoMHD3L37t20tLSkVCqlpqYmtbW1ee3atQrfCw0NDbq6urJVq1a0t7enVCpl7dq1aWBgwFOnTpEkb968yeHDh1NTU5Oampqi86OiosrN++OPP9iqVSuqq6tz9OjR9PHxobm5OfX19amkpMROnTrx0qVL7N69u/AMVFVVOXDgQObl5ZEk09LS2KxZM1paWrJly5YVur7Y2Fja29vT0NCQAQEBtLa2poWFBdu1ayeyY7h58ybr169Pa2trBgQE0NDQkPb29oyNjRXV17FjR0qlUjZs2JCmpqaUSqU0MDCgvr4+t27dKtqgOioqinZ2duzcuTMDAgJoZmZGCwsLrl69WlRnTk4Ov/vuO+rp6XH06NEcOnQodXV1aWlpSTMzM9rY2DAtLU3oI2ZmZhw/fjwDAgKor6/PBg0a8OnTp0J9Fy9epKurK9XV1d+7/93fcebMGdrZ2dHV1ZUBAQF0dHRknTp12LNnT1G5tWvX0tzcnCNGjGBAQAAtLS1pbm7OGzduCGVu3LhBqVRKRUVFqqurUyqVskmTJjx9+jQ3bdrE1q1bU1FRUcZ+aNOmTfT19S0372PJyMiQsTE7d+4cNTQ0CIB6enr08vIS8vbs2SPTDzw9PUX9IC0tje7u7rSzsxONB02bNmVqaqpQ7vDhw2zevDlbtmzJcePG0djYmIaGhgwPDxfJ6OjoyFq1ahEApVIppVIpN27cyJCQEI4bN47VqlVj//79Ree8m+fo6MiSkhLR/baxsaGNjQ0DAgLYtm1bmpubc+3ataI65syZw7p16xIAFyxYwDZt2tDMzIxGRkYEwFatWjElJeWT7/nkyZOpqKhIBQUFurq6MjY2lqtXr6aKigoB0NTUlEeOHCFJTpw4kdWqVaO6ujpv3brFAQMG0NzcnACYk5MjqldfX1+mH9y8eZMtW7akg4MDAwICOHjwYOrq6nLQoEHCOHLixAk6OjoSAKtXry4a3xcsWEB9fX02a9aM69evZ1FREadOnUpdXV36+fkxICCAgwYNoqqqKkNCQmSutXPnzpRKpZw2bRr19PSE56eqqsp27dqxuLj4k+/f+7h48SIHDhxIAPTw8GBAQAADAgKE67x8+TLd3d1pa2vLgIAADhkyhLq6uhwwYIBQh6urK3V1dQmAo0aNorm5OaVSKevUqcNq1apx/PjxHDFiBHV0dCiVSqmjo0NVVVUeP35cqGP27Nk0NTUlAPbq1Ys2NjY0MDCgVCqluro6bWxseOfOHaF8RkYGW7duzT59+ggyN2/enA0bNmRcXJxQbsWKFfT09CQAenp6CmULCgoq7R6WIVfMvkI2bdpEiUTCyZMn8/nz5yRLN2Iu6/Tvvrjx8fFUU1NjQECAkFZSUsK2bduyZs2a/PPPP0V1l6eYGRoasmPHjqK0qVOnEgDv3btHstTANTw8nN7e3gRAJSUlbty4kYmJiUxMTBRehIYNGwpGsbdu3aKuri49PT0rfC80NDTo6OgoGnQSEhJoZmZGdXV1Pn78WEj39/eXUczel5eYmMhz584RACUSCX/44QfGxMQwMzOTCxYsENLHjh3Lhw8fkiSnTZtGAMIG5jk5OQwPD2eLFi3YokWLCl3fyJEjqa+vLzI6X79+PSUSiTB45OfnU1dXlx07dmR2djZJ8vXr13R1daVUKhXV17FjR+rr63PlypXMzMwkWWqs2qFDBwIQ/sBjYmKoq6vL//znPzLyqKqqitJmz55NAFyxYoWQdvToUQLgmjVrhLSFCxeK+gxZakyvp6cn6rNPnjxheHj4Bzcm/jucnJyooaEhHOfn59PHx4e1atVieno6SfLx48dUUVFhUFCQUO7Nmze0trZm48aNZQyUDQ0NOX78+HLbK+9P92Py/o7yFLPExERaWVnRx8dHtLH63bt3qaurKyr7+vVrGhoa0sPDQ0gbPXo0ATAhIYFk6XgQHBxMFRUV7tmzhyT57Nkz6ujoiBTZgoICDhgwgJqamnz27JlIzkWLFhFAuX/kDg4OMopZGfXr12f79u2FD4KioiI2btyYzZo1E5ULCgqioqIiz58/L6RFR0dz/PjxgsKybds2Jicns6CggDNnziQAzps37z139sMMHTqUGhoaIoWx7L1fsGCBkPb27Vs2atRIkOvy5cucMGHCRytmffv2ZbNmzUR/3nv37hWNI2TpWGJsbMzmzZuLPp7evn1LZ2dnRkdHkyRPnjxJAFy+fLmonZ49e9LU1FR0LlmqmJUpShcuXBDS/f39CYAHDx78qPv1KSgpKTEwMFCUlpuby/r167Nhw4bMz88X0letWkVlZWVGRkaSJK9cucIpU6YQALt168ZHjx6RLB1HWrRoISiuSUlJJMnU1FQC4Ny5c4U64+PjGRYWRgA0MjLisWPHmJWVRbL0+WlpaYnG665du1JBQUEYW0ny5cuX1NbWlhkPgoKCCOCLO3rJF8m/QhYtWoSWLVti2bJlwrKMkZERfvrpJ2FKuIycnBwUFRXB09NTSFNQUMDkyZORk5MjLHt9iOfPn8Pb21uU9v333wMoXZIESg1c3dzcULduXWhpaeHJkycYNmwYTExMYGJigsaNG8Pc3Bznz59Hv379AJQuyVXGMmbnzp3Rt29f4VgqlWLp0qXIzs6usJGpiYkJ3NzcAACjRo3CvHnzYGdnBw0NDfj4+AAA5syZgzVr1sDCwgIA0KNHD1EdampqcHNz+6Ql4/JITU3FjBkzhCWa4cOHY8aMGXj69CkAYNu2bUhPT8fz588xatQoDBgwAGPHjsXr16+RlJQkWooCSpdcxo8fDw0NDQCly46BgYEAgIULFwIoNXRPT0+Xee7l2XxdvnwZtra28PX1FdKcnZ1hZGQk9A8AiIyMFPpBGVpaWlBWVkZaWpqQZmxsLNz7ipKWloa8vDxs2LABT548QfXq1REcHIx+/foJdpg3b95E9erVReECatSoAXV1dWEJ/msjODgYbm5uGDJkCIKDg0V7AI4ZMwbp6ek4efIkBgwYIPSDrKwsYdkIABISEgAA48ePx59//gkFBQX4+Phg0qRJwvJieno63rx5I7znQOlycJcuXZCZmfnee8MK2JjVqVNHeCZly/Z+fn6iMs2bN0dJSQlevHghpDVo0AA9e/YEAGzevBkDBw6EoaEhlJWVMXfu3M+yt/Xy8kJWVhZ+++03kZwARMuKV69ehY2NDdzd3QGULltZWlp+dDtl7+y7S2LlvWNqamoYN24cLl++jD/++ENIP3HiBPT19YXlvpo1a6JTp07CfSnDx8cHCQkJ5TqTWFtb49ChQyJHgLLn/u57+SU5fPgwYmJikJKSgmHDhgn998iRIygsLMSqVasAlI4rZfd327ZtgnmAlpYWPDw84Ovri1mzZqFu3boA/tu3tm/fLrRlaWkJFxcXAEBQUBA6duwo2N66uLigd+/euHTpknCvzM3NMXv2bJF5Q61atT5oJvKlkduYfWVkZmbizz//FJSbd5FKpTJr2fb29khKSoKysjLu3LmD6OhoREdH49SpUx/dZnJyMtTV1XHnzh0kJSXh7NmzuHPnznvLq6iowMDAQCa9du3a0NTU/Oh2P4fOnTtDTU1NZJtVUd5nG1RZNkMfws/PDzdu3MDatWuxY8cOYfN3Pz8/YTDZvXs3AMDT01Nke1ZmgPwxnrb29vawtrbG48ePAQBdunRBamqq8NzPnDmD5ORkRERElHt+2QdAGXl5ecjPzxeV2b59OwoKCpCRkYGkpCRB7jI7rMrkl19+wcSJEzFixAioq6vDx8cH3t7emDdvnmAj1blzZzx69AglJSW4c+cOIiIi8Oeffwp2cl8TycnJ8Pf3x/Lly7Fq1SqMGDFClP/y5Us8fvwYNjY2wp9OGX81RJ8xYwZiYmJw6NAhnD17Fo0aNYKfnx++//57wc7MwcEBT548EZ7/9evXERsbi/v371f6tZ0+fRolJSVQVFREjRo1kJqaCj09PcTHx+PevXv4448/cP369Q/WUdnvYocOHdCoUSPs3bsXo0ePhoKCAkJDQ6GlpYXg4GD4+fnByMgIoaGhMh8vn8KePXtQrVo13LlzB0eOHEFGRoZI8XqXiRMnYsWKFVi4cKHw4RIWFiZqv3nz5jh69CiePn2KzZs3IyYmBgBECuZf0dPTq3Lv9rJxZ8+ePTL2hgDKtfn6FHr37i06Lvtf+Ku9JPDfvvT48WO0atUKK1asQFZWFs6dO4ejR48CKLUnS01N/SyZPgf5jNlXxvHjx0V/gH+HRCLB3r170bBhQ3h4eODChQsoLi7+oKPAX7l69So8PDzQqlUrrF+/HsXFxeUa/n9NVK9eHRKJRDDs/7diYWGBS5cuYdeuXbC0tMTZs2cxbNgwNGrUCFevXgUAQQEaN24cpk6dKvpNmTKlXMPvv6Kqqioyrs7Ly8PixYvRrFkzdOzYEYmJiSguLi73D/D7779HcnIypk+fjpcvX+Lly5eYMmUKSkpKMHbsWKHc27dvMWTIELRo0QJTp05FcXHxF4s67u3tjVu3bmHp0qVwcHDAxo0b8c0336BTp07CrJBEIsGkSZPQqFEj+Pr64sGDB1BTUxPNQn0tBAYGYt26dVBWVsa2bdsEp40yMjMzkZSUBHNzc5k+UNYPymjVqhWio6OxZs0aNGvWDFeuXIGnpyfatGmDCxcuCOWCg4Ph4uICDw8P7Nq1C8XFxV8kHEbdunVFs1sRERFo3rw5XF1dsWPHjioZb5SUlNCjRw+cOXMG169fR1paGq5du4ZNmzbh1atXOHfuHADg/v376NKlS4XaePv2LeLi4tCwYUO4u7sjNjYWdevWxejRo8str6Kigt69e+PKlSt49OgREhISEBMTAy8vL6FMeno6OnXqhCZNmmDnzp0oLi6Gu7s7unXrViEZ/2mcnJxQp04dmV/Z7H5F+atiV6awljfD2759e9FxREQEGjZsiFGjRgl9cc2aNZ+9EvI5yGfMvjKMjY0/ycNjxYoVmD59OlauXIkRI0YIA+CRI0c+KkZUeHg4PD09MX36dBw/fhy1atUCULq89jXHoklOTkZxcbFoifPfyJ49e9ChQwf06dMHffr0wb1797B48WIEBQVhypQpoqWJxMTECsdKevHiBc6cOSN8iQ8bNgy7du3CqlWr8N133wnlfvzxR5lzra2toaenh4SEBGGw8vX1RUREBGxtbQGUemR16NABL1++xNmzZ2FtbS2cHxYWViGZP8SECRMwe/ZsTJkyBVOmTMH58+exfPlyHDx4EP369cOpU6fw/fff48iRI9iwYYNo6efIkSMwMjKSMQuoSjp16oTQ0FBERkZi6NCh6NKlC44cOSJ88aupqUFHRwfPnj1DQUHBB5dZTp48CQcHB4wdOxZjx47FpUuXcODAAaxYsQKTJk1CVFQUVq5ciR9++AFDhgzBzZs3hXN37tyJY8eOVeq1qaurC+PS4cOH4eXlhXbt2iE+Pl6YFX7w4AG2bNlSqe3+Hd7e3pg1axbCwsJQv359jBs3Dj179oS+vj4WLlwICwsLODk5VXhJKyIiAm5ubujVqxeCg4OFet5ddv4r48aNw6ZNmzBy5Eg0atQI3t7eIqXD29sbFy9eRHBwsGjsq1WrFg4ePCjjkfy1sWvXLgwdOvQfa++vHzgAhNUkqVSKpKQkdO3aFZ06dcLWrVtFY0JFY4ZWBvIZs6+MFi1aoFWrVti0aZNMpzp27JjMF+2iRYugoaGBkSNHCoNfWloaDh8+/FHtLVq0CCQxYsQIQSl78+YNdu3aVQlXUzn81YaqpKQEs2fPRn5+vsyyTklJiUwMnQsXLuDEiRNfXM6KcPToUUyfPl04trW1xcaNG9GhQwfExMTg2bNnmDhxIoDSZ/Uu+fn5mD17tmBTVEZWVpaMjdAvv/wCAJg0aRKA0hASLi4uGDVqlOi88PBw0XnZ2dlwd3eHgYEBfv/9d+Tm5iI3Nxfr168XlDKgtM/cvXsX06dPFyllFy9exOvXrz/1tvwte/fuxfLly4VjDw8PIb5QUlISsrOz8euvv8LKykqklD179gyJiYmwtLQsd+B9N4zCX/lrP3z+/DkmTpxYKXY6PXr0gJqaGtq0aYO5c+fi2rVr6Ny5M169egWgdDlq6NChuHnzJnbs2CE69+nTpyL7oT179mDo0KHCbEGLFi2wcOFCtG/fHjExMbh27Rr8/f1Rp04dwbYHKN1e7Pjx458su66uLq5evSqE5ijj2LFjSElJgZGRkTA2lfXhkJAQUcy9sjAF/yR2dnbo1q0bli5dCj8/P2H5eOLEiYiNjUXr1q1l7Eo/hbJ3ycvLS1DKMjIyPvjBXK9ePWEmb/Pmzfj2229F+UlJSVBUVBQpZS9evMB3330HBQWFz/7YiIqKwqRJkyr9nR0yZAi0tLQwa9Ys0fj85s0b9OrV69Oo7QYAACAASURBVKNNUsp7P9u3by8T8LVsVmzTpk0oLCwU0nNycrBx40a4uLjAzc0N+/btw+vXr9G6dWvRvVu8ePEH78GHxolK4Yu6FsipEHfu3KGRkRE9PDx4/vx5RkVFsW/fvjQzM6NEIqGnpycTExNJkm3atKGioiJHjRrFR48ecenSpXRxcaGenh4BcO3atUxISGBeXh5v375NY2Njqqmpcf/+/SwsLOS2bdsIgN27d+fVq1e5ZcsWdu3aVXBJHz16tHB+QkIC3dzcqKioyEWLFjE7O5uFhYU8ceIE7ezsWL16dW7atIm5ubnMy8tjdHQ0jYyMhFAaFdmmQ0NDg3Xr1mWHDh145swZRkdHs1+/fgTAMWPGiLydbty4QWVlZTo7OzMwMJCBgYEcPHgwW7RowZYtW1JFRYV//PEH3759y9evX/PUqVMEQAsLC968eZNkqZdcmReil5eX4JGZlpYmeLt5eHgwNTWVhYWFfPDgAa2trWlsbMzbt28LruEfy+rVq1mtWjV26tSJ586dY0JCAvft28caNWpw2rRpJEs9swIDA6mqqkpPT09evHiRO3fupKOjI5ctWyaqr2PHjtTW1mbDhg159epVJiQk0M/Pj8rKyuzXr5/gtVXmpbl48WLeu3ePgYGBtLKyYt26dSmRSLh161YmJCQwNzdX8MStXbs2LS0taWlpyZkzZ3Lx4sWCB+SLFy9oZGREGxsbHjt2jIcPH+aQIUNoZmZGTU1N1qlThwkJCUxJSeHr16955swZSiQSOjo6Cn35U/D396eCggLbtGnD+Ph4JiQk0N/fnyoqKty9ezdLSkrYo0cPqqio8Mcff+SZM2cYGBhIFxcX1q5dW/BIezeMh5WVldBHQkJCOGHCBCFv6tSpQnuBgYH09/enubk5Bw4cyJo1a9LNzY0JCQkyXnEf4uXLl9yzZw8BcPjw4YKnWXp6utDHmzdvzpMnT7KoqIivXr1is2bNqKyszHXr1jEhIYE7d+6khYUFly5dKtRb5rnXvHlz3r17lwkJCbx48SLr1KnD7t27kyz1SqxWrRonTpzIhIQEhoaGsk+fPtTR0SEABgcHMysrS/A8XLx4MQHw5MmTvH37NocPHy60t3btWgLgoEGDGBgYyB9//JGWlpbs3bs3dXV1qa6uLnixrVmzhgDYt29f3rp1i+vXr2eHDh1oamrK6tWrc+rUqUxISODLly+ZmppKd3d3AuDSpUuZlpZGstQTdf369YIXeEX6TxmhoaFUUFBgly5dhLS4uDgqKyuzQ4cOIq9NstQ7ftCgQQTACRMm8NWrV8zOzua2bdtYs2ZN6unpccuWLczKyuKRI0eooqLCRo0aCeORu7s7pVIplZSU6OHhwYSEBMF7uozY2FiqqKjQ29tbRt6BAwdSIpFw6NChDAwMZL9+/digQQPq6+sLHqVl4/WSJUtYo0YNqqqqMjAwUPCGfPjwofBOd+/enffv3xfqt7e3JwCOHDmywvdUU1OTUqlUuOahQ4eSLA2noa6uTgcHByGva9eu3LBhg3DuoUOHaGdnJ/SRsvFlx44dNDIyorKysnAtWVlZDAwMJADq6OiIvGnnzZtHAKxZsyZ79uwptGdmZkYDAwPeunWLZOm7Vq9ePSGyQWBgIFu1aiWEe9LV1eWFCxeEsCw3btygmpoazc3NGRgYSF9fX+7YsaPC9+p9KM6ePXv2l1X95Hwqenp6+Oabb3DkyBHMmzcPt27dQvv27bF27VqsXr0aKioqePToEbp27QpXV1cUFxdjw4YNCA0NhZGREebNm4dp06bhyZMnWLZsGQ4fPoyOHTti+fLlsLCwgL29PeLi4tCsWTO0atUKqqqquHLlChYtWgRNTU1MmjQJCxYsgEQiwbFjx7B8+XL07NkTCxYsgLa2Nho2bIiMjAwYGBhAVVUVq1atgrGxMRo0aICnT5/CxsYGWVlZWL58OSwtLWFvb48HDx7AxcXlkyPTJycnY+PGjUhNTcXixYuxcOFCkBS+ct+d9TAwMICFhQXu3buHrVu34tWrV3Bzc8OCBQuQlpaGixcvYsuWLWjQoAGSk5MRFhYGJycnmJqa4u7du+jUqRP27NmD27dvC0E7Hz16hNatW2PTpk1ISUmBk5MTateujbS0NJiamuLnn3+GiYkJLCwsEBkZCXt7+0+yTbCxscGbN29QvXp1HDt2DJMnT0ZMTAxGjRqFOXPmQCKRQCKRwN3dHQ0bNkR8fDymTZuG1NRUzJ8/H/379xfV9+LFC6xatQpaWlpYvHgx/P39UVJSgvHjx2PGjBmoUaMGAKBt27bQ1NTEvHnzsGHDBhgZGWHRokUIDAxEYWEhpk+fjitXrqBr164YOnQo5s+fDzs7Ozg7O0NJSQnbt2/HqVOnEBQUhOrVq6N169aoW7cuHj16hPnz5+Pu3btwdXXFmjVr0Lt3b0RGRsLf31+wh9u9ezcaNWoEQ0NDXLly5ZPteOrXr49Xr16hVq1a2L9/PyZMmICaNWti3rx58PLygkQiQbt27VCrVi0sX74c58+fh7W1NRYsWIARI0YgJycHs2bNwuvXrwX7HFdXV2RlZWHatGlQVVWFt7e34JHbsmVLFBYWIi0tDceOHUO9evWwYsUKjBgxAidPnsTly5dx8OBBjB49GoqKih91DYcPH8bx48fh5OQEALhz5w7at2+P7du3Iz09HU5OTtDV1UVMTAxatmwJbW1teHl5QUdHB3PnzsWiRYuQmpqKJUuWYMCAAUK9JiYmkEgkUFFRwe+//44ZM2bg9OnT8PHxwapVq6CsrAwPDw+kpqZi48aNWLVqFZSUlDBo0CD89NNPiIuLw+rVq7Fnzx60bNkShoaGMDExQXp6OqZPn46rV6/C3d1dCPDq6OgIS0tLhIaGYv/+/VBXV8eYMWMwe/ZsXL16FbGxsQgKCoKrqyu6d+8ORUVFhIeHY/78+SgoKEDv3r2xbt062NjYYO3atfj1119ha2uLP/74AyUlJXByckJ6ejpevnyJZs2a4dy5czh16hScnJwq3H/KsLOzw/Pnz+Hn5wd9fX0AgLa2NiQSCby8vGQM1efMmYPi4mI4OTmhqKgIysrKyMrKwv79+wUHm8TERDg7O6NJkyawtbXFmzdvkJmZiby8PMyZMwc///wzDA0NkZubiwsXLkBDQ0Pk6amrq4szZ86IvA/L6Ny5M0xNTZGcnIzMzEw0bNhQcIQxNDREbGwsLly4AFtbWxw8eBAODg5wcHBAZmYmHBwcoK2tjVOnTiE5ORlOTk6oUaMGSkpKhIC2zZo1Q3R0NNTU1ES2bZ9Cr169kJWVhfT0dKirq2Pq1KnQ0NCAiYkJvLy8kJ6ejvT0dGRmZqJbt26iWcENGzZAR0cHTk5OUFZWhru7O9TV1bFy5UpYWFjA0dERmZmZ6NSpE4qKihAaGgonJydhHC3rBxcvXsSZM2ewaNEitGnTBpGRkcjMzETTpk2xdu1aIRh6jRo14OXlBRUVFeGe+vj4YMOGDejbty9KSkpw+fJlKCoqwt7eHgYGBmjevLkQeLp169Zo3bp1pe+4IiHle2zIkSOnfAoLCzFgwADY2Nhg7ty5orzY2FhMmTIFN2/eRGxsbJUay8qR87/CixcvMH78eOzcubNK2u/RowcsLS2xZMmSKmm/Mpg/fz6mT5+OLVu2YPDgwVUtzicjtzGTI0fOe3n16hXCwsJEtmhl2NnZoWvXrnjz5o3IjkOOHDkfT35+Pu7duyccr169GuPGjasSWVasWIHo6Ogqa19OKXLFTI4cOe+lRo0aqFevHry8vLBp0yYhXEZ8fDzmz5+PBQsWYPfu3eXGtZMjR87fs3btWjg4OKBXr16YMWMG7t27h1atWlWJLOnp6Th06NA/EsPxSxEfHy/EYzxx4oRo395/C/KlTDly5HyQ5ORkHD9+HCdPnhSl169fH2PGjPnqXfTlyPmayc7Oxm+//Ybr16/DxcUFI0eOFAWSlvNpBAYGCnHMgFLb0XdDAv0bkCtmcuTIkSNHjhw5XwnypUw5cuTIkSNHjpyvBLliJkeOHDly5MiR85UgV8zkyJEjR44cOXK+EuSKmZyvipYtW6Jfv37Iy8uralHeC0n8+uuvaNOmDTp16lTV4vxriIiIwLRp02BtbS3aTPt9/PTTT7C3t4eVlRVyc3M/WLaoqAjLli3DwIEDP8ujraSkBCtXroSbm5sQdPOf5unTpwgICICtra2wr9+nkpmZCSMjI/j4+FSydJ/HgwcPMG3aNBgbG+Po0aMfdU56ejrs7e1l4uiVx+LFi+Hl5QVvb+/PFVUOSuOBOTg4YODAgRU6f9u2bfDw8IC+vr6wMXxlsm7dOrRo0QL6+vqIioqq9PqrCrliJuerIi8vD+Hh4V9+L7LPgCTi4uJw69YtREZGVrU4/xri4uKQnJyMuLi4j4p7VlxcjIyMDNjb2ws7FryP3NxcPH36FFFRUcjIyKiwjIWFhXj8+DEyMzPx4sWLCtfzOZw/fx4JCQm4f/9+hePDPXr0CK9evcL9+/crWbrPIy4uDnFxcUhKSsKdO3c+6pzMzEw8e/YMcXFxf1u2pKQE165d+yL7s/5/pLi4GC9fvqzw/SwpKUF+fj7S0tK+SKzDkpISZGZmIi0tDUVFRZVef5VR6Zs8yZHzGaSnpzM+Pr6qxfgopk6dylq1alW1GP8qrl27RgA8derUR5V3dnZmjx49Prr+QYMGsW7duszIyKioiCTJMWPG0MTE5LPq+Byio6MJgIcPH/6sOt68eVOJUlUOqampVFNTo5+f3xepv23btmzbtu0Xqfv/Iy1bthTtJfqp3LhxgwB4/PjxSpTqvwwePJgAeOXKlS9Sf1XweVvRy5FTyejo6EBHR6eqxZDzL6akpATFxcVVLUaV06BBg6oWoVzq1KkDJSX5X48cOe9D/nZ8hWRkZODixYtQVFRE27ZtcfToUcTGxgIAPDw84OrqiuzsbOzbtw+JiYkAAE9PTzg6OorqKSwsxOnTp3Hjxg0hrXPnzjK2M2XtKSkpoUuXLrh16xYOHToEoHQQ7du3LzQ1NQGURlK+evUqAMDU1BSDBg0S6jl+/DiuXbtWbl5hYSFOnTol2AE0atQIDg4O0NXVFZap3rx5gzt37iAqKgpjx44VyZiWloZ169YJxyYmJujVq1elbx77Pp4/f44NGzagpKQEEokEgwYNQlZWVrllX7x4gaCgIOTn5wMo3ZS+b9++0NLSEsq8ffsWT58+xY4dOzBmzBhUq1YN+/btQ0JCAgCgW7duaNiw4Re9pry8PDx//hwHDx5E586doaWlhS1btuDNmzcwMjKCl5cXNDQ0kJaWhvXr14Mk6tWrh27dusksLb5+/Ro7d+4Ulv/q168PNze3j1Kyr1+/jmPHjgnHDg4O6NGjh0y5hw8fCvsHampqYtSoUahevbpMOS0tLejp6QEAFi5cKCyhdO/eXaSsvJvXo0cPODg4vFfG9PR0/Pbbb6K0wYMHQyqV/u31VTa3b9/GgQMHAJT2ra5du8psdv38+XMkJCQgPz8fbm5uQnpKSgqOHTsGJycnODg44Ny5c7hy5Qpq164NT09PGBsbf3H5c3Nz8fbtWwCl7/yBAwfw559/AgA6deqEJk2aiMonJSUhNjYWr1+/Rp8+fUR5MTEx2Lt3r3Dcq1cvmfZ2796NBw8eAChVVrt3715unqOjIzw9PQH89/0MDg7GyJEjUVRUhPXr1wvndenSRdh8/p8mNTUVp06dQm5uLnx8fBAWFoabN28iJSUFvXv3Rr9+/fDq1Svs2LEDYWFhMDExQb9+/dC5c2eZuq5du4bQ0FDs27dPeOdHjhwJZWXlv5Xj3r17CAkJQXBwMGrXrg1vb28MHTr0o975TZs2ITk5WTh2cHDA8+fPsXjxYgDAyJEjMW3aNCHf398fe/fuhZKSEvbu3QtbW9v31l1QUIDff/8dmZmZQlrTpk3RsWNHAKXjSHBwMLZt2wagdFzw9/cXBcp+8eIF/vjjD9y9exd9+vSBrq4ufvvtNwQFBcHAwAD+/v5o3779R92nClHVU3ZyxJw7d47GxsaUSCTU19dngwYNqKenR19fX5qYmFBTU5Nz586ltbU1zczM6OvrSx0dHerp6fHevXtCPW/fvuWwYcPo4ODA4OBghoeHc+jQoVRUVOTvv/8ulDtz5ozQnru7OwcNGkRVVVV6eXmxTZs2BMBWrVoJ5R8+fMjjx4+zbt26bN26tUj2+Ph4Hjt2rNy8IUOGsEaNGvz5558ZEhLC3r17UyKRcNSoUSRLlzDt7e2poKBAGxsb0blbt26llpYWZ86cyfDwcP7+++80MzOji4sLX716VWn3/n3Mnz+f2tradHV1pa+vL4cNG0YlJSUCkFnKjImJoZ6eHseNG8fw8HBu2bKFtra2tLOz47Nnz4Ryvr6+VFRUJADOmDGDNjY2bNOmjfA8dXV1GRMT80Wva9KkSVRQUCAAdu/enXXr1mXTpk357bffUkFBgc2aNePkyZOpq6tLd3d3Nm7cmBKJhMOGDRPVc+HCBdrZ2bFXr14MDw/n3r176ezsTD09PT548EBUtrylzLNnz9LExIQSiYTe3t48e/askOfs7ExtbW26ublRX1+fvr6+7Ny5MyUSCQcPHsySkhJR/YMGDRL1n4sXL3LhwoUEwK1bt4rKvpu3bds2Ud5flzJzcnI4fvx4AqC+vj4nTJjwRfteeUuZJSUlHDx4MA0MDLh06VKGh4eze/fuVFVVZWhoqFBu9+7drFOnDgFw4MCBQnqvXr1Ys2ZNAuCQIUPYtm1b2tnZ0dfXl6qqqlRWVualS5e+2DWVceDAAQKgu7s77ezsaGxsTF9fXxoYGFBbW1t0LTdv3qSamhoByCxpBwcHs3r16qxfvz59fX3p6+tLfX19amlpiZYy7969y99++03oM+9y9+5d7tmzh5qamhwyZIiQPnLkSOH9bNq0KWvXrs3WrVsLbejo6DA6OvoL3aH38+zZM+ro6FBBQYFqamq0sLCglZUVfX192aRJEyooKHDmzJm0srKio6MjfX192a1bN6qqqnLPnj2iutauXUsDAwOuXLmS4eHh3LFjB1VVVTly5EhRufKWMnfv3k09PT0uXLiQ4eHh3LdvH11cXKinp8f79++Lypa3lBkREUEA1NXV5bJly3jv3j3ev3+fhw4dop6eHj09PUV13L9/n9u3bycAhoWFifIGDx5MY2NjZmVlkSSzsrIYGhpKADQ2Nubq1asF85j9+/dTR0eHISEhDA8PF96hvz7PIUOGCGN8t27daGxszN69e9PX15dWVlYEwJ07d37Ko/sk5IrZV4qZmRkVFBQYFBQkpCUkJFBJSYk1atTgoUOHhPTIyEgC4IYNG4S0w4cPEwAPHDggqtfb25sAZGxwpFIpFRUVOW/ePBYUFAjpHh4eVFdXl7H7+uabb2SUrw/laWpq0tDQUJS2bNkyGhkZMTc3V0gbPHiw6I/19evXNDY2pqurq+jcvXv3EgDPnDlTrgyVxdOnT1m7dm327NmTxcXFQnpKSgo1NTVFillubi4dHBzYoEED5uXlCekXL14s90XetWsXAdDR0VFkH3H16lWZP9UvxZ49ewiAjRs3ZlxcnJA+YcIEAmDbtm2ZkpIipJf1n5cvXwppVlZWtLKyEtX77NkzAhD1X1JWMcvJyeHSpUupp6fHgwcPysjn7OxMAOzbty8zMzOF9ClTphAA9+3bJyr/V8WMLH2G5Slm7+b9nWIWGRnJxo0bs0ePHqL79KUoTzE7ffo0ATAyMlJU9ttvv6WysrJMHcrKyjQ3NxeljRs3Tvig2LFjh5B+8uRJ1qxZkz4+PpV8JbKUKWZmZmaiP9nc3FzWqVOHTZo0EZXPzMykhYWFSDFLTk4W+sWLFy+E9KtXr1JbW7tcGzMbGxsZxawMa2trkWJGkmFhYQTADh068PLly0J6Tk4O9fT0aGtrW2U2fD4+PlRXV+d//vMfIS07O5vW1tbU1dWVUcLMzMw4fPhw4fjWrVsEwB9++EFUbsqUKaxevTpv3bolpJWnmFWrVo1ubm6itNTUVALgpk2bROl/Vczi4uLYuXNnduvWTUaJI0kXFxcZxYwsVc7ep5hZW1sLxxcuXKCjoyP79OkjU4eGhgabNm0qSsvMzCQArlmzRpQeExMjfLS++4GZkpLCWrVqcfz48TL1VxZyr8yvmP79+2PIkCHCsVQqhYKCAiZMmICuXbsK6eVtOGtra4v27dujRYsWovQPhQBo3rw5fvjhB9H0rL+/P7Kzsz/bQ61WrVpITU3FwIEDceDAARQVFWHcuHGYOHEiFBUV33teXl4eTExM3usqf/r06c+S6+9Yv3498vLysHjxYpGcBgYGaNmypahsUVER9PT0MHDgQKioqHy0rDt27ICzs/P/tXfeYVEdXx//sktHuoKCqCgIakQQsaGwgIpiB2yoSEQsWKLRGGPHGjtigRA0trWBGks0/hRJQMRewAooRcSCIB0pu+f9g2fn5bKgaNSQ5H6eh0fvmblzZ+bOzJ47M+cMu7a1tYWLiwtSUlI+USlqR9Z2Vq5cCXNzcybv1asXAGDTpk2cA8pl8qq0b9/+o86iKyoqwogRI/Dzzz/j/PnzGDhwYI3x2rVrhz179kBLS4vJ/Pz8Pvh5H8v//vc/uLu7Y8aMGTh48CCnnr4kubm56Nu3L7766iuOvLYDp3V1deVksrjLly+Hl5cXk/fu3fuLH1w9bNgweHh4sGs1NbUaXZ1oaWnJLY+tXbsWQGW71dfXZ3I7O7tPvgVg8+bN6Nq1K7vW0NDA1KlT8eDBA9y9e/eTPutDMDU1xerVq9l1gwYNYGBgADs7uxqXdKsSEREBAPj111/Rq1cv9hcbG4vWrVujoKCAxbW1tcWDBw84LmsGDRqEhQsXctKsi+VmZGQkevTogdatWyM8PBwWFhZ1Kuv7SE5OxvXr13H69GkMHDgQQ4YMYUuVVRk4cCAWL17Mkb1vnPXx8UHr1q3ZdZMmTaCmpvZJ8l0b/B6zekxNP+7vklelZcuW+PXXX3Hjxg3cuHED+/btg1QqfafJebt27T7qWXXh119/xZw5c3D48GGIxWK0a9cOnp6emDNnzjvX6Rs3bozo6Gjk5uYiMDAQeXl5OH78+BfzcxYREQFVVVW0atVKLqxt27aIi4tj11paWjh//jxycnIQEhKCvLw8HDp0CEVFRe98RvVOLhAIoKKiwvao1XeOHDmC3NxciMVi3Lx5E1FRURAI3v3Nd/ToUfj7+yMpKQkhISHv3N9lbm7++fZyvIOCggJMmzYN27Ztg6WlJTw9PWvc0/al8PDwwKBBg5Ceno6TJ08iNTUV0dHRePHiRY3xzczM8Pz58xrDPlW//hgcHR3RoEGDd+4Teh/37t1D586d0axZs0+Ys7ojGytPnjyJzp07/y15+CucOHECAHDhwgU0btz4nXHNzMxA1Y7UPnjwIKKjoxEYGIg///wTGRkZ7x2TN27ciHPnzoGIYGFh8Un7kkQiwcKFC3H27FkAwNChQ2scM3bt2oXY2FgEBgZiz549UFNTY/u06xP8jNm/lOfPn8PW1ha9e/dGbGwsFi1ahICAAIwbN+5vyU+HDh1w7tw5REdHw9PTE0+ePEFAQECdnIeuWrUK+vr6iI2NhbKyMgICAjBjxgwA+Oybr3Nycj4ofmhoKPT19REcHIzi4mIEBATA19f3M+WufjB79mwYGRlh586daNmyJQICAtgm3toIDg7GlClTYGtri2nTpnEU3PrCmzdvcPfuXXh6eiI1NZUza/J3kJycjJ49e8LW1hbXr1+Hi4sLAgIC4OTkVGN8mSFOfUNbWxtCoRB2dnZ/KZ2SkhLe+vYvoqen9944hw4dQtu2bTkGP35+fswwbfz48diwYQMiIyPfmU5JSQlCQkLQpk0bzJw5k7P5/1Oxbds2KCkpwdvbG69evZILnzFjBvr164cXL14gICAAu3fvZoZ19Ql+xuxfiFQqhY+PD4qKipCSksJZisrMzPxkz8nLy0NpaWmdvnwcHR3x+++/o2vXrggPD8fLly+xatUqBAUFwd/fH7t27arxvm3btmHx4sXYsmULZ7ksKysLs2fP/uwzGF27dkVkZCTevHlT49JQVQ4fPowpU6Zg4cKFWLJkCXMJ0LNnT2zevPmz5vPv4urVq9i0aRNmzpyJ9evXs5my2mZxZGzevBkzZsyAt7c33Nzc4O3tjcjIyM86A/KhTotNTExw4cIFCAQChIeHY8SIEfD398fWrVvfOyP4qSktLcWIESOQkpKC06dPc7YovMvjucw6VYaXlxfmzJnz2fL5pWjUqBGbna5ukfqhFBYWfvAMvKwtVV0O/icxevRoxMfH4/LlyxyrXaDyN0JdXZ1jRV6Vbdu2YdeuXQgKCsLUqVNZX3j58uU7n7lgwQK4urrCw8MDnTt3hqOjIyIjI+v8cf2+/hsQEIAuXbrA0NAQY8eOhUgkwh9//MH6wM6dOxESEoK1a9dy+kBt1vV/J/yMWT2mtiWw98nLy8sRGxsrtzfjt99+w5YtWz7oebU9y8rKCjdv3sSxY8eY7OnTp5g4cSIuXryIt2/fQiKRsLDHjx9j7NixbHnO0NAQP/zwAwBASUmp1jw9fPgQRMRZ9sjJycGMGTNQUlJSJ2/gf4VRo0ahtLQU69ev50znX7p0CWKxmBP30aNHkEqlMDExYUpZUVERvv/++w9SiKVS6Rdbqi0sLKxRXtt7rx4/MTERRARnZ2c2QOfk5LD9J7WlI1PA9PX1sXHjRmRmZsLV1ZW5C6lKVfcKdaG8vBylpaXsWktLC6ampti+fTtTGIuLi3H48GH079+/1nQUFBRYmQYPHowJEyYgODgYs2bN+mJexmX1nZmZiZs3b8La2pqzH/HatWv45Zdfar2/Z8+enOv6sDweGRmJgoICxMfH1yl+9fcJgB25oGX/NQAAIABJREFUtHDhQk7Y2bNnkZKSgpKSEs74A1TuwYqPj2dtUiqVIiYmBkOGDEF6enqtz1+8eDGn3tLS0rB582ZYWFiwH/2SkhKsX78ea9as+ex9l4hQVFSEsrIyjjf9iooKvH37Vq7spaWlqKio4PTF4cOHQ01NDVOnTkVGRgaTx8fHY/jw4XJKUElJCeuDT58+BVDpc1LWP+7cucM+nKuPEdWvZSsKz58/h6urq9werwYNGiAyMhLJyckAKseQK1eusOPFamo3JiYm7DfCw8MDu3fvRkpKCvr06cOW89PT00FEnFnCe/fusX2z1fNZ29glm6l93xaVv8RnMyvg+SgeP35Mvr6+pKqqykyfS0pKKD4+nhYuXEgCgYBUVVVpzZo1RER0+fJlZsavra3NLGIWLlzIXF2EhYWRk5MT9ejRg3r27EkAaMaMGSQWiyk5OZlWrlxJqqqqpKysTGFhYcwq8/fff6cmTZow66eqLg5evnxJSkpKpKamRg4ODuTg4EAqKiq0dOlSsrOzIwC0bt06evXqFRERBQUFEQCysrKisLAwCgsLo65du5KpqSmlpqZSUVERhYWFkaGhIamrq9OPP/5IKSkpdOrUKRIKhWRlZUXz58+nqVOnUvv27cnX15dUVFTIzc2NwsLCPutpAQsXLiQFBQUaOnQohYWF0bBhw6h58+akpqZGioqKtHTpUiorK6MrV66QUCgkXV1dmjVrFs2ePZvat29PPj4+pKOjQ0ZGRhQWFkbx8fF07Ngx6t27NwEgZ2dniomJISKi7Oxs9j61tLRo06ZNHDcbn5LIyEhq2bIlAaBBgwYxC8Bjx45Ro0aNCAB5e3tTVFQUERGFhoaSlpYWAaBvvvmGrl69SnFxcaSkpEQtWrSg1atX05IlS6hZs2bk4eFBJiYmZGlpSWFhYRQbG0vnz58nLy8vAkCGhob022+/EVGllV7Hjh2Zefvy5cvp2bNnNHXqVNLU1CQAtHXrVuaeQub6BQC1a9eOIiIiOO0HAI0aNYpjsbtu3ToSCARkampKDg4O9NVXX1GPHj1ox44dBICcnJwoIiKCSktLafHixWRkZEQqKiq0YsUKSk5OppycHNaGAZBIJKLo6OjP8l4uXLhAY8eOJQDUqVMnOnnyJJWUlDCLWDc3N9q2bRs5ODiQiYkJx03CsWPHKD4+nsLCwkhRUZGNFRKJhC5dukTDhw9n7jKuX79ORETp6em0du1a0tDQIAMDAwoNDaWCgoLPUrZ79+6Rm5sbAaDWrVtTWFgYSaVSys3NpZCQEGrYsCFpamqSv78/PXv2jDIzM2n8+PEEgPT19Sk4OJi1g+nTp5NAICA7OzsKCwujXr16kb29PRkZGREAmjJlCht/iIjCw8NJKBSShYUFOTg4kL29PbVq1YpCQ0PJxMSEGjduTGFhYczSUmaVqaioSNbW1hQWFkb+/v6kqalJrVq1orS0NJb2uXPnWNvYuHHjZ6k7okpXELJ2AIC6d+9O6enp9OLFC/Lz82NyNzc3ZnnfqVMnAkACgYBGjRrFLMZPnDhBbdq0oebNm7MxvEmTJqxdEBENHz6c9fkBAwbQtWvX6OXLl6SiosIZ+42NjcnX15dMTExIR0eHNm/eTBcvXqRdu3aRsbExAaD27duzPr9u3Tpq2LAh6/M+Pj4klUpZXQqFQtLU1CQHBwfmUuWnn35i7UDmUuXbb79lfd7Gxob1ybFjx5Kuri6z/g0MDKTXr1+TlpYWqaiosHwbGRmRr68vmZqakqamJm3YsIFiYmJo5cqVZGJiwsYYmfW3RCKh9u3bs3bh4ODAscD/VPBLmfUMoVAIZ2dnODs7M5mCggIUFRXRpk0bZmkisxBUUlJC165d2f4XmcPV5cuXo0OHDoiIiMD169cxf/589OrVCxKJBBs2bMCFCxfQoEEDdO/eHS1atMCOHTvk8qKsrIz169dzrmUYGBjg6dOnOHbsGH799Vc4OjoiNDQUFhYWaNq0KfT09HD+/HkMGDAAjRo1wujRo5n1VGxsLB4/foxRo0Zh6NChMDExQXFxMdTU1LBx40ZOXfTv3x937tzB+vXrcePGDXh6eiIgIAD6+vqYNGkS1q9fj/DwcE59fWqWL1+OXr16Ye3atTh9+jQ8PT1x+PBhLFiwAAkJCTA3N0daWho6d+6MR48e4dixYzh//jzatGmDM2fOwNjYGLNnz8a6desQHh4OW1tbqKiowMfHh1ndymYNBQIB533K6uFzoKyszLF2lS0Lq6urIzAwkBMPqHznwcHBTK6kpAQ7OztkZGRg/fr1+OOPP+Do6Ij//e9/sLCwQGpqKtatW4ezZ8/CysoKEokE/fv3Z7NUsuepqKhg9uzZnLwJBAJ0796ds2Qn+zpXUlJiVmRA5Rc2ALn2U9WSas6cObC3t8eRI0dQUVEBDw8P9OzZE8XFxWwDfXJyMhQUFGBhYcHZIycUCiEQCKCvr8+ZJX3XTO9fQVlZGX379mUOMVVUVKCqqopDhw6xvTxnz57FpEmTMHLkSBQXF2PDhg2Ii4tDdnY2pk+fDjU1NezevZul+fTpU2RmZmLw4MHMweqzZ89ga2sLgUAAY2NjjgNnBQWFz1K2jIwMjB49GqNHj+bIFRQUoKmpyVnyFwgEUFBQgIuLC1xcXOTyFhQUBF9fX9avvvnmGwwYMAA///wzLl26hB49enCWnD09PZGUlIR169YhOzsbnp6eGDZsGIBKh6J//vknLl68KLc8effuXWRkZODIkSPIycnBjh072H0yevXqhSNHjmDOnDk1zvp+KhQUFDB06FAMHTqUyWTtUyQSQSQSceIClXtAq844y+QDBw5E165dce7cORbWsWNHWFpasmsvLy+OQ14zMzPo6OggPT2dY2Xu6ekJZWVlpKam4tKlSwAq+0erVq2YBS0AlraVlVWt2zt69erFDFuASmfl3bt3R35+Puvrsn/79+/P8TTQokULAJUzgrL+A1SOBfr6+njy5AkzEAAqHUurq6vj6dOniImJYWUUCoUsLaDS0EtWd/PmzePk93OcYqFAVM3cgoeHh4eH5z/OkSNH4OnpiYcPH9bJrcPly5fh6uqKmzdv1mjFzcNTV/g9Zjw8PDw8PLVQdR9XbaSlpWHMmDFYsGABr5Tx/GV4xYyHh4eHh6cKkZGRbNl67Nix73U9kpubiy1btmDu3LlfIns8/3L4pUweHh4eHp4qHD16lGOZaGFhwdm/xcPzOeEVMx4eHh4eHh6eegK/lMnDw8PDw8PDU0/gFTMeHh4eHh4ennoCr5jVUx49evRZzhKrC/fv33/vkTr/VoqLi5GQkPB5vTr/hykpKUFCQgLHy7ZUKkVCQgIeP37MiVtaWoqEhIR6eWRKXXj69CmSkpLqfZo8X4bs7GwkJCTU+fzdgoICJCQk1HoQfXVu3LiBsLCwv5JFnnoCr5jVMxITE9GpUydYWVlh6dKlX/z50dHRsLKy4jh0/K8wa9Ys2NjYwMrKqt4eAP1P5rvvvmP1e/nyZSYvLi6GlZUVRo4cyWSLFy9mcd93OHJ94/nz5+jYsSM6dOgADw+PT5Jmfn4++vbtiw4dOrDjiHj+OQQHB8Pa2hpWVlYIDw+v0z2xsbGwsrLiOGitDUdHR9jb22Pq1Kl/Nas89QBeMatnNGjQAEuWLHnvgdmfCwsLC4wYMQJjx479S+lcuHDhE+Xoy+Hl5cX7IPqMjBgxApMmTZKTq6qq4ttvv8XEiROZzN3dHdOnT/+S2ftk6OjoICAgAFZWVp8sTUVFRUyZMoV5POf5ZzFmzJg6KVhV6dixI8aMGQN3d/f3xt2yZQusra0/Nns89Qz+SKZ6hpGREYyMjKCurv63PN/Q0FDucO6PYe3atZ/1mKTPgZ2dHebPn48zZ8783Vn5V9KpU6ca5YqKitiwYQNHZm1tDVVV1S+RrU+OmpoaBg4ciIMHD9Z52ep9qKurY/DgwThw4AAePHjwSdLk+XJoampyjgiqCwYGBuwIvvdhZWWFfv364datWx+TPZ56Bj9j9i/i7du3SEtLQ2lpaa1xiAhpaWmcfQtv375FXl5enZ5RVlaGtLQ0vH79usbwvLw8LFiwAPn5+ZBIJB9WgHrA+849y8vLQ1pa2gelWVpaitzc3L+SrVqRvc+qZ+HVhEQiQVpaGurqHScrK6vGNKvuDauNnJwclJeX1+k5H8rLly/fm4fy8nKkpaXVqV7eR2FhIdLS0v6x+9y+NBkZGe8cf2riQ8YfAMjMzKx1/KmaZlpaGkcxzsvLw9u3b+XipqenIyMjo87Pl0qlSEtLQ0FBQZ3vqY20tDRkZmZ+1L1v3rxBWloaSkpKagzPzMxk/aD6+JOfn19rGAC8evWKjRUFBQUf1Aeys7Pf+ztUV2TjVlpa2ge1kX88n/xYdJ5PgqmpKU2YMIFdHz58mJycnEgkEpFIJKK+ffuysOLiYlq0aBF17NiRhEIhdezYkRYvXix36n1UVBT17NmThEIhaWtrU9++fWnnzp1kY2ND9vb2VFZWRjt37qTJkydTSEgI596ysjIKCAigzp07k1AopCZNmtDIkSMpLy+PxXn06BGZm5uTgoICAaAePXqQi4sLLVq0iMVJTEyk8ePHk4uLC7m4uJCTkxPNnTuXcnJyWByJRELHjx8nb29vOnr0KOXn59PIkSNZ2adNm0ZSqfQv1/Fvv/3G0hSJRBQQEEALFiwgABQVFcWJ+/jxY5o4cSKZmZmRoqIiOTk50f79+zn5yM/Pp507d9LXX39NBw8epISEBBo9ejTZ2NhQ8+bNacKECfT48eP35ksikdDZs2fJz8+PduzYQQ8ePCAfHx+Wzz179lBFRQXt2LGDHBwcCADZ29vTmTNn5NJKS0ujKVOmsPfu4OBA0dHRLDwrK4u2bdtGIpGITp06RVFRUSQSiahRo0Zkb29Pv//+O0mlUlq9ejWJRCKytLQkkUhEN27ckHvW/fv3ydvbm5o3b05du3YlkUhEDx484MS5du0aAaBz584REZFUKqUTJ06Qt7c3TZo0iRP3wYMHBICOHDlCsbGxNGjQINLV1SVLS0taunSpXBuQSqW0cuVK6tKlCwmFQhIKhTR06FC6du0aJ97x48dpyZIlJBKJ6P79+zR//nwSiUQ0ePBgysrKIiKiFy9e0MyZM6lt27YkFArJ3NycJk+eTKmpqe99fzK8vLyoffv27Pru3bucPuzs7ExJSUks77/88gs5OTmxfjFr1iy5Mo4YMYKsrKw4MolEQidOnGD3Ojs7k4+Pj1zdv3r1irZv304ikYjKysro+vXrNGzYMJaf7du3y5VBIpFQUFAQS1skElFQUBDNmzePRCIR3bp1i4iIkpKSyMnJiTQ0NMjOzo7GjBlDkydPZu193bp17P758+dznjF//nwyMzOTC0tMTKRVq1ax9/TkyRPq3bs3qaurk6GhIS1YsIAKCgrk8rxlyxaytrYmoVBIJiYm5O3tTTt37iRra2uaO3cuq++IiAhycnIiFRUV0tDQICcnJ7k+dOnSJdqyZQuJRCI6e/YsXblyhQYPHkwAyNzcnObNm1fnsSgnJ4cAUHBwMN24cYOGDx9OAEhDQ4NmzpzJSefRo0e0fPlyEolEtHXrVk46FRUV5OPjQyYmJiQUCqlDhw40b948at++PSkrK7N4w4YNI4FAQABo6dKlnDS2bdtGzZo1kwu7fPkyzZ49m/T09Oju3bsUFhZGrVu3JgBkZmZGs2fPZvnMzc2l0NBQEolENGHCBCosLCQvLy9q3LgxASA7OzvWz4mIvv/+e9bWnJyc2O9CdnY2OTs7k0gkIhcXFzp58iSrezc3NzI3NycLCwtq1aoVTZ069ZOM/fUdXjGrp1RXzEpLS8nOzo50dXXpp59+olevXhFRpTLg7OxMHh4elJycTEREZ86cocaNG9N3333H7o+MjCQNDQ3y8fEhospBwsvLiwDQxIkT6cSJE3Tq1ClydXUlJSUlNoARERUVFZGbmxvZ2tpSaWkpERGlpKSQg4MDGRsb05s3bzh579OnD7Vt25aKioo48pycHGrcuDH17t2bhUVHR5OamhqNGzeOxdu5cye5uLgQAOrUqRMZGBiQv78/icVimjx5MgGgb7/99i/V7/r16wkAubq6klgsJrFYTBMmTCChUCinmN29e5cA0ObNm5ksPDyclJWVKTAwkMnEYjH16dOHAJCNjQ3Z2NjQmjVrSCwW04wZMwgA+fv7vzdvR44cIVdXVzaoNm3alMaPH09isZi6detGANhAuWnTJhKLxWRhYUHa2tpMsSAiSk1NpWbNmtH333/P3tHixYtJU1OTlS8kJIScnJwIAJmampKZmRkFBgaSWCwmc3NzUlVVpe7du9NXX31FoaGhtHv3bjI0NCQzMzPOj+KNGzfI0NCQVq1aRaWlpVRSUkL+/v4EgC5fvsziVVfMnj59Sq6urmRoaEidOnXi1INMMTM1NaU2bdrQ9u3bSSwW04gRIwgAbdiwgRN/woQJpK+vT1evXmUyX19fUldXp7t37zLZtGnTyMDAgABQmzZtyN/fn4YNG0YA6Nq1a/TixQtq06YNDRkyhF68eEFElT9C9vb21KNHD6qoqHjvOySSV8yIiCZPnkwKCgq0YsUKun//PpNPnz6drKysWF1FRkaSpqYmjRs3jiQSCYtXk2I2ceJEatasGXun9+/fJzc3N2rUqBEbJ4gqf6gtLCwIADk7O3PaT+vWrUlVVZVu377N4ldUVJCDgwNpaWnRhQsXiIho06ZNpKamRi4uLiQWi+nhw4d0//59atKkCbm4uFBhYSGVl5fTmjVr5MaR/Px8MjMzo0GDBsnVVV5eHrVq1YoTNm/ePLKzs2P5tba2pl27dpFYLKbly5cTAJo2bRonnQ0bNhAA+umnn4ioUsHp1KkTAaB169bRpUuXiKiyH6ipqXE+UkJCQggAHTp0iMm2bt1Kjo6OrB22bt2agoKCSCwWk7e3NwGg5cuXy5WnJmSKmampKbVq1Yo2bNhAYrGY/Pz8CAB9//33LG5iYiK5urqSsrIyzZw5k8mLi4tp0KBB1LBhQzpy5AgRVfbzMWPGEACOYiYLU1RUlFPMZCgrK3PCIiIiqGvXrmyM6d+/PxsffX19CQBTnu/cuUNjxowhQ0ND0tXVJWtra1q3bh2JxWIKCQkhHR0dMjY2psLCQpa+7DdnypQpnHzs3buX9PT06OXLl0REdP36dVJSUqJTp06xOGfOnCEAFBQUVKf6/ifDK2b1lKqKWUlJCY0aNYpEIhFduXKFEy8sLIx9hcXHx7M/V1dXUlRUZIO/tbU1mZqaUllZGbs3NTWVAHBm34iIdHV1OQNqYmIiAaB9+/Zx4p0+fZoAUFxcHEfep08fcnJykitTYGAgAaDjx49z5L6+vmRsbMyR5eXlEQBq3749UziJiMrLy9lXbtUO/yGkpqaSnp4e2dnZyc0q+vj4yClmgYGBpK2tLRfXzc2NmjRpwpGVlZWxH/yqsysVFRXUr18/UlZWptevX9cpn6qqqtSyZUs2q0JUqcjIFLyq5ReLxQSAffGXlpZSt27dqGnTpnT16lXWLmQKlK2tLbv3xYsX7EeuapoXL14kALRy5UoqLi5m8sOHDxMAjrLTunVrGjRoEKcNXr16lQQCAbm7u7N41RUzGUOHDq1VMfP29qbc3FwmLy0tpSZNmnB+lDMzM0lZWZk8PT05aVy+fFnuR4+IaNCgQQSAxGIxS/PFixdUVlZGERERBICOHTvGuUfWfuva7qoqZrm5ueTr60vm5uZy6e7atYsUFBToyJEjnPqbNm0aAaCLFy+yuNUVsydPnpCOjg7nI4yo8kdMQUGBnjx5wpHLPkgWLlzIKcfNmzdJVVWVvv76ayaLiYkhALR69WpOGu7u7qSnp8eu165dSwBo3LhxnPHlp59+ohYtWnDu7dq1a42KGRFRly5d5MIuXLhAAGjw4MH09u1bTlinTp3I0tKSXaenp5Oenp5cO5L1jYCAACYzMjKSG6MkEgkBoB9//JEjl/W5b7/9lvOxWVZWRi1btuTU2buQKWaTJ0/m1H15eTm1b9+ehg8fLndPo0aNOIpZeHg4KSgo0NGjRznxysrKqHnz5nKKGZG88lU9zN7eniOTtZFffvmF8xFSXl5O3bp1I1VVVY7C7+npScbGxpSens5JZ9OmTQSAsxqSnp5OOjo6NHLkSE7cLVu20Jw5c9j11KlTqWnTppyxsqKigjp27Fhr+/k3wW/+r8fI/DgtXboUL168wJkzZ6ClpcWJExERAYFAgAsXLuDRo0dM3qZNG7Rp0wY6OjoAgOTkZDRu3BhKSkosjmxzdU37LqrSrFkzrFmzBv3790dFRQXba/Dw4cMPKs/gwYMhEAgwaNAgSCQStmfgyZMntd4zceJEjqWkoqIi3N3dERUVVef9UtVJTU1FTk4OQkND5TaYd+zYEbt27eLIbGxsEBgYCFVVVZSUlKCkpASZmZkoKSmpte7Gjx+P5s2bs2uhUAgPDw+cOXPmg/Y9jR07FmZmZuxall8bGxtoaGgwedu2bTn3ZWRkIC4uDpaWlti/fz8nbNSoUZx2IMPa2pqTppqaGgDA1taW/b9qHmTcuHEDqamp0NbWxs6dOzlhM2bMgIGBQZ3KWhtDhgyBtrY2u1ZWVoZAwN0e27BhQyxfvhwTJkzgtC3ZZujevXvXmLatrS1L09DQEADg4uKCNWvWoF+/figtLUVRURFyc3Px559/flT+L1++jLlz54KIcOrUKbRu3ZoTHh4eDqFQiFmzZsHd3R3Pnj1DXl4enjx5Aj09vXe280aNGmH69Onw8fEBUOl65O3btzAwMIBQKMSDBw9gamoqd9/ixYs5bcDGxgbm5uac9nzv3j0A8u/b3NycYyAzfPhwhIWFYffu3bh+/To8PDzwzTffYPTo0ejevXvdK+od/PDDD1BRUeHI2rZti6tXr7LrrKws5OXlcfoL8P/tuGrZVq9ezaxm37x5AyJ6r384GxsbjlGWkpIShELhB5elej9TVFR8795WGWvWrIGGhgaGDh3KkSspKWHw4MEICQn54PzU1jdGjx7NKZ+ioiKGDh2KuLg4nDhxAr6+vizMwMAAJiYmnPurjhkyTExM4OPjg+3btyM5ORlmZmYoKipCaGgox5J/5cqVmD59OnR1ddk+wYiICGRnZ6Np06YfXMZ/GrxiVo/Zu3cvs8pp27YtiouL5RSz69evQ19fH4cPH35nWnPnzsWaNWtw9uxZuLq6AgBTQGSDem2oqKjAw8MDCxcuREJCAqKjo9GzZ0+5H8f30aJFC3To0AGzZs3CnTt3EBUVhW7dunEOC/4SHDp0CACgp6cnF2ZnZycnc3BwgFAoxNChQ/Hw4UM8evQIHh4euHTp0t9mPVtXAgICMHz48M/6jIKCApSVlSEoKAhdu3b9rM+qDSUlJYwYMQLLli1DfHw8oqKi0L1791otO52dnXHixIkaw3R0dNCrVy/4+vri3r17uH37NgYMGPBBG8RlpKamom/fvsjLy4OFhQWMjIxqjNelSxdcvHjxg9Nv0KABvv/+e5w6dQozZ87EvXv38OTJEzRv3hwVFRW4du0a3NzcPjhdAHBycgJQeaD3119/DW1tbWRlZWHnzp2cj47mzZvjwoUL2Lp1K4KCgrBs2TIsW7YMXl5emDdv3kc9+2Po2LEjevXqhYMHD2L16tVo0aIFysvLsW/fPgDgWIkPGTIEQUFBWLx4Mc6cOQMzMzN89dVXXyyvH0tOTk6tfaym8aw+MnfuXOzduxeBgYHYunUr7t69iw4dOqBhw4Ysjra2No4cOYLp06fj3LlzsLOzQ/PmzT+JwcU/Ad4qsx7TpEkT3L9/H7/++itSU1MhEolQUVHBidOoUSOUl5e/1+pv+vTpaNCgAQYMGIB+/fqhU6dO2Lp1KxYvXgxvb+933nvv3j04ODjg0aNHmDZtGoqLixEVFYUlS5Z8UHlCQ0Ph5OSEGzdu4Mcff0RxcTFiYmI+2Iz8S7N37144OjqiRYsW+OOPP1BUVITw8HD4+/v/3Vl7L9Vnyz4nn8LNyseSm5sLBwcH7Nq1C2PGjEFxcTGio6OxatWqGuO/66v77NmzsLe3h6KiIo4ePYri4mKcOHHivR8wNSGRSLBr1y5s27YNSUlJGDx4cI3WbXFxce+cOa6N5ORkmJqaYtasWejfvz+uX7+O4uLiWsv9IbRu3RoeHh6IiYmBi4sLJk+eDCcnJ7Rr1w7nz5/nxDU2Nsbq1auRnZ2NgwcPonv37jh8+DDs7e2/qHuPFStWAKj0x+jt7Y3evXvj/v37OHDgAHOanZeXhwEDBmDbtm1o3749srOzER8fzz7Y6jsfO3NbX2jSpAns7e0REhKCpKQkrFmzBl5eXixcKpXC398f33zzDQYOHIji4mJcunQJ4eHhMDc3/xtz/uXgFbN6TP/+/dGmTRsMHjwYe/fuxaNHj+Dg4MBRwjw9PZGbmys3UAKVX7qvXr0CAHh4eGDgwIF48OABtmzZgoMHD+L27dsICAiAgoLCO/Mxf/58vHnzBseOHcOwYcOgpqYGoVCIly9f1nrP27dv5dxlbN68GVKpFKdOnULnzp1ZOnVxwVAX3rx5g7KysvfGGzFiBJSUlBAfHy8XVj0vSUlJ8PPzQ+/evbFx40YYGhqyKXrZUk99RFdXFyYmJnjw4IGcawHZTMqnokWLFtDW1saNGzdQXFzMCUtNTcXu3bs/2bNqY9++fUhPT8eqVaswfvx41rY+5mit7du3w9LSEj///DNMTU2hpqYGBQWFj0qrVatWGDJkCPz9/bFhwwZER0djyJAhnLQ6dOgAqVSK2NhYuftfvXr1zlmC4OBgZGVlISwsDJMmTYKuri4r+4dQVlYm13euXr2Ks2fP4vr161i0aBEMDAywfv16nDt3DsbGxizegQMH0KdPH0ilUqiqqmLEiBEpiWWcAAANT0lEQVSIjY3F+vXrUVBQgC1btnDSLSkpkVvOT0tL+8tH0GVmZmLEiBHYs2cP7t27h8WLFyMsLAzXr1/HyJEj2Ti3Y8cOxMTEYNmyZVi5ciW0tLSgpKT0ycahz8nYsWMhlUpx5coVjry0tPSdJwrUNNZduXLlnS6NLl26VGM6NS2lfihz586FRCLB2LFjce/ePTg6OrKwkpISBAcHw9LSEtOnT4eamhoUFRXf2UY+xk1LfYZXzOohUqkURITk5GS2v2TgwIFYtGgR4uLisGLFCtah/Pz8oK+vj6lTp+L+/fuQSCQoKyvD8uXLsXv3braX4eLFixCLxfDz88O+ffsQExODx48fy3VMqjQIwdmzZ9mzCwsLUVZWhkOHDkEikaCwsBCLFi3C6NGjWX6roqCggLi4ODx9+hQSiQSRkZEoKytjA+Pz589BRLh37x7GjRvHlmur7qWR/b9qHcjkZ8+elXtuZmYmunXrhsmTJ79375mjoyNcXV2xZs0atq9EIpFgx44dGDduHOf56urqaNCgAV6/fo3y8nJIpVI8evQI48ePxx9//MHqS4asPpOSkjhyqVTK8l2XvXGyslVPR5bf6nVetRxApWI2ceJEJCYmon///kw5y8zMRN++fTlf3bJ7q++xSUxMrNOzWrRogfnz5+Py5cvw8PBgfpWSkpLg7u7O2WtS9VmycsnqkIg4z6r+nOp1k5yczP4v+1F98eIFJBIJJBIJzp8/j/HjxwMAq3tZerJriUQi9z4EAgGePHmCmJgYSCQSPH36FNOmTcOPP/5YYz3VREVFBZ48ecIp08yZM/Hjjz8iKiqKo5zNnDkTKioqmDVrFjIzM9k9q1atwoABA9h+uYqKCqSkpHDaXNVyy+rm4MGDWLZsGavbqlSt86rcvXsXjx494tT/7du3UVhYiG+++QaPHz+GqakpTE1NoaCgwLnfxcUF58+fx8KFCzmzgbLyVd1nZmZmhnPnzuHw4cOQSCRISkrC6tWrIRKJ8OzZs1rzW73OiYidrSrL87Nnz5CSkoINGzZg0aJFiImJQUxMDF69esVpQ7I9j7Gxsayt7NmzB126dGHPqpqP2vrBy5cvkZ+fX+M4Wh0iYnGkUiknLVkbTElJYcoFESE9PR1v377ltPNp06bBwMAAfn5+iI+Ph0QiQXJyMry9vdmHYvW89O3bF2fOnMG6desgkUiwf/9+zJkzBzNmzJD7nanKkCFDWB+QSCSYNWsWjh07hm+//ZYtm5aWliI1NZVTPlkZZe8sMTFRru66du0KR0dHXLlyBXPmzOFsCVFUVESLFi3w+vVrXLt2DRKJBNHR0ejfvz+ePXuG9PR0jhJ28+ZNmJmZffDJCvWaz2NTwPOxxMXFUatWrZi5sr29PeXn59Nvv/1GRkZGTC4UCplp/a1bt8jKyoqFCQQC8vX1Za4tiCqt0xo2bMjiVP2bOXMmJScn0/nz55lpOABycnIiiURCMTEx1LZtWyZXUVGhKVOm0NGjR6lly5Zkbm5OXl5ezGIpJSWFjI2NWXxra2sqLCyka9eukb6+PjN/b9asGa1evZo2b95MGhoa5OzsTF5eXhQcHMxM3AHQ2LFjiajS8s7Dw4PJ7ezs6ODBg0RUaVWmoqJSozVdTRQVFVGvXr0IALm7u5OBgQH5+fkxE/iWLVsya7Q1a9YQAGrYsCFZWVmRsbExrVixgpm5Ozo60pIlS+jo0aPMDQMAGjZsGHte7969mdzGxob27t1ba95Onz7Nedf9+vUjIqJ9+/aRrq4uk/v5+RERUVBQECs7AFqyZAkRVVoxydwWqKiokJeXF+nr63PM+/fu3Us6Ojrs3okTJxIR0ebNm0lZWZnJly1bRkRECxcuZDJVVVXatm0bS0tmhaWnp0fu7u7UpEkT5raAqNKqUUlJid0/fvx4yszMZC4RAFDbtm0pISGBgoODSV1dncnnzZtHRJWWgqampkxuYmJCCQkJVFRUROPGjWNyRUVF8vPzI7FYTAMHDiQArG3p6elx2r/MFYSMmJgYMjExYeH6+vr0ww8/0C+//EIGBgbUsGFD8vLy4ri7qEpWVhanHVhaWtKNGzcoMTGRNDU1mVxHR4e1gytXrpCNjQ3r823atCEnJyfKyMggokofZF26dOG0iVu3blFCQgKZmZmRQCAgLy8vsrS0JGdnZxKLxdSsWTNq0KABeXl5UVxcHE2aNIm96y5dujB3C6dOnSJLS0uW9siRIykrK4sqKipozpw5NY4Z/fr14/iyc3V1JQCkqalJXl5e5OXlRQ0bNqQFCxZw6ub+/fusnLI/b29vunv3LivfsGHDKCMjg1atWkUtW7Zk73Pjxo1EVGndWNVtTOvWrZmLlD179tSYX319fVq9ejW9fv2anj9/zumPwP+7zZH5Fuvbty8FBgbSL7/8QlpaWize9OnTiajSP2DVOmvSpEmNvv1kbN++nfM8mUXonTt3SFVVlROWlJTErO1lf1UtNhMTE8nW1paFNW7cmJYsWULW1tZMVtVq8tWrV9ShQwcWZmFhQT/88AMREevjbm5uLL7MKrNPnz7Us2dPTjsOCwtj8ZKSkjh5NDQ0ZGEyFzyyv6pW/jKOHz9OpqamHItrGbL2K7u/T58+dOXKFdq4cSMBlW6UVq5cSUSVv3+qqqq0YsWKWuv/n4YC0UeatvF8Fmrygt2oUSO8fftWbklDW1ubY1kpu09BQUHOEm7FihXYt28fIiIi0KhRI+Tk5OC3337DkydPcPDgQTg4OODAgQNy+19klmolJSU4efIkCgsLMWjQILZRs7CwEBEREWjXrh06derEZsXy8/MRFxeHpk2bwszMjFlUvXnzBlFRUdDS0kKXLl2gqakJAHj69CkOHToEe3t7tGvXjuPNWigUsue9fv2a82WmoaHBzg+UTYmHhYVhyJAhdarrhw8f4vz58xgwYAAsLS2RmZmJ48ePw93dHSoqKtDR0QER4dWrV9i/fz/atm2Lbt26QUtLCxUVFYiNjcW1a9cwbtw4qKurc5ZDBAIBGjVqBKDSG3bV/YHq6uqs7NUpLi7mvGvZ+ywoKOAsFcrqpbpHc2VlZc5Zq1lZWbh79y6ys7Ph4uLCCauepqKiIvT19WtNs/pysZqaGjNIkdXTtWvXIBQKYW9vzzFWqSlNLS0tuaVWXV1dvH37ltMGlJSUoKenV2P/MDAwYO1Otrxete4lEgmz3qvetmTPU1ZW5siq1ousHQCVe9lkX+s13Sd7XvUy6ejoQCAQyB3RVLUdFBUV4fbt24iLi4OtrS169uzJrPVqS1NFRQVFRUU4cuQIXr16heHDh8PIyAiKiorIz8/H/v37UVxcDH9/fxQUFHBmLho0aAANDY0aPeI3bNgQ2dnZ6NOnD5ycnNgm/n379uHWrVv4448/8Pr1azx8+BAtWrTg1MuZM2fw+vVrjBkzBo0bN5arn9LSUpw7dw6pqakYNmwYG2Pi4uLYcu7XX38NgUDAaWuqqqrQ1taGVCqVMxjS0dGBVCqFt7c3cnNz2Yb/8vJyHDx4EFeuXMHJkyfh4+ODkJAQVFRUIDs7m1NeoVCIsrIyXLhwARUVFczAqab+AXC94wOV43RtBlGFhYWc5WtZ3y0rK8ObN2/k6r6srIwzFsvKLqPqfbKwoqIiNv5Uz0vVME1NTTZDJStD1d+MDRs2YM6cOSgrK4NAIGDtrup9gHybrNrn3jVOy9i9ezdiY2MRGhpaY51V7YOyNiIbY6qn+fr1a2hra9dobf6P5G9UCnm+EA8fPiShUEg3b96sMfzAgQNkZmb2hXP16Vm+fDl17ty5xi8wHh6eD2PGjBnUs2fPGh3qZmRkEACOg+W/m127dpGBgQHl5+fXGD5nzhzy9vb+wrn653Hnzh0CwPFJ96mRSqXk7u5ep5NQ/ovwe8z+A7x+/RpEhOPHj8uFpaenIzQ0lGP+/k/k9u3bCAoKwtq1azlfljw8PB9HVlYWiouLa9w/JRtLqrqg+LvJyspCfn4+oqKi5MJu3bqFmJiYf/w49yU4d+4cAHD8in0KlixZAj8/PxQXF2P79u0wNjZGy5YtP+kz/i3wS5n/Efbv34+NGzciMTGRmSafPHkSBgYG6NWrFxYsWMCWa/6JZGRkQENDg7NMx8PD8/Hcv38fK1aswKlTp+Dm5sbGh9OnT6Nly5b47rvv4Obm9l6r7i+FVCrFokWL8NNPP0FbWxu9e/dGeXk5Dhw4gI4dO2LkyJHw9/f/YP+L/yXGjx+Pffv2oby8HCYmJggODkb//v0/Sdpbt27FjBkzoKOjg6FDh2LBggW8YlYLvGL2H6K8vBxpaWkcmZGRUb13ksrDw/P3kZKSwpk1U1JSqtczT5mZmXJuW1q2bMkrZHWg+rvW09P7pI5rHz9+DEVFxXrdfuoDvGLGw8PDw8PDw1NP4D8heHh4eHh4eHjqCbxixsPDw8PDw8NTT+AVMx4eHh4eHh6eegKvmPHw8PDw8PDw1BN4xYyHh4eHh4eHp57AK2Y8PDw8PDw8PPUEXjHj4eHh4eHh4akn8IoZDw8PDw8PD0894f8AnAMnZ82GkYMAAAAASUVORK5CYII=;" vertex="1" parent="1">
                    <mxGeometry width="614" height="426" as="geometry"/>
                </mxCell>
                <mxCell id="5" value="" style="ellipse;whiteSpace=wrap;html=1;fillColor=#f8cecc;strokeColor=#b85450;" vertex="1" parent="1">
                    <mxGeometry x="10" y="35" width="20" height="20" as="geometry"/>
                </mxCell>
                <mxCell id="7" value="" style="ellipse;whiteSpace=wrap;html=1;fillColor=#dae8fc;strokeColor=#6c8ebf;" vertex="1" parent="1">
                    <mxGeometry x="57" y="277" width="20" height="20" as="geometry"/>
                </mxCell>
                <mxCell id="8" value="" style="endArrow=none;dashed=1;html=1;strokeWidth=7;fillColor=#d5e8d4;strokeColor=#82b366;" edge="1" parent="1">
                    <mxGeometry width="50" height="50" relative="1" as="geometry">
                        <mxPoint x="40" y="404" as="sourcePoint"/>
                        <mxPoint x="40" y="14" as="targetPoint"/>
                    </mxGeometry>
                </mxCell>
            </root>
        </mxGraphModel>
    </diagram>
</mxfile>